<?xml version="1.0" encoding="UTF-8"?>
<!DOCTYPE svg PUBLIC "-//W3C//DTD SVG 1.1//EN" "http://www.w3.org/Graphics/SVG/1.1/DTD/svg11.dtd">
<!-- Creator: CorelDRAW 2020 (64-Bit) -->
<svg xmlns="http://www.w3.org/2000/svg" xml:space="preserve" width="50px" height="50px" version="1.1" style="shape-rendering:geometricPrecision; text-rendering:geometricPrecision; image-rendering:optimizeQuality; fill-rule:evenodd; clip-rule:evenodd"
viewBox="0 0 0.362 0.362"
 xmlns:xlink="http://www.w3.org/1999/xlink"
 xmlns:xodm="http://www.corel.com/coreldraw/odm/2003">
 <defs>
  <style type="text/css">
   <![CDATA[
    .fil2 {fill:none}
    .fil1 {fill:#FEFEFE}
    .fil0 {fill:#FCC300}
   ]]>
  </style>
   <clipPath id="id0">
    <path d="M0.362 0.18l0 0.001 0 0.001 0 0.18 -0.181 0 -0.181 0 0 -0.362 0.181 0 0.181 0 0 0.18z"/>
   </clipPath>
 </defs>
 <g id="Layer_x0020_1">
  <metadata id="CorelCorpID_0Corel-Layer"/>
  <polygon class="fil0" points="0.362,0.18 0.362,0.181 0.362,0.182 0.362,0.362 0.181,0.362 0,0.362 0,0 0.181,0 0.362,0 "/>
  <g style="clip-path:url(#id0)">
   <g id="_3208602736416">
    <path id="1" class="fil1" d="M0.272 0.09c0.012,0 0.022,0.011 0.022,0.023l0 0.136c0,0.012 -0.01,0.023 -0.022,0.023l-0.182 0c-0.012,0 -0.022,-0.011 -0.022,-0.023l0 -0.136c0,-0.012 0.01,-0.023 0.022,-0.023l0.182 0zm0 0.046l0 -0.023 -0.091 0.057 -0.091 -0.057 0 0.023 0.091 0.056 0.091 -0.056z"/>
   </g>
  </g>
  <polygon class="fil2" points="0.362,0.18 0.362,0.181 0.362,0.182 0.362,0.362 0.181,0.362 0,0.362 0,0 0.181,0 0.362,0 "/>
 </g>
</svg>
