<?xml version="1.0" encoding="UTF-8"?>
<!DOCTYPE svg PUBLIC "-//W3C//DTD SVG 1.1//EN" "http://www.w3.org/Graphics/SVG/1.1/DTD/svg11.dtd">
<!-- Creator: CorelDRAW 2020 (64-Bit) -->
<svg xmlns="http://www.w3.org/2000/svg" xml:space="preserve" width="50px" height="50px" version="1.1" style="shape-rendering:geometricPrecision; text-rendering:geometricPrecision; image-rendering:optimizeQuality; fill-rule:evenodd; clip-rule:evenodd"
viewBox="0 0 2.249 2.249"
 xmlns:xlink="http://www.w3.org/1999/xlink"
 xmlns:xodm="http://www.corel.com/coreldraw/odm/2003">
 <defs>
  <style type="text/css">
   <![CDATA[
    .fil0 {fill:none}
    .fil1 {fill:url(#id0);fill-rule:nonzero}
   ]]>
  </style>
  <radialGradient id="id0" gradientUnits="userSpaceOnUse" gradientTransform="matrix(2.53871 -0 -0 2.42109 0 -3)" cx="0.282" cy="2.003" r="0.908" fx="0.282" fy="2.003">
   <stop offset="0" style="stop-opacity:1; stop-color:#FA8F21"/>
   <stop offset="0.0901961" style="stop-opacity:1; stop-color:#FA8F21"/>
   <stop offset="0.780392" style="stop-opacity:1; stop-color:#D82D7E"/>
   <stop offset="1" style="stop-opacity:1; stop-color:#D82D7E"/>
  </radialGradient>
 </defs>
 <g id="Layer_x0020_1">
  <metadata id="CorelCorpID_0Corel-Layer"/>
  <rect class="fil0" width="2.249" height="2.249"/>
  <path class="fil1" d="M2.013 2.059l-0.676 -0.677 0.091 -0.091 0.676 0.677 -0.091 0.091zm-1.69 0l-0.091 -0.091 0.847 -0.847 -0.407 -0.404 -0.061 0.061 -0.103 -0.106 0 0.21 -0.06 0.06 -0.304 -0.303 0.061 -0.061 0.209 0 -0.106 -0.103 0.213 -0.212c0.024,-0.025 0.051,-0.043 0.08,-0.055 0.029,-0.012 0.061,-0.018 0.095,-0.018 0.035,0 0.067,0.006 0.096,0.018 0.03,0.012 0.056,0.03 0.081,0.055l-0.177 0.175 0.128 0.128 -0.061 0.061 0.407 0.403 0.322 -0.321c-0.023,-0.029 -0.038,-0.058 -0.046,-0.087 -0.008,-0.029 -0.012,-0.062 -0.012,-0.099 0,-0.092 0.032,-0.172 0.097,-0.236 0.064,-0.065 0.144,-0.097 0.237,-0.097 0.018,0 0.035,0.001 0.053,0.003 0.017,0.002 0.034,0.007 0.05,0.015l-0.237 0.237 0.212 0.212 0.237 -0.237c0.008,0.016 0.013,0.033 0.015,0.05 0.002,0.018 0.003,0.035 0.003,0.053 0,0.093 -0.032,0.173 -0.097,0.237 -0.064,0.065 -0.143,0.097 -0.236,0.097 -0.037,0 -0.07,-0.004 -0.099,-0.012 -0.029,-0.008 -0.058,-0.023 -0.087,-0.045l-1.259 1.259z"/>
 </g>
</svg>
