<?xml version="1.0" encoding="utf-8"?>
<!-- Generator: Adobe Illustrator 27.2.0, SVG Export Plug-In . SVG Version: 6.00 Build 0)  -->
<svg version="1.1" id="Layer_1" xmlns:xodm="http://www.corel.com/coreldraw/odm/2003"
	 xmlns="http://www.w3.org/2000/svg" xmlns:xlink="http://www.w3.org/1999/xlink" x="0px" y="0px" viewBox="0 0 150 69"
	 style="enable-background:new 0 0 150 69;" xml:space="preserve">
<style type="text/css">
	.st0{fill:none;}
	.st1{fill-rule:evenodd;clip-rule:evenodd;fill:#E3E3E3;}
	.st2{fill-rule:evenodd;clip-rule:evenodd;fill:#BCBDBD;}
	.st3{fill-rule:evenodd;clip-rule:evenodd;fill:#9D9E9E;}
	.st4{fill-rule:evenodd;clip-rule:evenodd;fill:#FCC300;}
	.st5{fill:#5B5B5B;}
</style>
<g id="Layer_x0020_1">
	<rect x="0.3" y="0" class="st0" width="149.4" height="69"/>
	<g id="_2482886807264">
		<g>
			<path class="st1" d="M61.9,2.5v63.6c-33.2,0-28.5,0-61.7,0V2.5C0.3,2.5,61.9,2.5,61.9,2.5z"/>
			<polygon class="st2" points="61.9,34.5 61.9,66.1 0.3,66.1 0.3,34.5 			"/>
			<polygon class="st3" points="61.9,66.1 56.2,56.2 6,56.2 			"/>
			<polygon class="st4" points="31.1,12.3 43.7,34.3 56.2,56.2 31.1,56.2 6,56.2 18.6,34.3 			"/>
			<g>
				<path class="st5" d="M147.3,17.3c-1.4,0-2.5,1.1-2.5,2.4c0,1.4,1.1,2.5,2.5,2.5c1.4,0,2.5-1.1,2.5-2.5
					C149.7,18.4,148.6,17.3,147.3,17.3z M147.3,17.7c1.1,0,2,0.9,2,2c0,1.1-0.9,2-2,2c-1.1,0-2-0.9-2-2
					C145.3,18.6,146.2,17.7,147.3,17.7z M146.2,18.3V21h0.7v-1h0.2c0.5,0,0.6,0.1,0.6,0.6c0,0.2,0,0.2,0,0.4h0.7
					c-0.1-0.1-0.1-0.2-0.1-0.4c0-0.6-0.1-0.7-0.5-0.9c0.3-0.1,0.5-0.3,0.5-0.6c0-0.7-0.7-0.8-1.2-0.8
					C147.2,18.3,146.2,18.3,146.2,18.3z M146.9,19.6v-0.7h0.3c0.4,0,0.6,0.1,0.6,0.4c0,0.2-0.2,0.4-0.6,0.4H146.9z M131.7,16.5
					c-9.9,0-18,8.1-18,18c0,10,8.1,18,18,18c8,0,14.8-5.3,17.2-12.5c-1,3.9-2.8,7.5-5.3,10.5v1.2h6.1V32.1h-18V37h11.7
					c-1.1,5.4-5.9,9.5-11.7,9.5c-6.6,0-11.9-5.3-11.9-11.9c0-6.6,5.3-11.9,11.9-11.9c3.8,0,7.2,1.8,9.4,4.6h7.1
					C145.3,20.9,139,16.5,131.7,16.5z M110,17.3h-6.5v34.5h6.5C110,51.7,110,17.3,110,17.3z M68.1,17.3v34.5h20.8
					c6.4,0,10.9-4.1,10.9-10.2c0-4.5-2.6-7.4-6.5-8.4c2.9-1.1,5-3.9,5-7.3c0-5.1-3.7-8.7-11.2-8.7C87,17.3,68.1,17.3,68.1,17.3z
					 M74.2,36.2h12.1c3.8,0,7.4,0.7,7.4,5.3c0,4.3-3.3,5.2-7.3,5.2H74.2C74.2,46.8,74.2,36.2,74.2,36.2z M74.2,22.1h11.6
					c3.3,0,6.4,0.5,6.4,4.6c0,3.4-2.2,4.6-6.6,4.6H74.2C74.2,31.4,74.2,22.1,74.2,22.1z"/>
				<path class="st5" d="M73.9,62.6c0,1.1-0.2,2-0.7,2.7c-0.5,0.7-1.2,1-2,1c-1,0-1.8-0.4-2.3-1.1l0,1h-0.7V55.9h0.8v4.1
					c0.5-0.8,1.2-1.1,2.2-1.1c0.9,0,1.6,0.3,2,1c0.5,0.6,0.7,1.6,0.7,2.7C73.9,62.5,73.9,62.6,73.9,62.6z M73.1,62.4
					c0-0.9-0.2-1.7-0.5-2.2c-0.4-0.5-0.9-0.8-1.6-0.8c-0.5,0-0.9,0.1-1.3,0.4c-0.3,0.2-0.6,0.6-0.8,1.1v3.2c0.4,0.9,1.1,1.4,2.1,1.4
					c0.7,0,1.2-0.2,1.6-0.8C72.9,64.2,73.1,63.5,73.1,62.4z M76.6,66.1h-0.8v-7.2h0.8V66.1z M75.6,56.8c0-0.1,0-0.2,0.2-0.4
					c0.1-0.1,0.2-0.2,0.4-0.2c0.2,0,0.3,0.1,0.4,0.2c0.1,0.1,0.2,0.2,0.2,0.4c0,0.2,0,0.3-0.2,0.4c-0.1,0.1-0.2,0.2-0.4,0.2
					c-0.2,0-0.3,0-0.4-0.2C75.7,57.1,75.6,57,75.6,56.8z M78.5,62.4c0-1.1,0.2-2,0.7-2.7c0.5-0.7,1.2-1,2-1c1,0,1.7,0.4,2.2,1.1l0-1
					h0.7V66c0,0.9-0.2,1.7-0.8,2.2C83,68.7,82.3,69,81.4,69c-0.5,0-1-0.1-1.4-0.4c-0.5-0.2-0.8-0.5-1.1-0.9l0.4-0.5
					c0.6,0.7,1.3,1,2,1c0.7,0,1.1-0.2,1.6-0.6c0.4-0.4,0.5-0.9,0.6-1.6v-0.9c-0.5,0.7-1.3,1.1-2.3,1.1c-0.8,0-1.5-0.3-2-1
					c-0.5-0.7-0.7-1.6-0.7-2.7C78.5,62.6,78.5,62.4,78.5,62.4z M79.3,62.6c0,0.9,0.2,1.6,0.6,2.2c0.4,0.5,0.9,0.8,1.6,0.8
					c1,0,1.7-0.5,2.1-1.3v-3.4c-0.2-0.5-0.5-0.8-0.8-1c-0.4-0.2-0.8-0.4-1.3-0.4c-0.7,0-1.2,0.2-1.6,0.8S79.3,61.6,79.3,62.6z
					 M89.7,66.1H89v-7.2h0.8V66.1z M88.8,56.8c0-0.1,0.1-0.2,0.2-0.4c0.1-0.1,0.2-0.2,0.4-0.2c0.2,0,0.3,0.1,0.4,0.2
					c0.1,0.1,0.1,0.2,0.1,0.4c0,0.2,0,0.3-0.1,0.4c-0.1,0.1-0.2,0.2-0.4,0.2c-0.2,0-0.3,0-0.4-0.2C88.9,57.1,88.8,57,88.8,56.8z
					 M91.7,62.4c0-1.1,0.2-2,0.7-2.7c0.5-0.7,1.2-1,2-1c1,0,1.7,0.4,2.2,1.1v-4.1h0.8v10.2h-0.7l0-1c-0.5,0.7-1.2,1.1-2.2,1.1
					c-0.9,0-1.5-0.3-2-1c-0.5-0.7-0.8-1.6-0.8-2.7C91.7,62.6,91.7,62.4,91.7,62.4z M92.5,62.6c0,0.9,0.2,1.6,0.5,2.2
					c0.4,0.5,0.9,0.8,1.6,0.8c1,0,1.7-0.4,2.1-1.3v-3.4c-0.4-0.9-1.1-1.4-2.1-1.4c-0.7,0-1.2,0.2-1.6,0.8
					C92.6,60.8,92.5,61.6,92.5,62.6z M102.4,66.3c-0.6,0-1.1-0.2-1.6-0.5c-0.5-0.3-0.9-0.7-1.1-1.3c-0.3-0.5-0.5-1.1-0.5-1.8v-0.3
					c0-0.7,0.2-1.3,0.4-1.9c0.3-0.5,0.7-1,1.1-1.3c0.5-0.3,1-0.5,1.6-0.5c0.9,0,1.6,0.3,2,0.9c0.5,0.6,0.8,1.4,0.8,2.4v0.5H100v0.2
					c0,0.8,0.2,1.5,0.7,2c0.5,0.5,1.1,0.8,1.8,0.8c0.4,0,0.8-0.1,1.1-0.2c0.3-0.2,0.6-0.4,0.9-0.7l0.5,0.4
					C104.4,65.8,103.5,66.3,102.4,66.3z M102.3,59.4c-0.6,0-1.1,0.2-1.5,0.7c-0.4,0.5-0.7,1.1-0.8,1.8h4.3v-0.1
					c0-0.7-0.2-1.2-0.6-1.7C103.4,59.7,102.9,59.4,102.3,59.4z M111.3,66.1c0-0.2-0.1-0.6-0.1-1c-0.3,0.4-0.7,0.7-1.1,0.9
					c-0.5,0.2-0.9,0.3-1.4,0.3c-0.7,0-1.2-0.2-1.7-0.6c-0.4-0.4-0.7-0.9-0.7-1.5c0-0.7,0.3-1.3,0.9-1.6c0.6-0.4,1.4-0.6,2.4-0.6h1.5
					v-0.8c0-0.5-0.2-0.9-0.5-1.2c-0.3-0.3-0.8-0.5-1.4-0.5c-0.5,0-1,0.2-1.4,0.4c-0.4,0.3-0.6,0.7-0.6,1h-0.8c0-0.6,0.2-1.1,0.8-1.5
					c0.5-0.4,1.2-0.6,2-0.6c0.8,0,1.4,0.2,1.9,0.6c0.5,0.4,0.7,1,0.7,1.7v3.4c0,0.7,0.1,1.2,0.2,1.6v0.1H111.3L111.3,66.1z
					 M108.8,65.6c0.5,0,1-0.1,1.4-0.4c0.4-0.3,0.7-0.6,0.9-1.1v-1.6h-1.4c-0.8,0-1.4,0.1-1.9,0.4c-0.5,0.3-0.7,0.7-0.7,1.2
					c0,0.4,0.2,0.7,0.5,1C107.9,65.4,108.3,65.6,108.8,65.6z M116.2,62.4c0-1.1,0.2-2,0.7-2.7c0.5-0.7,1.2-1,2-1
					c1,0,1.8,0.4,2.3,1.1l0-1h0.7V66c0,0.9-0.2,1.7-0.8,2.2c-0.5,0.5-1.2,0.8-2.1,0.8c-0.5,0-1-0.1-1.4-0.4
					c-0.5-0.2-0.8-0.5-1.1-0.9l0.5-0.5c0.6,0.7,1.2,1,2,1c0.7,0,1.2-0.2,1.6-0.6c0.4-0.4,0.6-0.9,0.6-1.6v-0.9
					c-0.5,0.7-1.3,1.1-2.3,1.1c-0.8,0-1.5-0.3-2-1c-0.5-0.7-0.7-1.6-0.7-2.7C116.2,62.6,116.2,62.4,116.2,62.4z M117,62.6
					c0,0.9,0.2,1.6,0.6,2.2c0.4,0.5,0.9,0.8,1.6,0.8c1,0,1.7-0.5,2.1-1.3v-3.4c-0.2-0.5-0.5-0.8-0.8-1c-0.4-0.2-0.8-0.4-1.3-0.4
					c-0.7,0-1.2,0.2-1.6,0.8C117.2,60.8,117,61.6,117,62.6z M127.5,59.6c-0.2,0-0.3-0.1-0.5-0.1c-0.5,0-0.9,0.2-1.2,0.5
					c-0.4,0.2-0.6,0.7-0.7,1.2v5h-0.8v-7.2h0.8l0,1.1c0.4-0.9,1.1-1.3,2-1.3c0.2,0,0.4,0,0.5,0.1C127.5,58.9,127.5,59.6,127.5,59.6z
					 M128.2,62.4c0-0.7,0.1-1.3,0.4-1.8c0.2-0.6,0.6-1,1.1-1.3c0.5-0.3,1.1-0.5,1.7-0.5c0.9,0,1.7,0.3,2.3,1
					c0.6,0.7,0.9,1.6,0.9,2.7v0.2c0,0.7-0.2,1.3-0.4,1.9c-0.3,0.5-0.7,1-1.1,1.3s-1,0.5-1.7,0.5c-0.9,0-1.7-0.3-2.3-1
					c-0.6-0.7-0.9-1.6-0.9-2.7C128.2,62.6,128.2,62.4,128.2,62.4z M129,62.6c0,0.9,0.2,1.6,0.7,2.1c0.5,0.6,1,0.9,1.7,0.9
					c0.7,0,1.3-0.3,1.8-0.9c0.5-0.5,0.7-1.3,0.7-2.2v-0.2c0-0.5-0.1-1-0.3-1.5c-0.2-0.5-0.5-0.8-0.9-1c-0.4-0.3-0.8-0.4-1.3-0.4
					c-0.7,0-1.3,0.3-1.7,0.9c-0.5,0.5-0.7,1.3-0.7,2.2C129,62.5,129,62.6,129,62.6z M141,65.2c-0.5,0.7-1.2,1.1-2.3,1.1
					c-0.7,0-1.4-0.2-1.7-0.7c-0.4-0.5-0.6-1.1-0.6-2v-4.7h0.8v4.6c0,1.4,0.6,2,1.7,2c1.1,0,1.9-0.5,2.2-1.4v-5.2h0.8v7.2H141
					C141,66.1,141,65.2,141,65.2z M149.7,62.6c0,1.1-0.2,2-0.7,2.7c-0.5,0.7-1.2,1-2,1c-1,0-1.7-0.3-2.3-1v3.6h-0.8v-10h0.8v1
					c0.5-0.8,1.3-1.1,2.3-1.1c0.9,0,1.5,0.3,2,1c0.5,0.7,0.7,1.6,0.7,2.7V62.6z M148.9,62.4c0-0.9-0.2-1.6-0.5-2.2
					c-0.4-0.5-0.9-0.8-1.6-0.8c-0.5,0-0.9,0.1-1.3,0.3c-0.3,0.2-0.6,0.6-0.8,1v3.5c0.2,0.4,0.5,0.7,0.8,0.9c0.3,0.2,0.8,0.3,1.2,0.3
					c0.7,0,1.2-0.3,1.6-0.8C148.7,64.2,148.9,63.5,148.9,62.4z"/>
			</g>
		</g>
	</g>
</g>
</svg>
