<?xml version="1.0" encoding="utf-8"?>
<!-- Generator: Adobe Illustrator 27.2.0, SVG Export Plug-In . SVG Version: 6.00 Build 0)  -->
<svg version="1.1" id="Layer_1" xmlns:xodm="http://www.corel.com/coreldraw/odm/2003"
	 xmlns="http://www.w3.org/2000/svg" xmlns:xlink="http://www.w3.org/1999/xlink" x="0px" y="0px" viewBox="0 0 500 50"
	 style="enable-background:new 0 0 500 50;" xml:space="preserve">
<style type="text/css">
	.st0{fill-rule:evenodd;clip-rule:evenodd;fill:#FCC300;}
</style>
<path class="st0" d="M7.4,46.4c-0.4,0-1,0.2-0.5,0.3C7.4,46.6,7.1,46.5,7.4,46.4z M417.7,9.1H416V6.6h-1v2.5h-1.4v0.8h1.4l0.1,6.4
	c0.3,1.1,1.7,1,2.5,0.9v-0.9c-1.5,0.2-1.7-0.1-1.7-1.3V9.9h1.7L417.7,9.1L417.7,9.1z M421.8,9.1h-0.9v8h1v-4.6
	c0-3.4,4.1-3.9,4.1-0.8v5.4h1v-4.9c0-3.1,4.1-3.3,4.1-0.5v5.5h1v-5.7c0-3.1-4-3.3-5.3-1c-0.5-1.8-3.4-2.4-5,0.1
	C421.8,10.5,421.8,9.1,421.8,9.1z M402.8,17.9c7.2,0,7,12.9-0.1,12.9C395.7,30.8,395.7,17.9,402.8,17.9z M93.1,10.5H79v22.2h2.1
	V22.1h10.7v-1.8H81.1v-8h12.1C93.1,12.3,93.1,10.5,93.1,10.5z M105.3,16.4c-3.2,0.1-4.8,1.2-6.1,4.1v-3.8h-1.8v16.1h1.9
	c0-2.7-0.2-8.4,0.4-10.5c0.6-2.3,2.7-3.8,5.1-3.8c0.1,0,0.3,0,0.5,0C105.3,18.4,105.3,16.4,105.3,16.4z M115,16.2
	c-4.7,0-7.7,3.3-7.7,8.5c0,5.2,3,8.5,7.7,8.5c4.7,0,7.6-3.2,7.6-8.4C122.5,19.5,119.6,16.2,115,16.2z M115,17.9
	c7.5,0,7.6,13.7,0.1,13.7C107.3,31.6,107.4,17.9,115,17.9z M129.1,16.7h-1.8v16.1h2v-9.1c0-3.1,1.4-5.6,4.7-5.6c2.6,0,3.5,1.5,3.5,4
	v10.8h1.9v-9.8c0-2.9,1.6-4.9,4.5-4.9c2.4,0,3.7,1.3,3.7,3.8v10.9h2V21.3c0-6.1-8-6.6-10.5-1.9c-1.1-3.6-6.8-4.9-9.9,0.1L129.1,16.7
	L129.1,16.7z M163.9,10.4h-2v3.2h2V10.4z M163.9,16.7h-2v16.1h2V16.7z M183.6,10.5h-1.9v9.2c-2.4-5.5-12.9-5-12.9,5
	c0,10.2,10.8,10.5,13,4.9v3.2h1.8C183.6,32.7,183.6,10.5,183.6,10.5z M176.2,17.8c3.9,0,5.6,3.4,5.6,6.9c0,4.3-2.1,6.9-5.5,6.9
	C168.9,31.6,168.8,17.8,176.2,17.8z M202.5,27.4h-1.9c-0.6,2.8-2.3,4.2-4.9,4.2c-3.9,0-5.4-3.1-5.4-6.5h12.4c0-4.7-2-8.9-7.1-8.9
	c-9.6,0-10.1,17,0,17C199.4,33.3,201.8,31,202.5,27.4z M200.7,23.6h-10.4c0.4-3,1.8-5.7,5.3-5.7C198.5,17.9,200.5,20,200.7,23.6
	L200.7,23.6z M221.2,31.1c-1.8,0.5-1.8-0.5-1.8-1.5v-8.7c0-3-2.3-4.6-5.9-4.6c-4,0-6.3,2-6.5,5.4h1.9c0.2-2.6,1.7-3.8,4.4-3.8
	c5.3,0,4.5,4.4,3.6,5c-2.1,1.4-10.7-0.5-10.7,5.8c0,5.5,8.3,6.1,11.3,1.3c0,2.6,1.2,3.5,3.7,2.7V31.1z M217.4,24v2.6
	c0,5.8-9.2,6.6-9.2,1.9C208.3,24.1,215.9,25.7,217.4,24z M238.4,16.7h-3.3v-4.9h-1.9v4.9h-2.8v1.6h2.8c0,2.1-0.1,11.4,0.2,12.7
	c0.5,2.1,3.3,1.9,5.1,1.7V31c-3,0.3-3.3-0.2-3.3-2.6V18.3h3.3L238.4,16.7L238.4,16.7z M249.8,16.2c-4.7,0-7.7,3.3-7.7,8.5
	c0,5.2,3,8.5,7.7,8.5c4.7,0,7.6-3.2,7.6-8.4C257.4,19.5,254.4,16.2,249.8,16.2z M249.8,17.9c7.5,0,7.6,13.7,0.1,13.7
	C242.1,31.6,242.3,17.9,249.8,17.9z M270.9,10.5H269v22.2h1.8v-3.1c2.2,5.6,13,5.3,13-4.9c0-10.1-10.5-10.5-12.9-5
	C270.9,19.7,270.9,10.5,270.9,10.5z M276.4,17.8c7.4,0,7.3,13.8,0,13.8C269,31.6,268.9,17.8,276.4,17.8z M302,27.4h-1.9
	c-0.6,2.8-2.3,4.2-4.9,4.2c-3.9,0-5.4-3.1-5.4-6.5h12.4c0-4.7-2-8.9-7.1-8.9c-9.6,0-10.1,17,0,17C299,33.3,301.4,31,302,27.4
	L302,27.4z M300.2,23.6h-10.4c0.4-3,1.8-5.7,5.3-5.7C298.1,17.9,300,20,300.2,23.6z M320.2,16.7h-1.8v3c-2.8-5.9-12.6-4.4-12.6,4.9
	c0,9.1,9.8,10.3,12.5,4.4c0,4.1,0.5,8.5-5.3,8.5c-2.8,0-4.3-1.1-4.7-3.3h-2c0.2,3.1,2.6,4.8,6.5,4.8c4.6,0,7.2-2.3,7.2-7.2V16.7z
	 M313.1,17.9c7.2,0,7,12.9-0.1,12.9C306,30.8,306,17.9,313.1,17.9z M327.7,10.4h-2v3.2h2V10.4z M327.7,16.7h-2v16.1h2
	C327.7,32.7,327.7,16.7,327.7,16.7z M335.1,16.7h-1.8v16.1h2V24c0-4.2,2.1-6.1,5.1-6.1c2.4,0,4.1,1.2,4.1,4.5v10.3h2V21.8
	c0-3.9-2.4-5.6-5.6-5.6c-2.8,0-4.4,1.2-5.7,3.5L335.1,16.7L335.1,16.7z M353.6,16.7h-1.8v16.1h2V24c0-4.2,2.1-6.1,5.1-6.1
	c2.4,0,4.1,1.2,4.1,4.5v10.3h2V21.8c0-3.9-2.4-5.6-5.6-5.6c-2.8,0-4.4,1.2-5.7,3.5C353.6,19.7,353.6,16.7,353.6,16.7z M372.3,10.4
	h-2v3.2h2V10.4z M372.3,16.7h-2v16.1h2C372.3,32.7,372.3,16.7,372.3,16.7z M379.6,16.7h-1.8v16.1h2V24c0-4.2,2.1-6.1,5.1-6.1
	c2.4,0,4.1,1.2,4.1,4.5v10.3h2V21.8c0-3.9-2.4-5.6-5.6-5.6c-2.8,0-4.4,1.2-5.7,3.5L379.6,16.7L379.6,16.7z M55.8,49.5
	c0.5,0.3,1.3,0.1,1.8-0.1C56.8,49.2,56.5,49.5,55.8,49.5z M60.3,49.2c-0.8-0.1-1.6-0.1-2.3,0.1C58.8,49.3,59.6,49.4,60.3,49.2z
	 M60.3,49.2C60.8,49.3,60.7,49.1,60.3,49.2z M41.4,49.9c3.7,0.1,7.2-0.7,10.9-0.8c0.3-0.1,0.3-0.1,0.8-0.2c1.5,0,4,0,4.7-0.4
	c0.5-0.1,1.1,0.1,1.6-0.1c-0.9-0.1-2.3-0.1-2.7,0.1c-0.9,0.1-2.1-0.1-2.7,0.3c-0.3,0-0.4-0.1-0.3-0.1c-1.5,0.1-3.1,0.3-4.9,0.5
	c-0.2,0-0.6,0-0.8,0c-0.9,0.1-1.9,0.3-2.8,0.3C44.3,49.4,41.4,49.6,41.4,49.9z M56.9,46.7c-0.3,0-0.6-0.1-0.8,0
	c0.2,0,0.2,0.1,0.1,0.1C56.5,46.9,56.7,46.7,56.9,46.7z M59,46.6c-0.5-0.2-0.9-0.1-1.2,0C58.2,46.7,58.6,46.8,59,46.6z M67.4,48.7
	c-1.9,0-4.8,0.1-6,0.5c1,0,2,0,2.9-0.3C65.3,48.9,66.9,49,67.4,48.7z M65.2,47.6l-0.7,0C64.7,47.6,65,47.6,65.2,47.6z M70.6,48.5
	l-2.2,0.2C69.1,48.7,69.9,48.7,70.6,48.5z M62.8,45.6c-0.4,0-0.8,0-1.1,0.1C62.1,45.8,62.8,45.7,62.8,45.6z M70.6,48.5
	c0.4,0.2,1.3,0,1.8,0.2c0.3-0.1,0.5-0.1,0.6-0.3C71.9,48.2,72,48.4,70.6,48.5z M68.6,47.1C68.9,47,68.1,47.2,68.6,47.1z M73.2,48.3
	C73.3,48.3,73.1,48.3,73.2,48.3z M74.9,48.5C75,48.5,74.8,48.5,74.9,48.5z M76.5,48.2c-0.5-0.1-1,0-1.5,0.1c0.5,0.1,0.8-0.1,1.4,0.1
	C76.7,48.3,76.3,48.2,76.5,48.2z M67.4,45.3c-0.3-0.1-0.6-0.1-1-0.2c-0.9,0.4-2,0.2-3,0.5C64.7,45.5,66.6,45.8,67.4,45.3z
	 M68.7,45.3c-0.9-0.4-0.9,0.1-0.9,0.1C68.1,45.4,68.4,45.4,68.7,45.3z M69.7,45.6C70,45.4,69.2,45.6,69.7,45.6z M76.4,47.4
	c-0.4,0-1-0.3-1.4-0.3c-0.6,0,0.2,0.2-0.4,0.3c-0.4,0-0.7-0.2-0.8-0.2c-1.4-0.1-2.6,0.3-4.2-0.2c-0.9,0.1,0.3,0.3,0.2,0.5
	c-0.6,0-1.2,0.2-1.8,0.1c-0.1-0.1,0.2-0.1-0.3-0.2c-0.6,0.2-1.2,0.3-2.2,0.1c-0.5,0.3-2.3,0.1-2.8,0.6c-1.2-0.1-2.7-0.1-3.4,0.3
	c2.2,0.1,4.1-0.3,6.2-0.3c0.4-0.1-0.1-0.1,0.2-0.2c0.1,0.1,1,0,0.8,0.2c0.5,0,0-0.2,0.5-0.3c0.4,0,0.9,0.2,1.3,0.3
	c0.5-0.1-0.1-0.2,0.1-0.2c0.2-0.1,0.5-0.1,0.8-0.1c1.1,0.5,1.9-0.2,3.2,0.1C73.8,47.5,75.2,47.6,76.4,47.4L76.4,47.4z M78.8,48.1
	l-1.5,0C77.9,48.1,78.4,48.3,78.8,48.1z M65.2,43.9c-0.3,0-0.6,0-0.9,0.1C64.6,44.1,64.9,44,65.2,43.9z M66.3,43.9
	C65.7,43.8,65.9,44.1,66.3,43.9z M76.3,46.8c-0.3-0.1-0.5-0.1-0.7,0C75.9,46.9,76.4,46.9,76.3,46.8z M79.3,47.1
	c-0.9-0.1-2.5-0.2-2.6,0.2c0.5,0,0.8-0.3,1.3-0.2c0.2,0.1-0.1,0.2,0.3,0.3C78.7,47.2,79.4,47.3,79.3,47.1z M78.2,46.6
	C78.4,46.4,77.7,46.6,78.2,46.6z M78.4,46.6C78.6,46.5,77.9,46.7,78.4,46.6z M79.6,46.8L79.6,46.8z M71.2,44.1
	c-0.3-0.1-0.9,0-0.9,0.1C70.6,44.3,70.9,44.2,71.2,44.1z M83.7,47.8C83.2,47.6,82.3,48.1,83.7,47.8z M81.7,46.9
	c-0.7-0.2-1.8,0.2-1.9,0.4C80.5,47.1,81.2,47.1,81.7,46.9z M82.2,46.9c-0.4-0.1-0.5,0.2-0.1,0.2C82.6,47,81.9,46.9,82.2,46.9z
	 M84.5,47.6c-0.7-0.1-1,0.1-0.5,0.3c0.2-0.1,0.5,0,0.7-0.1C84.5,47.7,84.5,47.6,84.5,47.6z M71.8,43.7c-1.8-0.1-4-0.1-5.2,0.3
	C68.3,44,70.5,44.1,71.8,43.7z M73.3,44c-0.3-0.1-0.6,0-0.6,0C72.9,44.1,73.1,44.1,73.3,44z M86.2,47.8C85,47.4,85.8,48,86.2,47.8z
	 M83.2,46.8c-0.2,0-0.4,0-0.6,0C82.8,46.9,83,46.9,83.2,46.8z M85.5,46.9c-0.4,0-0.8-0.2-1.2-0.1c-0.4,0.1-0.2,0.3-0.6,0.4
	c0.5,0,0.5-0.3,1.4,0C85.6,47,85.5,46.9,85.5,46.9z M85.7,46.8c0.7,0,1.1,0.2,1.6,0.1C87.1,46.8,86.2,46.7,85.7,46.8z M85.5,46
	L85.5,46z M85.4,45.6c-0.4-0.1-0.9,0.1-0.3,0.2C85.3,45.7,85.4,45.6,85.4,45.6z M86.9,45.9C86.1,45.9,86.7,46.2,86.9,45.9z
	 M89.3,46.6c-0.4,0-0.8,0.1-1.2,0.1C87.8,46.9,89.3,46.9,89.3,46.6z M89.6,46.3c-0.1,0-0.2,0.1-0.4,0.1c0.2,0,0.4,0,0.6,0.1
	C90,46.4,89.8,46.4,89.6,46.3z M90.7,46.6C90.5,46.6,90.5,46.6,90.7,46.6z M87.5,45.5c-0.2-0.1-0.4,0-0.6-0.1
	C86.7,45.5,87.4,45.5,87.5,45.5z M87.5,45.5c0.2,0,0.3,0.1,0.4,0L87.5,45.5z M89.4,45.8C89.7,45.7,88.9,46,89.4,45.8z M90.7,46.6
	c0.2,0,0.4-0.1,0.6,0.1c0.3-0.1,0.5-0.2,0-0.3C90.9,46.3,90.9,46.5,90.7,46.6z M94.8,47.3c-0.9-0.2-6.4-0.1-7,0.2
	c-0.1,0-0.6,0-0.4-0.1c-0.5,0-0.9,0.2-0.8,0.3c0.6,0.1,1.7,0.1,1.9-0.2c0.4,0,0.8,0,1.3,0.1c1-0.4,2.2-0.2,3.3-0.1
	C93.5,47.3,94.7,47.7,94.8,47.3z M88.6,45.5L88.6,45.5z M93,46.4c-0.4-0.1-0.7,0.2-0.5,0.4C93,46.6,93.3,46.5,93,46.4z M92.1,45.8
	c-0.3,0-0.9-0.1-0.8,0C91.6,46,91.9,45.9,92.1,45.8z M97.6,47.3l-0.8-0.2c-0.6-0.1-1,0.3-1.7,0c-0.1,0-0.2,0.1-0.4,0.1
	c0,0.1,0.4,0.1,0.7,0.1c0.3,0.1-0.4,0.1-0.5,0.1C95.8,47.3,96.5,47.4,97.6,47.3z M92.7,45.8C92.9,45.7,92.1,45.9,92.7,45.8z
	 M95.1,46.3c-0.6,0-1.2-0.1-1.8,0c0.9,0.1,0.5,0.2,0.9,0.4C94.2,46.6,95.6,46.7,95.1,46.3z M98.7,47.1c-0.2,0-0.4,0-0.7-0.1
	C97.9,47.1,98.9,47.3,98.7,47.1z M98.9,47.1c-0.1,0-0.2,0-0.2,0C98.8,47.1,98.8,47.1,98.9,47.1z M98.9,47.1c0.2,0.2,0.9,0.3,1.4,0.2
	C100.2,47.1,99.3,47.1,98.9,47.1z M95.9,45.7c-0.3,0-0.2,0-0.3,0.1C95.9,45.8,95.8,45.7,95.9,45.7z M98.1,46.3c-0.3,0-0.4,0-0.4,0
	C97.9,46.4,98,46.4,98.1,46.3z M95.6,45.6c0.1-0.1-0.6-0.1-0.8,0C95.2,45.8,95.3,45.5,95.6,45.6z M99.9,46.6c-0.4-0.1-0.7,0-1.1,0.1
	C99.2,46.8,99.6,46.7,99.9,46.6z M100.9,46.9c0,0.1-0.3,0.1,0.1,0.2C100.9,47,101.3,46.9,100.9,46.9z M97.5,45.5
	C96.7,45.4,96.7,45.8,97.5,45.5z M102.6,47c-0.4-0.2-0.9,0.1-0.4,0.2C102.6,47.1,102.3,47,102.6,47z M97.9,45.5
	C98,45.5,97.7,45.5,97.9,45.5z M98.1,46.3c0.6,0.2,0.5-0.2,1.1-0.2c0.1,0.1,0.1,0.1-0.1,0.1c0.7,0.1,1.1-0.1,0.9-0.3
	c-1.5,0.2-3.2-0.2-4.7,0.1c0.3,0.1,0.6,0.3,0.8,0.4c0.3-0.1,0.9-0.2,0.6-0.3C97,46.2,99.1,46,98.1,46.3z M101.8,46.5
	c-0.1,0-0.2,0-0.2,0c-0.4,0-0.2-0.1-0.5-0.1C100.2,46.6,101.9,46.9,101.8,46.5z M104,47c-0.3,0-0.8,0-1,0.2c0.2,0,0.8-0.1,0.6,0
	c0.2,0,0.3,0,0.5-0.1C104,47.1,103.9,47,104,47z M100.9,46c-0.3-0.1-0.5,0.1-0.1,0.2C101.1,46.1,100.7,46,100.9,46z M99.9,45.5
	c0-0.1-0.9-0.2-1.1-0.1c0.2,0,0.4,0.1,0.7,0.1C99.6,45.6,99.7,45.5,99.9,45.5z M105.3,47c-0.2,0-0.4,0-0.6,0
	C105,47.2,105.4,47.1,105.3,47z M101.4,45.4c-0.2-0.1-0.4,0-0.6,0C101,45.4,101.2,45.4,101.4,45.4z M102.1,45.3
	c-0.2,0.1,0.4,0.2,0.6,0.2C102.9,45.4,102.5,45.2,102.1,45.3z M104.1,45.3l-0.5,0C103.8,45.3,104,45.3,104.1,45.3z M105.1,45.3
	C105.3,45.3,105,45.3,105.1,45.3z M107,45.2c-0.4-0.1-0.9,0-0.9,0.1C106.4,45.3,106.7,45.4,107,45.2z M108,45.2
	c-0.3-0.1-0.5-0.1-0.7,0C107.5,45.3,107.8,45.3,108,45.2z M98.9,42.4C99.4,42.3,98.6,42.3,98.9,42.4z M111,45.1
	c-0.3-0.1-0.5,0-0.8,0C110.5,45.3,110.8,45.2,111,45.1z M111,45.1c0.2,0,0.4,0,0.5,0C111.3,45,111.2,45,111,45.1z M113,45
	C113.1,45,112.9,45,113,45z M109.8,42C110,42,109.7,42,109.8,42z M121.8,44.6c-0.3-0.1-0.4,0-0.6,0
	C121.4,44.7,121.6,44.7,121.8,44.6z M123.2,44.4c-0.4-0.1-0.3,0.1-0.4,0.2C123.2,44.7,123.2,44.5,123.2,44.4z M124,44.1
	c-0.4,0,0,0.1-0.1,0.2c0.5,0.2,0.9,0.1,1.3,0.2C125,44.3,124.2,44.3,124,44.1z M132.2,44.3c0.1,0-0.1-0.1-0.1-0.1
	C132,44.2,132.2,44.2,132.2,44.3z M133.2,44.1L133.2,44.1z M152.3,47.5L152.3,47.5z M132,41.2C131.1,40.9,130.9,41.6,132,41.2z
	 M149.7,46.3C149.9,46.1,149.2,46.4,149.7,46.3z M134,41c-0.5,0-1,0-1.4,0.1c0,0.1,0.5,0.1,0.8,0.2C134,41.2,133.6,41.1,134,41z
	 M156.6,47.4c-0.6-0.1-2-0.2-2.9,0C154.7,47.5,155.7,47.5,156.6,47.4z M156.6,47.4c0.3,0,0.5,0,0.8-0.1
	C157.1,47.2,156.9,47.4,156.6,47.4z M158.9,47.3l-1.2,0C158.1,47.5,158.5,47.4,158.9,47.3z M166.9,49.6
	C167.1,49.4,166.4,49.6,166.9,49.6z M168.1,49.5C168.3,49.4,167.5,49.8,168.1,49.5z M158.9,47.3c1.2,0.2,2.3,0.1,3.4-0.1
	C161,47.2,159.9,47.2,158.9,47.3z M169.6,49.5L169.6,49.5z M173,49.5C173.2,49.3,172.5,49.5,173,49.5z M170.4,48.4
	c-0.1,0-0.3,0.1-0.4,0.1c0.3,0.1,0.5,0.1,0.7,0C170.7,48.5,170.6,48.4,170.4,48.4L170.4,48.4z M169.8,48.1c-0.8,0-0.6,0.5-1.7,0.5
	c-0.3-0.3-1-0.1-1.6-0.3c-0.2,0.1-0.5,0.1-0.8,0c0.1,0.1,0.7,0.3,1.1,0.3c-0.2,0.1-0.4,0.1-0.7,0.2c0.6,0.1,1,0,1.5-0.2
	c0.3-0.1,0.9,0.3,2-0.3c-0.2-0.1-0.1-0.1-0.4-0.2C169.6,48.3,169.8,48.2,169.8,48.1L169.8,48.1z M173.7,48.9
	C173.6,48.9,173.8,48.9,173.7,48.9z M175.8,49.4C176.2,49.3,175.4,49.6,175.8,49.4z M174.3,48.9C174.2,48.8,174.3,49.1,174.3,48.9z
	 M169,47.1l-6.6,0.2c2.1,0.1,4.2,0,6.3-0.1C169,47.2,168.8,47.2,169,47.1L169,47.1z M173.7,48.9c0.2-0.1,0.3-0.2,0.5-0.3
	c-1.5-0.2-2.1,0-3.5,0c0.7,0.5,1.9,0,2.7,0c0.2,0.1-0.2,0.1-0.4,0.3C173.3,48.9,173.5,48.8,173.7,48.9z M169,47.1
	c0,0.1,0.6,0.1,0.8,0C169.5,47,169.3,47.1,169,47.1z M175.6,48.8c0.1,0-0.1-0.1-0.1-0.1C175.4,48.7,175.5,48.7,175.6,48.8z
	 M170.7,47.2C169.9,47,169.8,47.4,170.7,47.2z M178.3,49.4C178.5,49.2,177.8,49.4,178.3,49.4z M174.3,48c-0.3,0-0.5-0.1-0.7,0
	C173.9,48.1,174.1,48.1,174.3,48z M175.5,48.4c0.1,0,0.2,0.1,0.1,0.1c0.2,0.1,0.3-0.1,0.5,0C176.3,48.4,175.6,48.3,175.5,48.4z
	 M177,48.7L177,48.7z M179.8,49.4c-0.4,0-0.7,0-1,0C179.2,49.6,179.5,49.4,179.8,49.4z M175,48.2C174.9,48.2,175.1,48.2,175,48.2z
	 M174.3,48c0.2,0.1,0.3,0.1,0.3,0.2c-0.2,0.1-0.4,0-0.6,0.1c0.4,0.1,1.2,0,0.8,0.2c0.2,0.1,0.4-0.1,0.6-0.1
	c-0.2-0.1-0.1-0.2,0.1-0.2C175.2,48,174.8,47.9,174.3,48z M177.3,48.4c-0.3,0-1,0-1,0.1C176.3,48.5,177.4,48.7,177.3,48.4z
	 M180.8,49.3C181.1,49.2,180.3,49.5,180.8,49.3z M182.1,49.3C182.4,49.1,181.6,49.4,182.1,49.3z M180.8,48.4
	C180.5,48.2,180,48.7,180.8,48.4z M183.9,49.3C183.5,49,183,49.5,183.9,49.3z M181.6,48.3c-0.2-0.1-0.4,0.1-0.6,0.1
	C181.5,48.5,181.6,48.4,181.6,48.3z M185.6,49.3C185,49.1,185.1,49.5,185.6,49.3z M174.8,46C174.9,46,174.6,46,174.8,46z M182,48.1
	C182,48.1,181.8,48.1,182,48.1z M179.3,47c-0.2-0.1-0.3,0-0.6-0.1c-2.1,0.2-4.4-0.1-6.5,0c0.3,0.2-0.9,0.1-1.4,0.2L179.3,47z
	 M187.1,49.2c-0.5,0-0.9-0.1-1.3,0C186.3,49.2,186.8,49.4,187.1,49.2z M183.6,47.9c-0.6,0.2,0.1,0.4-0.9,0.5c0.4,0.1,0.7,0,1.1,0.2
	C184.5,48.3,183.6,48.1,183.6,47.9L183.6,47.9z M185.1,48.3c-0.2-0.1-0.5-0.1-0.6,0L185.1,48.3z M181.6,47c-0.3-0.1-0.6,0-0.6,0.1
	C181.3,47.2,181.6,47,181.6,47z M189.3,49.3c0,0-0.1-0.2-0.6-0.1C188.9,49.3,189,49.1,189.3,49.3z M187.3,48
	c-0.5-0.1-0.9,0.1-1.3,0.1c-0.3-0.1-0.7-0.2-1-0.2l-0.1,0.2c0.3,0,1.1,0.2,1.7,0.2C186.8,48.1,187.2,48.1,187.3,48z M193.7,49.6
	l-0.5,0C193.4,49.7,193.5,49.6,193.7,49.6z M188.5,48c-0.6,0.1-1,0.1-1,0.3c0.3,0.1,0.5-0.1,0.7,0c0.3,0.1-0.3,0.1-0.3,0.2
	c0.3,0,0.5-0.1,0.8,0.1c0.2-0.1,0.5-0.1,0.8-0.1C189.9,48.3,188.7,48.2,188.5,48L188.5,48z M186.2,46.9c-1.3,0-2.6-0.1-3.9,0.1
	C183.7,47,185.2,47.1,186.2,46.9z M190.7,48.2c-0.3-0.1-0.5,0-0.5,0.1C190.4,48.3,190.5,48.3,190.7,48.2z M190,47.8
	c-0.2,0-0.4,0-0.6,0C189.6,47.9,189.8,47.9,190,47.8z M191.9,48.2c-0.2-0.1-0.4,0-0.6,0C191.5,48.3,191.7,48.3,191.9,48.2z
	 M195.2,49.2c0.2-0.1-0.5-0.2-0.7-0.1C194.8,49.1,195,49.1,195.2,49.2z M191,47.8c-0.3-0.1-0.8-0.1-0.8,0
	C190.5,47.9,190.8,48,191,47.8z M188.1,46.9C188.4,46.8,187.6,47.1,188.1,46.9z M193.5,48.3C193.7,48.1,193,48.3,193.5,48.3z
	 M194.7,48.2l-1,0C194,48.3,194.4,48.3,194.7,48.2z M194.8,48.3C194.9,48.3,194.7,48.3,194.8,48.3z M197.6,49.1
	c-0.2-0.1-0.4,0-0.6,0C197.2,49.2,197.4,49.1,197.6,49.1z M195.2,48.3C195.5,48.2,194.7,48.4,195.2,48.3z M198.3,49.1
	C198.4,49.1,198.2,49.1,198.3,49.1z M191.6,46.9c-1.1-0.1-2.3-0.1-3.4,0C189.3,47,190.5,47,191.6,46.9z M195.7,48.2
	C195.5,48.1,195.5,48.2,195.7,48.2z M198.8,49.1C198.9,49.1,198.6,49.1,198.8,49.1z M191.8,46.9c-0.1,0-0.2,0-0.2,0
	C191.6,47,191.7,47,191.8,46.9z M194.6,47.8L194.6,47.8z M195.4,48C195.6,47.8,194.9,48,195.4,48z M191.8,46.9c0.2,0,0.3,0,0.5,0
	C192.1,46.9,191.9,46.9,191.8,46.9z M195.7,48.2c0.5,0.1,0.1,0.2,0.5,0.3c0.7,0,0.2-0.2,0.6-0.3C196.4,48.1,196,48.1,195.7,48.2
	L195.7,48.2z M192.9,46.9C192.5,46.6,192.1,47.1,192.9,46.9z M193.6,46.9L193.6,46.9z M201.7,49c-0.3-0.1-0.4,0-0.6,0
	C201.3,49.1,201.5,49.1,201.7,49z M194.8,46.9L194.8,46.9z M200.2,47.7C200.3,47.7,200.1,47.7,200.2,47.7z M202.5,48.3
	c-0.2-0.1-0.3,0-0.5,0L202.5,48.3z M198.4,46.8C198.5,46.7,197.8,46.9,198.4,46.8z M201.5,46.8C201.1,46.7,201.2,47,201.5,46.8z
	 M201.5,46.8c0.3,0.1,0.5,0.1,0.7,0C202,46.7,201.8,46.8,201.5,46.8z M209.8,48.9C210.1,48.7,209.4,49,209.8,48.9z M205.5,46.7
	C204.7,46.6,205.3,47,205.5,46.7z M205.8,46.8C205.9,46.8,205.7,46.8,205.8,46.8z M213,48.8c-0.2-0.1-0.4-0.1-0.6,0
	C212.6,48.8,212.8,48.9,213,48.8z M210,47.4C209.2,47.3,209.9,47.7,210,47.4z M208.8,46.8L208.8,46.8z M211.5,47.4
	c-0.2,0-0.4,0-0.5,0C211.1,47.5,211.3,47.4,211.5,47.4C211.5,47.5,211.4,47.4,211.5,47.4L211.5,47.4z M207.6,48L207.6,48
	c-1,0.3-1.6-0.2-2.6,0c-0.4-0.1-0.1-0.2-0.1-0.2l-0.8-0.1c-1.2,0.4-2.4-0.2-3.5,0.1c0.7,0.1-0.2,0.2,0,0.4c0.3-0.1,0.6-0.2,0.9-0.3
	c0.6,0,1.4,0.2,1.5,0.4c0.4,0,0.7,0.1,0.8-0.1c0.4,0,0.9,0.2,1.1,0.3c0.8-0.5,3.7,0.2,3.5-0.5c0.7-0.1,0.6,0.2,1,0.2
	c0.5,0,0.9,0,1.3,0c0.3-0.6,1.7,0,1.8,0c0.2-0.1,0.5-0.1,0.7-0.2c-0.7-0.2-0.7-0.4-1.5-0.4c-0.8,0.7-2.6,0-3.8,0.4
	C207.9,47.9,207.1,47.8,207.6,48z M211.9,47.4C212.2,47.3,211.4,47.6,211.9,47.4z M216.4,48.8C216.5,48.8,216.3,48.8,216.4,48.8z
	 M214.7,47.8C214.5,47.6,214.6,48,214.7,47.8z M213.7,47.5C214.4,47.5,213.9,47.2,213.7,47.5z M213.8,47.2c-0.3,0-1,0.1-0.4,0.2
	C213.7,47.4,213.6,47.3,213.8,47.2z M208.8,45.6c-0.2-0.1-0.3,0-0.4,0c0.1,0,0.1,0,0,0.1C208.6,45.6,208.7,45.6,208.8,45.6
	L208.8,45.6z M219.2,48.6c-0.3,0-0.5,0-0.5,0.1C218.9,48.7,219,48.7,219.2,48.6z M219.7,48.7C219.8,48.7,219.6,48.7,219.7,48.7z
	 M218.5,47.5C218.6,47.5,218.3,47.5,218.5,47.5z M224.1,48.5C224.4,48.4,223.6,48.6,224.1,48.5z M219.6,46.8c0-0.1-0.8-0.1-1,0
	C218.9,46.8,219.2,46.8,219.6,46.8z M221.3,47.2c-0.2,0-0.9,0-0.9-0.1c-0.3-0.1-0.5,0.1-0.8,0.2c0.3,0.1,0.5,0,0.7,0
	c0.1,0.2,1.8,1-1.8,0.3c0,0.2-0.8,0-1.2,0.1c-0.3-0.2,0.5-0.3,0.6-0.4c-0.9,0-0.6,0.4-1.6,0.4c0.2,0,0.3,0,0.5,0
	c-0.2,0.1-0.4,0.1-0.6,0.2c0.6,0.1,0.8,0.1,1,0.3c1.4-0.3,2.4-0.1,3.8-0.2c0.2-0.2,0.2-0.2,0.7-0.3C221.2,47.5,221,47.4,221.3,47.2
	L221.3,47.2z M216.1,45.6C216.3,45.5,215.6,45.9,216.1,45.6z M220.7,46.7C220.7,46.7,220.5,46.7,220.7,46.7z M222,46.7
	c-0.3-0.1-0.5-0.1-0.7,0C221.5,46.8,221.8,46.8,222,46.7z M222.2,46.7C222.3,46.7,222.1,46.7,222.2,46.7z M219.4,45.6
	C219.3,45.6,219.2,45.6,219.4,45.6c-0.7,0-1.4-0.1-2.1-0.1c0.3,0.3,1.1,0,1.7,0.2C219,45.7,219.1,45.7,219.4,45.6z M228.9,48.4
	C229.1,48.2,228.4,48.5,228.9,48.4z M219.4,45.6c0.3,0.1,0.4-0.1,0.7,0C220.2,45.5,219.5,45.5,219.4,45.6z M226.8,47.5
	c-0.7-0.1-0.9,0-1.6,0.1c0.3,0.1,0.2,0.1,0.4,0.2c-0.9,0.1-1.5-0.3-2.5-0.3c0.2-0.1-0.4-0.5-1-0.3c0.4,0.1,0.4,0.2,0.7,0.4
	c-0.3,0.1-0.9,0.1-0.8,0.2c0.5,0.1,0.9,0,1.5,0.1c0.6-0.2,1.2-0.2,1.9,0C226.1,47.8,226.5,47.7,226.8,47.5z M230,48.3
	c-0.3,0-0.8,0-0.8,0.1C229.5,48.4,230,48.4,230,48.3z M225,46.7c-0.5,0-1.1-0.1-1.5,0C223.9,46.7,224.5,46.9,225,46.7z M227.3,47.4
	C227.6,47.2,226.8,47.4,227.3,47.4z M230.8,48.4C230.9,48.2,230.4,48.4,230.8,48.4z M225,46.7c0.3,0,0.6,0.1,0.8,0
	C225.5,46.6,225.2,46.7,225,46.7z M235.4,49.6C235.7,49.4,234.9,49.6,235.4,49.6z M226.8,46.7c-0.3-0.1-0.5-0.1-0.7,0
	C226.4,46.8,226.6,46.8,226.8,46.7z M228.1,47.1c-1.2,0-2.5-0.1-3.7,0C225.8,47.4,227,47.2,228.1,47.1z M228.4,47.2
	c0.1,0-0.1-0.1-0.1-0.1C228.2,47.1,228.3,47.2,228.4,47.2z M232.4,48.3c-0.3-0.1-0.5-0.1-0.7,0C231.9,48.3,232.1,48.4,232.4,48.3z
	 M227.4,46.7c-0.3-0.1-0.5,0-0.7,0.1C227,46.8,227.2,46.8,227.4,46.7z M234.5,48.2C234.5,48.2,234.6,48.2,234.5,48.2
	C234.1,48,234.5,48.5,234.5,48.2z M236.2,48.2C236.3,48.2,236.1,48.2,236.2,48.2z M236.9,48.2c-0.2,0-0.4,0-0.5,0L236.9,48.2z
	 M234.6,47.3c-0.7-0.2-1.7,0.3-2.1,0.3C233.3,47.6,234.5,47.5,234.6,47.3z M232.9,46.7c-1.5,0.1-3.1,0-4.6,0c0.1,0.2,1,0.1,1.4,0.2
	c0,0.1,0.1,0.2-0.1,0.2c0.4,0,0.2,0.1,0.6,0.1c-0.6,0.3-1.7,0-2.7,0.2c0.6,0.4,1.2,0,2,0.3c0.3-0.1,0.5-0.2,0.8,0
	c0.4-0.2,2.2,0.1,1.5-0.3c-2.2,0.3-1.2-0.8,0.4-0.4C232.4,46.8,232.9,46.8,232.9,46.7z M239.3,48.1c-0.3-0.2-0.4,0.1-0.7,0
	C238.5,48.2,239.2,48.2,239.3,48.1z M240.8,47.6C240.9,47.6,240.7,47.6,240.8,47.6z M240.4,47.3c-1.1-0.4-3,0.1-5.3,0
	c0.2,0.1,0.5,0.2,0.7,0.3C237.3,47.5,239,47.7,240.4,47.3z M241.1,47.5C241.2,47.5,240.9,47.4,241.1,47.5z M241.5,47.1
	c-0.1,0-0.3-0.1-0.4,0L241.5,47.1z M241.5,47.1c0.3,0,0.6,0.1,0.8,0C242,47.1,241.7,47.1,241.5,47.1z M251.9,50
	C252.1,49.8,251.4,50.1,251.9,50z M241.7,46.8c-1.3-0.3-2.4,0.1-3.6-0.1c-0.2,0.1-0.4,0.1-0.6,0.2c-0.3-0.1-0.5-0.1-1.1-0.2
	c-1,0.3-2.1,0.1-3.2,0.2c1.7,0.3,4.1,0.1,6,0c0.2,0.1-0.1,0.1,0.3,0.2C240.1,46.6,241,47.1,241.7,46.8z M243.5,47.3
	c-0.3-0.1-0.5,0-0.5,0.1C243.3,47.5,243.5,47.4,243.5,47.3z M243.7,47.1C243.5,46.9,243.7,47.2,243.7,47.1z M244.8,47.2
	c-0.2-0.1-0.3,0-0.4-0.1C244.1,47.1,244.7,47.3,244.8,47.2z M246.2,47.4c-0.3-0.1-0.5,0-0.5,0.1C246.1,47.5,246.3,47.5,246.2,47.4z
	 M245.7,47.2c-0.3-0.1-0.9,0.1-0.3,0.1C245.6,47.3,245.5,47.2,245.7,47.2z M249.2,48.3C249.5,48.1,248.8,48.5,249.2,48.3z
	 M250.5,48.2c-0.3-0.1-0.5,0-0.7,0.1c0,0.1,0.5,0.1,0.3,0.2C250.6,48.5,250.6,48.3,250.5,48.2z M246.9,46.6
	C247,46.4,246.4,46.6,246.9,46.6z M249.7,46.5c-0.1-0.1-0.3,0-0.4-0.1c0,0,0,0.1-0.1,0.1L249.7,46.5z M254.5,47.9
	C254.8,47.7,254,48,254.5,47.9z M239.5,43.2c-0.3-0.1-0.5,0-0.5,0.1C239.3,43.3,239.5,43.2,239.5,43.2z M252.6,46.8
	c-2.1,0-4.3,0.1-6.5-0.2c-1.3,0.3-2.8-0.1-3.9,0.2c1.1,0.1,2.2,0.1,3.3,0.1c1.3,0.4,3,0.5,3.6,0.1C250.2,46.9,252.3,47.4,252.6,46.8
	z M254.1,47.1C254.4,47,253.7,47.2,254.1,47.1z M256.8,47.8C257.1,47.7,256.4,48,256.8,47.8z M257,47.7
	C256.9,47.6,256.8,47.7,257,47.7z M254.3,46.7c-0.5-0.1-1,0-1.4,0.1c0.2,0.1,0.8,0,0.6,0.1C254.1,47,254.2,46.8,254.3,46.7z
	 M257,47.7C257.5,47.7,257.5,47.5,257,47.7z M255,46.9L255,46.9z M253.6,46.3c-0.3-0.1-1,0.1-0.4,0.2
	C253.4,46.4,253.6,46.3,253.6,46.3z M256.3,46.9C257.3,47.3,256.9,46.6,256.3,46.9z M259.3,46.7c-1.3-0.1-3-0.2-3.9,0.1
	C256.7,46.7,258.6,47.2,259.3,46.7z M262.4,47.6C262.5,47.6,262.2,47.5,262.4,47.6z M256.6,45.5c-0.7-0.2-1.3-0.1-1.8,0.1
	C255.3,45.5,256,45.7,256.6,45.5z M256.9,45.4C257,45.5,256.8,45.4,256.9,45.4z M259.7,46.2c-0.3-0.1-0.6-0.1-0.8,0
	C259.1,46.2,259.4,46.3,259.7,46.2z M260.6,46.3C260.7,46.3,260.5,46.3,260.6,46.3z M262.8,46.7c-1.1-0.3-1.9,0.1-3-0.1
	c0,0.1-0.3,0.2,0.1,0.3C260.8,46.6,262.3,47.2,262.8,46.7z M263.4,46.5L263.4,46.5z M266.5,47.4C266.8,47.2,266,47.5,266.5,47.4z
	 M263.9,46.5c-0.5,0-0.6,0.2-0.7,0.3c0.3,0,0.6,0.1,0.9,0C264.1,46.7,263.8,46.6,263.9,46.5L263.9,46.5z M267.1,47.4
	C267.2,47.4,267,47.4,267.1,47.4z M263.6,46C263.8,45.9,263.1,46.1,263.6,46z M264.4,46.1c-0.1,0-0.3,0-0.2-0.1l-0.4,0L264.4,46.1z
	 M266.7,46.7c-0.8,0-0.9-0.6-1.8,0.1C265.5,46.8,266.1,46.8,266.7,46.7z M263.2,45.2c-0.3-0.1-0.6,0-0.9,0.1
	c-0.8-0.2-1.8,0.1-2.9-0.2c-0.2,0.1,0,0.2-0.4,0.3c-0.6,0.1-0.5-0.3-1.5,0c1.5,0.5,3.1-0.2,4.8,0C262.6,45.4,263.2,45.4,263.2,45.2z
	 M265.9,45.9C266,45.9,265.8,45.9,265.9,45.9z M267.9,46.4C268.1,46.2,267.7,46.6,267.9,46.4z M270.2,46.5c-1.1-0.2-2,0-3,0.2
	C268.2,46.9,270.1,46.8,270.2,46.5z M266.6,45.3c-0.5-0.1-1.2,0-1,0.2C266.1,45.6,266.6,45.4,266.6,45.3z M267.8,45.2l-1,0.1
	C267.2,45.3,267.8,45.3,267.8,45.2z M272.4,46.5c-0.1,0-0.2,0-0.3,0L272.4,46.5z M268.8,45.4C268.9,45.2,268.3,45.5,268.8,45.4z
	 M274.9,47.1C274.1,46.9,274.7,47.4,274.9,47.1z M273.6,46.6c-0.3-0.1-0.5,0-0.8,0.1C273.2,46.8,273.7,46.7,273.6,46.6z M272.8,46.3
	c-0.2-0.1-0.5-0.1-0.7-0.2c-0.6,0.1-1.9,0.3-1.6,0.5c0.4-0.1,0.3-0.2,0.7-0.3C271.5,46.3,272.3,46.4,272.8,46.3z M269.4,44.9
	C269,44.7,268.6,45.3,269.4,44.9z M273.5,46C273.6,46,273.4,46,273.5,46z M274.3,46.1c-0.3,0-0.9,0-0.9,0.1L274.3,46.1z M275,46.3
	C274.8,46.2,274.9,46.5,275,46.3z M271.1,45C271.2,45,271,45,271.1,45z M276.7,46.6C277,46.5,276.3,46.8,276.7,46.6z M272.8,44.9
	L272.8,44.9z M279.1,46.6c-0.3,0-0.7,0-0.7,0.1C278.8,46.8,279.2,46.7,279.1,46.6z M277.8,46.1c-0.2,0-0.4,0-0.5-0.1
	C276.7,46,277.4,46.4,277.8,46.1z M279.1,46.2C279.2,46.2,279,46.2,279.1,46.2z M281.5,46.5C281.4,46.7,282.3,46.6,281.5,46.5z
	 M277.5,45.3C277.7,45.1,277,45.3,277.5,45.3z M283.1,46.2c-0.3-0.1-0.6,0-0.8,0C282.6,46.3,282.9,46.3,283.1,46.2z M272.1,42.9
	L272.1,42.9z M284.1,46.5C284.1,46.7,284.9,46.5,284.1,46.5z M280.8,45.5C280.9,45.5,280.7,45.5,280.8,45.5z M281.5,45.6
	c-1.5-0.3-1,0.3-1.9,0.3c0.4,0.1,2.1,0.2,2.4,0.1c-0.3-0.2-0.6,0-0.9-0.1C280.6,45.7,281.6,45.8,281.5,45.6z M286.5,46.8
	C286.7,46.7,286,46.9,286.5,46.8z M286,46.6C286.3,46.4,285.5,46.8,286,46.6z M274.6,43C275,42.9,274.2,43.2,274.6,43z M284.2,45.8
	c-0.7,0-1.5-0.1-2.1,0.2C282.8,46,283.5,46,284.2,45.8z M285.1,45.8c-0.3-0.1-0.5,0-0.5,0.1C284.8,45.9,285,45.8,285.1,45.8z
	 M287.5,46.5c-0.3-0.1-0.6,0-0.9,0C286.9,46.5,287.3,46.6,287.5,46.5z M293.6,48.3C293.9,48.1,293.1,48.3,293.6,48.3z M286.4,45.8
	C285.8,45.7,285.9,46,286.4,45.8z M289,46.5C288.9,46.5,288.8,46.5,289,46.5z M285.9,45.4C286,45.4,285.8,45.4,285.9,45.4z
	 M289,46.5c0.2,0.1,0.4,0.1,0.7,0.1c0,0.1,0.1,0.2,0.6,0.2c0.1-0.1,0-0.1,0.2-0.2c-0.1,0,0.1-0.1,0.2-0.1c-0.1,0-0.2-0.1-0.1-0.1
	C290.1,46.4,289.7,46.4,289,46.5L289,46.5z M287.3,45.4L287.3,45.4z M289,45.8c-0.5-0.1-1-0.3-1.4-0.1C288.1,45.8,288.6,46,289,45.8
	z M289.9,46c-0.5,0-0.9,0-1.3,0.1C289.1,46.2,289.5,46.1,289.9,46z M290.7,46C290.8,46,290.6,46,290.7,46z M290.1,45.6
	C290.1,45.8,290.7,45.6,290.1,45.6z M291.5,45.6L291.5,45.6z M291.9,45.7C292.2,45.6,291.4,45.8,291.9,45.7z M295.7,46.5L295.7,46.5
	z M295.2,45.8C294.6,45.8,295.3,46,295.2,45.8z M296.1,45.9C296.3,45.7,295.6,46,296.1,45.9z M295.3,45.5c-0.5,0.1-1.2-0.1-1.7,0
	C293.7,45.6,295.5,45.8,295.3,45.5z M297.9,45.5c-1-0.3-0.7,0-1.4,0c0,0.1,0.3,0.1,0.5,0.2c-0.2,0.2-0.5,0-0.8,0.1
	c0.4,0,0.1,0,0.5,0.1C296.9,45.6,297.7,45.7,297.9,45.5L297.9,45.5z M299.3,45.3c-0.7-0.1-0.8,0.3-1.3,0.2
	C298.5,45.7,298.9,45.4,299.3,45.3z M300.1,45.4C300.2,45.4,300,45.4,300.1,45.4z M159.6,3.3c-0.2-0.1-0.4,0-0.6-0.1
	C158.9,3.3,159.5,3.3,159.6,3.3z M301.7,45.3c-0.2,0-0.4,0-0.5,0C301.4,45.3,301.6,45.3,301.7,45.3z M301.7,45.3
	C301.8,45.3,301.9,45.3,301.7,45.3z M159.6,3.3c0.2,0,0.5,0.1,0.7,0C160.1,3.2,159.9,3.2,159.6,3.3z M292.4,42.3
	c-0.3-0.1-0.5,0-0.7,0C292,42.4,292.2,42.4,292.4,42.3z M300.2,44.5C300.3,44.5,300.1,44.5,300.2,44.5z M303.5,45.4
	c-0.5-0.2-1,0.1-1.2,0.1C302.9,45.7,303.5,45.5,303.5,45.4z M302.2,45C302.5,44.8,301.7,45.1,302.2,45z M300.6,44.5
	C300.8,44.3,300.1,44.5,300.6,44.5z M293.9,42.3C293.5,42.1,293,42.6,293.9,42.3z M303.9,45.3C303.7,45.5,304.9,45.5,303.9,45.3z
	 M162.2,3.5c0.2,0,0.3-0.1,0.5-0.1C162.1,3.2,161.9,3.3,162.2,3.5z M304.8,45.2c0.5,0.2,0.8,0.1,1.2,0.2
	C306.7,45.3,305.2,45,304.8,45.2z M305.2,44.6c-0.3,0-0.8-0.1-0.6-0.2c-0.8,0.2-2.2,0-2.6,0.2c0.5,0.1,0.9,0.2,1.4,0.2
	c0.4-0.3,1.4-0.1,2.2-0.1C305.5,44.7,305.3,44.7,305.2,44.6z M305.2,44.6C305.3,44.6,305.1,44.6,305.2,44.6z M308.2,45.5
	C308.2,45.5,308,45.5,308.2,45.5z M307.9,45.1C307.6,44.9,307.1,45.4,307.9,45.1z M167,3.3c-0.3,0-0.5,0.1-0.8,0.1
	C166.6,3.6,166.8,3.4,167,3.3z M306.6,44.6L306.6,44.6z M307.3,44.8C307.6,44.6,306.8,45,307.3,44.8z M307.5,44.4
	c-0.2,0.1-0.4,0-0.6,0.1c0.3,0.1,0.6,0.1,1,0.2C307.8,44.6,307.9,44.5,307.5,44.4z M309.4,45.1L309.4,45.1z M295.6,40.9l-0.4,0.1
	C295.5,41.1,295.6,40.9,295.6,40.9z M311.4,45.4C311.7,45.2,310.9,45.6,311.4,45.4z M308.7,44.3c0,0.1-0.6,0.3-0.1,0.4
	C308.9,44.6,309,44.5,308.7,44.3z M309.3,44.6L309.3,44.6z M310.2,44.7L310.2,44.7z M311.4,45c-0.5,0-0.4-0.2-0.9-0.2
	C310.1,44.9,311,45.2,311.4,45z M297.9,40.9L297.9,40.9z M312.5,44.9c-0.3-0.1-0.6,0.1-0.6,0.1C312.2,45.1,312.4,45,312.5,44.9z
	 M311.3,44.4c-0.2,0-0.3,0.1-0.5,0.1c0.4,0.1,0.7,0.1,1,0C311.8,44.5,311.6,44.6,311.3,44.4L311.3,44.4z M300.4,41.1
	c-0.5-0.1-1.1-0.3-1.6-0.1C299.4,41.2,299.9,41.2,300.4,41.1z M316.8,45.9C317.1,45.7,316.3,46,316.8,45.9z M291.4,46.7
	c0.1,0,0-0.1,0.3-0.1C291.6,46.6,291.7,46.7,291.4,46.7z M317.8,45.9C317.9,45.9,317.6,45.9,317.8,45.9z M312.9,44.3L312.9,44.3z
	 M303.5,41L303.5,41z M304.6,41c-0.3-0.1-0.7-0.2-0.9-0.1C303.8,41.1,304.3,41.1,304.6,41z M303.8,40.7c-0.2,0-0.4,0-0.5,0
	C303.5,40.7,303.7,40.7,303.8,40.7z M316,44.2l-0.9,0.1C315.4,44.4,315.7,44.3,316,44.2z M317.9,44.7c-0.5,0-0.9,0-1.3,0.1
	C317.1,44.9,317.5,44.8,317.9,44.7z M318.2,44.8C317.9,44.6,317.4,45,318.2,44.8z M304.8,40.6c-0.6-0.1-0.1,0.2-0.4,0.2
	C305,40.9,304.6,40.6,304.8,40.6z M317.1,44.2c-0.3,0-0.6,0-0.9,0.1l0.3,0C316.8,44.4,316.9,44.2,317.1,44.2z M318.7,44.7
	C318.9,44.6,318.2,44.8,318.7,44.7z M320.2,45c-0.1,0-0.2-0.1-0.3-0.1c0,0,0,0.1-0.1,0.1C319.9,45,320.1,45.1,320.2,45z M310.9,42.1
	c-0.2,0-0.5-0.1-0.7,0C310.4,42.1,310.7,42.2,310.9,42.1z M305.7,40.5C305,40.5,305.6,40.8,305.7,40.5z M320,44.8
	c-0.3-0.1-0.6-0.1-0.8,0C319.4,44.8,319.7,44.9,320,44.8z M318.3,44.2c-0.4-0.1-0.9,0.1-0.9,0.2C318.6,44.4,317.9,44.3,318.3,44.2z
	 M319.1,44.4c-0.3-0.2-0.8-0.1-0.8,0C318.6,44.5,318.9,44.4,319.1,44.4z M307.2,40.6C307.3,40.6,307,40.6,307.2,40.6z M321.6,44.7
	c-0.1-0.2-1-0.1-1.3,0C320.7,44.8,321.1,44.7,321.6,44.7z M322.4,44.6C322.3,44.7,322.5,44.7,322.4,44.6z M322.4,44.6
	c0.1,0-0.1-0.1,0-0.1C321.9,44.4,322,44.7,322.4,44.6z M309.9,40.5c-1.3-0.2-1.3,0.2-1.7,0.3c0.3,0.1,0.6,0,0.9-0.1
	c-0.1,0-0.2-0.1-0.3-0.1c0.5-0.1,0.5,0,1.1,0.1C309.8,40.7,309.4,40.6,309.9,40.5L309.9,40.5z M311,40.6c-0.2,0-0.5,0-0.7,0.1
	C310.4,41,311.4,40.8,311,40.6z M323.9,44.2c-0.2-0.1-0.3,0-0.5,0L323.9,44.2z M312.8,40.9C312.9,40.9,312.6,40.8,312.8,40.9z
	 M327.2,44.8c-0.5-0.1-0.3,0-0.4,0.1C327.3,45,327,44.8,327.2,44.8z M325.4,44.3L325.4,44.3z M327.1,44.6c-0.2-0.1-0.4,0-0.5,0
	L327.1,44.6z M326.7,44.1c-0.1,0,0,0.1,0.1,0.2C326.9,44.2,326.9,44.1,326.7,44.1z M314.6,40.5C314.8,40.4,314.1,40.6,314.6,40.5z
	 M328.2,44.5C328.4,44.4,327.7,44.6,328.2,44.5z M328.4,44.1C327.3,43.7,327.2,44.5,328.4,44.1z M317.9,40.6c-0.8-0.1-1.2-0.3-2-0.1
	L317.9,40.6z M318.6,40.6l-0.8,0C318.1,40.7,318.4,40.6,318.6,40.6z M318.6,40.6C319,40.8,319,40.6,318.6,40.6z M331.5,44
	C331.8,43.9,331,44.2,331.5,44z M332.9,44.4C332.6,44.1,332.1,44.6,332.9,44.4z M320.1,40.4c-0.3-0.1-0.6,0-0.9,0.1
	C319.6,40.6,319.8,40.5,320.1,40.4z M321.2,40.4c-0.4,0-0.1,0-0.5-0.1c-0.4,0.1-0.1,0.1-0.4,0.2c0.2,0,0.3,0,0.2,0.1
	C320.9,40.6,321,40.4,321.2,40.4z M333,43.8c0.3,0.1,0.6,0.1,0.3,0.2c0.4,0,1.7,0.2,1.1,0.3c0.3,0.1,0.5,0,0.8,0.1
	C335.4,44,333.7,43.8,333,43.8z M341.9,44.1C341.3,43.9,341,44.4,341.9,44.1z M201.8,2.4c-0.3,0-0.6-0.1-0.8,0
	C201.3,2.5,201.6,2.5,201.8,2.4z M201.8,2.4C202,2.5,202,2.4,201.8,2.4z M205.1,2.7C205.2,2.7,204.9,2.7,205.1,2.7z M202.5,2.4
	c0.6,0.1,1.2,0.1,1.8,0.1C204.3,2.2,203,2.2,202.5,2.4z M346.5,44C346.8,43.9,346,44.1,346.5,44z M345.9,43.7
	C346.1,43.5,345.4,43.7,345.9,43.7z M206.5,2.3c-0.5-0.1-0.9-0.1-1.3,0.1C205.6,2.4,206.4,2.4,206.5,2.3z M345.9,43.5
	c-0.3-0.1-0.5,0-0.5,0.1C345.6,43.6,345.8,43.6,345.9,43.5z M208.5,2.7l-1.7,0C207.4,2.6,207.8,2.7,208.5,2.7z M348.7,44
	c-0.6-0.1-1.1,0-1.7-0.1c0,0,0,0.1-0.2,0.1c0.3,0.1,0.6,0.1,0.8,0c0.6,0.2-0.1,0.1-0.4,0.2c0.4,0.1,0.6-0.1,0.9,0
	C348.4,44.2,348.2,44.1,348.7,44L348.7,44z M338.9,40C338.3,39.9,338.4,40.2,338.9,40z M352.3,43.8L352.3,43.8z M353.6,43.9
	L353.6,43.9z M353.8,43.7c-0.3-0.1-0.6-0.1-0.8,0L353.8,43.7z M345.7,41.4c-0.4,0.1,0.8,0.2,0.6,0.3
	C347.2,41.7,346.3,41.3,345.7,41.4z M355.5,43.8c-0.5,0-0.9-0.1-1.3,0.1C356.1,44.2,354.7,43.9,355.5,43.8z M342.7,39.8
	c-0.2-0.1-0.4,0-0.6,0C342.4,39.9,342.5,39.9,342.7,39.8z M341.6,39.5L341.6,39.5z M355.5,43.8c0.2,0,0.4,0,0.5,0
	C355.8,43.7,355.7,43.7,355.5,43.8z M348.6,41.5C348.7,41.3,348,41.5,348.6,41.5z M342.7,39.8h0.9C343.3,39.7,343,39.7,342.7,39.8z
	 M343.6,40C344.6,40.4,344.2,39.7,343.6,40z M356.2,43.5c-0.5,0-1.4-0.1-1.5,0.1C355.2,43.5,355.7,43.6,356.2,43.5z M349.2,41.2
	C349.3,41,348.8,41.3,349.2,41.2z M357,43.5C357.2,43.4,356.5,43.6,357,43.5z M358.3,43.9C358.6,43.8,357.8,44,358.3,43.9z
	 M346.1,40.1C346.2,40.1,346,40.1,346.1,40.1z M344.4,39.4c-0.2,0-0.4,0-0.6,0C344.1,39.6,344.2,39.5,344.4,39.4z M358.6,43.7
	C358.8,43.5,358.1,43.7,358.6,43.7z M351.4,41.2C351.6,41,350.9,41.3,351.4,41.2z M352.5,41.3c-0.3-0.1-0.6,0-0.8,0
	C352.1,41.5,352.3,41.4,352.5,41.3z M352.8,41.4C353.1,41.3,352.3,41.6,352.8,41.4z M349.3,39.9C349.2,39.9,349.4,39.9,349.3,39.9z
	 M350,39.6c-0.1,0-0.2,0-0.3,0c0,0,0,0.1-0.1,0.1L350,39.6z M350.8,39.9C351.1,39.7,350.3,39.9,350.8,39.9z M352.6,40.2
	C352.8,40.1,352.1,40.3,352.6,40.2z M356.5,41.1c-0.2,0-0.4,0-0.6,0C356.1,41.3,356.3,41.1,356.5,41.1z M363.5,43.1
	c-0.3,0.1-2.1,0.5-1.8,0.2c-0.7,0.1-1.5,0.1-2.2,0.2c0.2,0.1,0.9,0,0.5,0.1c0.4,0,0.8-0.1,1.2-0.1c0,0.1,0.3,0.2,0.3,0.3
	c0.8,0.1-0.1-0.2,1-0.2c0.2,0.1-0.1,0.1,0.2,0.2c0.5-0.2,0.4-0.5,1.3-0.5C364.1,43.3,363.8,43.2,363.5,43.1z M352,39.6L352,39.6z
	 M354,40.2l-1.5,0.1c0.3,0.1,0.9-0.1,0.8,0C353.6,40.4,353.8,40.2,354,40.2z M353.1,39.9C353.4,39.7,352.6,40.1,353.1,39.9z
	 M364.3,43.1C364.4,43.1,364.2,43.1,364.3,43.1z M353.7,39.9C353.6,39.7,353.8,40.1,353.7,39.9z M365.6,43.3c-0.3-0.1-0.6-0.1-0.8,0
	C365.1,43.4,365.4,43.3,365.6,43.3z M354,39.7L354,39.7z M354.2,39.7L354.2,39.7z M355.4,40C355.6,39.8,354.9,40.1,355.4,40z
	 M366.8,43.3c-0.2-0.1-0.4,0-0.6,0C366.5,43.4,366.7,43.4,366.8,43.3z M236.6,4.4c-0.1,0-0.1,0-0.2,0C236.5,4.4,236.6,4.4,236.6,4.4
	z M358.6,40.5l-1,0C357.9,40.5,358.3,40.6,358.6,40.5z M236.6,4.4C236.8,4.4,236.9,4.4,236.6,4.4z M360.6,41.1
	C360.1,40.9,360.2,41.2,360.6,41.1z M361.7,41.1c-0.3,0-0.6-0.1-0.9,0c0.3,0,0.4,0.1,0.1,0.2l0.4,0.2c0.4,0.1,0.5-0.1,0.6-0.2
	C361.8,41.2,361.6,41.1,361.7,41.1z M364.1,41.4c-0.3,0-0.5-0.1-0.7,0C363.6,41.5,363.9,41.6,364.1,41.4z M370.4,43.3
	c-0.5,0-1.5-0.1-1.6,0.1C369.4,43.5,369.9,43.4,370.4,43.3z M370.6,43.3C370.9,43.2,370.1,43.4,370.6,43.3z M364.2,41.1
	c-0.7-0.2-1.2,0-1.7,0c0-0.1-0.3-0.1-0.2-0.2c-0.4-0.1-0.3,0.1-0.4,0.2c0.7,0.1,1.3,0.1,2,0.1C363.9,41.2,364,41.1,364.2,41.1
	L364.2,41.1z M363.1,40.7L363.1,40.7z M365.4,41.1C364.6,40.7,363.9,41.5,365.4,41.1z M364.2,40.6C364.4,40.4,363.7,40.7,364.2,40.6
	z M364.9,40.6C364.5,40.4,364,40.8,364.9,40.6z M366.2,41L366.2,41z M363.1,39.6l-0.9,0.1C362.5,39.7,362.8,39.7,363.1,39.6z
	 M367.6,40.9c-0.2,0-0.4,0-0.6,0c0.2,0,0.3,0,0.2,0.1C367.5,41.1,367.5,41,367.6,40.9L367.6,40.9z M375.8,43.4c-0.2,0-0.4,0-0.5,0
	C375.4,43.4,375.6,43.4,375.8,43.4z M377.1,43.6c-0.3,0-0.6-0.2-0.8-0.2C375.9,43.6,376.8,43.8,377.1,43.6z M243.7,4.2
	c-0.2,0.1-0.4,0.1-0.6,0.2c0.4,0,0.7,0,1.1-0.1C244.2,4.1,244,4.2,243.7,4.2z M362.7,39.2C362.3,39.1,362.1,39.5,362.7,39.2
	C362.6,39.2,362.6,39.2,362.7,39.2z M370,41.4c-0.3-0.1-0.5-0.1-0.7,0C369.3,41.4,369.7,41.5,370,41.4z M369.2,40.9
	c-0.2,0-0.5,0-0.7,0.1c0.4,0.1,0.8,0.1,0.7,0.3C369.8,41.2,369.8,41,369.2,40.9z M371.5,40.9c-0.4-0.1-0.8,0-1.1-0.1
	c-0.2,0.3,1.1,0,1.2,0.3C372.1,41.1,371.4,41,371.5,40.9z M379.3,43.2c-0.4-0.1-0.8,0-1.2,0c0.4,0.1,0.8,0.1,1.2,0.3
	C379.8,43.4,378.8,43.3,379.3,43.2z M380.2,43.4c-0.3,0.1,0,0.2,0.2,0.3C380.8,43.6,380.6,43.4,380.2,43.4z M367.4,39.5
	C367.5,39.5,367.2,39.5,367.4,39.5z M378.6,42.8C378.9,42.7,378.1,42.9,378.6,42.8z M367,39.2C366.9,39.2,367.1,39.3,367,39.2z
	 M367,39.2C367.1,39.2,366.9,39.1,367,39.2z M381.3,43.1L381.3,43.1z M373.6,40.7C373.8,40.5,373.4,40.9,373.6,40.7z M358.6,40.5
	c0.5,0.1,0.2,0.1,0,0.2c0.9,0.2,1-0.1,1.6-0.3c0.8,0.1,1.5,0.1,2.2,0.1c0.1-0.2,0.7-0.1,1-0.2c0.9,0.3,2.3-0.1,3.5,0.1
	c0.1-0.3,1-0.1,1.4-0.4c0.4-0.1,0.2,0.1,0.5,0.1c0.7-0.1,1.4-0.2,2.3,0c0-0.1,0.1-0.3,0.6-0.1c0.2-0.1-0.4-0.2-0.7-0.3
	c-0.7,0.1-1.4,0.1-2.1,0.1c-0.2-0.1,0.1-0.1-0.3-0.2c-1,0-0.7,0.6-2.3,0.1c0,0.2-1,0-1.5-0.1c-0.6,0.1-1.2,0.1-1.8,0.1
	c0.5,0.2-0.9,0.2-0.6,0.5c-0.7,0.1-1.1-0.3-1.7-0.2c-0.3-0.2,0.9-0.1,1.3-0.3c-0.2-0.1-0.4-0.1-0.4-0.2
	C359.9,39.7,360.2,40.3,358.6,40.5L358.6,40.5z M383.4,43.3c-0.8-0.1-1.5-0.3-2.2-0.1C382,43.4,382.7,43.3,383.4,43.3z M381.7,42.8
	C381.9,42.6,381.2,42.9,381.7,42.8z M385,43.7c-0.6-0.1-1.1-0.1-1.6,0.1C383.4,43.7,384.9,43.8,385,43.7z M376.2,40.9L376.2,40.9z
	 M372.7,39.7c-0.5,0.1,0.3,0.2-0.4,0.3c0.6,0.1,0.9,0.3,1.6,0.1C373.3,40,373.1,39.9,372.7,39.7z M384.5,43.2
	c-0.4-0.1-1.5,0-0.6,0.2C384,43.2,384.1,43.3,384.5,43.2z M376.9,40.7c-0.9-0.1-1.7,0-2.5,0.1c0.5,0,0.5,0.2,1.1,0.1
	c0.3,0-0.1-0.1,0-0.1c0.3-0.1,0.7,0,1.1,0.1C376.9,40.8,376.6,40.8,376.9,40.7L376.9,40.7z M385.4,42.8
	C385.7,42.6,384.9,43,385.4,42.8z M387,43c-0.3,0-0.6,0.1-0.9,0.1C386.5,43.3,386.7,43.1,387,43z M379.7,40.6
	c-1.1-0.2-0.7,0.2-1.8,0.2c0.6,0.2,0.9-0.2,1.4,0C379.8,40.8,379.7,40.7,379.7,40.6z M380.4,40.8C380.5,40.8,380.3,40.8,380.4,40.8z
	 M388.5,43.1l-0.7,0C388,43.1,388.2,43.1,388.5,43.1z M379,39.8c-0.5,0-0.7,0-1.6,0c0,0,0.2,0.1,0.2,0.1c-0.6,0.1-2.4,0-2.1-0.3
	c-0.4-0.1-0.7,0-1,0.1c0,0.1,0.2,0.1,0.3,0.3c-0.6,0.1-0.2,0.2-0.3,0.3c-0.3,0-0.8-0.1-0.7,0.1c0.5-0.1,1.6,0.2,1.7-0.1
	c1,0.1,2,0.2,2.8-0.1c0.5,0,1,0.2,1.3,0C379.2,40,378.8,39.9,379,39.8L379,39.8z M382.3,40.6c-0.2,0-0.4,0.1-0.6-0.1
	c-0.1,0-0.3,0.1-0.5,0.1C381.7,40.8,382.5,40.8,382.3,40.6L382.3,40.6z M390.7,43.1c-0.3,0-0.6-0.1-0.8,0
	C390.2,43.1,390.5,43.2,390.7,43.1z M380.8,40.1C381,40,380.3,40.2,380.8,40.1z M258.9,3.8C258.5,3.7,258.6,4,258.9,3.8z
	 M384.4,40.6c-0.5-0.1-1.1-0.1-1.6-0.1c0.1,0,0.7,0,0.4,0.2c0.4,0,0.6-0.2,1,0C384.6,40.7,384.2,40.7,384.4,40.6L384.4,40.6z
	 M380,39.8c1.1,0.2,2.3,0,2.9,0.4C383.4,39.6,380.4,39.6,380,39.8z M393.9,43.1C394,43.1,393.8,43.1,393.9,43.1z M386.9,40.6
	L386.9,40.6C386.9,40.7,386.8,40.6,386.9,40.6z M258.9,3.8c1.3,0.1,2.6,0.1,3.8,0C261.7,3.6,260,3.6,258.9,3.8z M385,39.7
	c-0.3-0.1-0.5,0-0.7,0C384.6,39.7,384.8,39.8,385,39.7z M264,3.8c-0.5-0.2-0.9-0.1-1.2,0C263.2,3.9,263.6,3.9,264,3.8z M385.6,39.7
	c-0.2-0.1-0.4,0-0.6,0L385.6,39.7z M387.1,40.1L387.1,40.1z M397,43c-0.2,0-0.5-0.1-0.7,0c0.4,0.1,0.1,0.1,0.5,0.2
	C397,43.1,396.9,43.1,397,43L397,43z M265.1,3.9C265,3.7,265.1,4.1,265.1,3.9z M389.7,40.7c-0.4-0.1-1.2,0.1-0.4,0.2
	C389.6,40.8,389.3,40.7,389.7,40.7z M391.1,40.9C391.1,40.9,390.9,40.9,391.1,40.9z M388.1,39.8c-0.2-0.1-0.4,0-0.7-0.1
	C387.2,39.8,387.8,39.9,388.1,39.8z M266.4,3.8C266.5,3.6,266,3.8,266.4,3.8z M267.3,3.9c-0.2-0.1-0.4,0-0.6,0
	C266.9,4,267.1,3.9,267.3,3.9z M259.3,1.2C259,1.1,259,1.4,259.3,1.2z M389.2,39.7c-0.2-0.1-0.7,0-0.5-0.1c-0.2,0-0.3,0-0.5,0.1
	C388.2,39.7,389.2,39.7,389.2,39.7z M259.3,1.2C259.4,1.3,259.5,1.2,259.3,1.2z M392.5,40.5C391.9,40.4,392,40.7,392.5,40.5z
	 M399.9,42.6C400.2,42.5,399.4,42.8,399.9,42.6z M401.5,43.1c-0.2,0-1,0-0.5-0.1C399.9,42.9,400.8,43.5,401.5,43.1z M268.9,3.7
	L268.9,3.7z M402.1,43.1C401.9,43,401.9,43.1,402.1,43.1z M390.7,39.7C390.8,39.7,390.5,39.7,390.7,39.7z M402.1,43.1
	C402.2,43.1,402.3,43,402.1,43.1z M400.8,42.6C400.9,42.5,400.1,42.6,400.8,42.6z M261.6,1.3C261.8,1.1,261.1,1.4,261.6,1.3z
	 M401.5,42.6L401.5,42.6z M262.2,1.3L262.2,1.3z M404.1,43c-0.5-0.1-1-0.1-1.4,0C403.1,43.1,403.6,43.1,404.1,43z M263.5,1.3
	C263.6,1.3,263.4,1.3,263.5,1.3z M272,3.7L272,3.7C272,3.8,272,3.7,272,3.7z M265.1,1.3c-0.2,0-0.4,0-0.5,0
	C264.7,1.3,264.9,1.3,265.1,1.3z M265.3,1.3c-0.1,0-0.1,0-0.2,0C265.1,1.3,265.2,1.3,265.3,1.3z M395.1,39.6
	C394.5,39.5,394.6,39.9,395.1,39.6z M398.1,40.6c-0.4-0.2-0.6,0.1-1-0.1c-0.4,0.1-0.7,0.2-0.1,0.3C397.4,40.6,397.8,40.7,398.1,40.6
	z M406.7,43.1C406.5,42.9,406.6,43.3,406.7,43.1z M265.3,1.3c0.3,0.1,0.4,0,0.4,0C265.5,1.2,265.4,1.2,265.3,1.3z M405.2,42.6
	C405.3,42.4,404.5,42.6,405.2,42.6z M266.7,1.3c0.2-0.1-0.4-0.1-0.5,0C266.4,1.3,266.5,1.2,266.7,1.3z M396.8,39.7
	C396.9,39.5,396.2,39.7,396.8,39.7z M267.9,1.3c-0.3-0.1-0.6-0.1-0.8,0C267.4,1.3,267.7,1.4,267.9,1.3z M397.4,39.6
	C397.5,39.6,397.3,39.6,397.4,39.6z M402.6,40.7C402.6,40.7,402.4,40.6,402.6,40.7z M396.7,38.8C396.9,38.7,396.2,38.9,396.7,38.8z
	 M270.4,1.3c-0.6-0.1-1.3-0.1-1.8,0C269.1,1.3,270.2,1.5,270.4,1.3z M403.9,40.6C404,40.6,403.7,40.6,403.9,40.6z M271.7,1.4
	C271.8,1.4,271.6,1.3,271.7,1.4z M404.7,40.6c-0.2-0.1-0.3,0-0.5,0L404.7,40.6z M273.9,1.3c-0.4-0.1-0.7,0-1,0
	C272.5,1.6,273.9,1.3,273.9,1.3z M408.2,40.8L408.2,40.8z M405.4,39.6c-0.3,0-0.6,0-0.9,0.1C404.8,39.7,405.1,39.7,405.4,39.6z
	 M275.9,1.4c0,0-0.1,0-0.1,0C275.9,1.3,276,1.4,275.9,1.4l0.6,0c-0.6-0.1-1.2-0.1-1.7,0C275.2,1.4,275.6,1.4,275.9,1.4z M278.1,1.5
	C278.2,1.5,278,1.5,278.1,1.5z M406.4,39.6c0.4,0.1,0.7,0,1,0.1C407.7,39.5,406.7,39.5,406.4,39.6z M279.3,1.3c-0.2-0.1-0.4,0-0.5,0
	L279.3,1.3z M411.8,40.6C411.8,40.6,411.6,40.6,411.8,40.6z M413.8,41.1c-0.3-0.1-0.5,0.1-0.7,0C412.9,41.2,413.6,41.2,413.8,41.1z
	 M408.6,39.5L408.6,39.5z M278.9,1C278.2,1,278.9,1.2,278.9,1z M409.2,39.6C409.4,39.5,408.7,39.7,409.2,39.6z M279.4,1.1
	C279.7,1,278.9,1.2,279.4,1.1z M414.9,41.2c-0.3-0.1-0.6-0.1-0.8,0C414.4,41.1,414.7,41.3,414.9,41.2z M278.5,0.6
	C278,0.5,278.1,0.8,278.5,0.6z M294.5,5.3C294.7,5.1,294,5.3,294.5,5.3z M280.9,1.1L280.9,1.1z M411.1,39.6c-0.3-0.1-0.8,0-0.8,0.1
	C410.7,39.7,411,39.7,411.1,39.6z M279.6,0.6C279.2,0.4,279,0.8,279.6,0.6C279.5,0.6,279.5,0.6,279.6,0.6z M416.8,41.1L416.8,41.1z
	 M281.1,0.7c-0.3-0.1-0.6,0-0.8,0C280.6,0.8,280.9,0.8,281.1,0.7z M284.6,1.4c-0.3-0.1-0.5-0.1-0.7,0C283.8,1.5,284.3,1.5,284.6,1.4
	z M413.8,39.6L413.8,39.6z M414.2,39.7C414.3,39.5,413.6,39.7,414.2,39.7z M418.6,40.8C418.6,40.6,418.1,40.8,418.6,40.8z
	 M419.1,40.6C419.4,40.5,418.6,40.7,419.1,40.6z M420.4,40.8c-0.3,0.3-1.8,0.3-2.8,0.1c-0.4,0.1-0.1,0.1-0.4,0.2c1.3,0,2.7,0.1,4,0
	C420.9,41,420.8,40.9,420.4,40.8z M286.5,1.2C286.5,1.3,287.3,1.2,286.5,1.2z M417.8,40C417.9,40,417.7,40,417.8,40z M417.9,39.9
	C417.9,39.9,417.7,39.9,417.9,39.9z M423.5,40.9c-0.6-0.2-1-0.1-1.6-0.2C422,40.8,423.1,41,423.5,40.9z M289.6,1.1
	C289.7,1.1,289.5,1,289.6,1.1z M290.4,1.3C290.7,1.2,290,1.5,290.4,1.3z M425.4,41.2C425.7,41,424.9,41.2,425.4,41.2z M290.3,1.1
	C290.4,1.1,290.1,1.1,290.3,1.1z M420.6,39.7c0.1,0-0.2-0.1-0.3-0.1C420,39.6,420.5,39.8,420.6,39.7z M425.4,40.8L425.4,40.8z
	 M291.2,0.5C291.3,0.5,291.1,0.5,291.2,0.5z M420.4,38.7c-0.4,0.1,0.3,0.2,0.4,0.1C420.7,38.8,420.6,38.7,420.4,38.7z M428,40.8
	c-0.3-0.1-0.5,0-0.7,0.1C427.5,40.8,427.8,40.8,428,40.8z M426.9,40c-0.2-0.1-0.3,0-0.5,0L426.9,40z M423.4,38.8
	C423.1,38.6,422.6,39.1,423.4,38.8z M432.7,41.2C433,41.1,432.3,41.4,432.7,41.2z M434.7,40.9C435,40.8,434.2,41.1,434.7,40.9z
	 M436,41.3C436.1,41.3,435.9,41.3,436,41.3z M430.4,39.2C430.5,39.2,430.3,39.2,430.4,39.2z M433,39.8c-0.3,0-0.5,0-0.5,0.1
	C432.8,39.9,432.9,39.8,433,39.8z M438.4,41.3C438.6,41.1,437.9,41.3,438.4,41.3z M436.3,40.1c-0.4-0.1-0.7-0.2-1,0
	C435.7,40.2,436,40.2,436.3,40.1z M438.5,39.9C438.7,39.7,438,39.9,438.5,39.9z M438,39c-0.2,0-0.4,0-0.5,0
	C437.7,39.1,437.9,39.1,438,39z M438,39C438.1,39.1,438.2,39,438,39z M309.6,0.1L309.6,0.1z M441.9,39.2
	C442,39.2,441.7,39.2,441.9,39.2z M442.7,39.1C442.9,39,442.2,39.2,442.7,39.1z M446.9,40C446.9,40,446.7,40,446.9,40z M447.5,40.2
	C447.8,40,447,40.2,447.5,40.2z M314.2,0.1C314.1,0.1,314,0.1,314.2,0.1z M318.2,0.1C317.7-0.1,317.8,0.2,318.2,0.1z M318.2,0.1
	c0.3,0.1,0.6,0.1,0.8,0C318.7,0,318.4,0,318.2,0.1z M453.2,39.3L453.2,39.3z M321.5,0.2c0.1,0,0.1-0.1,0.2-0.1c-0.3-0.1-0.6,0-0.8,0
	C321.1,0.2,321.3,0.1,321.5,0.2z M453.3,38.9c-0.3-0.1-1.6-0.3-0.5,0.2C453,39.1,453,39,453.3,38.9z M453.2,38.6c-0.4,0-0.7-0.1-1,0
	C452.5,38.6,452.9,38.7,453.2,38.6z M454.1,38.7c-0.3-0.1-0.5-0.2-0.7,0C453.6,38.8,453.9,38.8,454.1,38.7z M456.2,39
	C455,38.7,455.9,39.3,456.2,39z M457.4,38.9c-0.2-0.1-0.3,0-0.5-0.1c0,0,0,0.1-0.1,0.1L457.4,38.9L457.4,38.9z M457.3,38.6
	C457.5,38.4,456.8,38.6,457.3,38.6z M458.5,38.8C456.6,38.1,457.9,39.2,458.5,38.8z M459.7,39.1C460,38.9,459.2,39.1,459.7,39.1z
	 M460,39C460.1,39,459.9,39,460,39z M458.6,38.2c-0.2-0.1-0.4,0.1-0.6,0.1C458.3,38.4,458.6,38.3,458.6,38.2z M460.8,38.8
	c-0.6-0.2-1.2,0-1.8-0.2c-0.1,0.1,0.4,0.2,0,0.2C459.5,38.8,460.2,38.9,460.8,38.8L460.8,38.8z M458.7,38.1
	C458.8,38.1,458.5,38.1,458.7,38.1z M462.1,38.7C462.3,38.6,461.5,39,462.1,38.7z M463.7,38.6c-0.5,0-1.3,0-1.5,0.2
	C462.7,38.9,463.2,38.7,463.7,38.6z M463.3,38.5C463.4,38.3,462.8,38.5,463.3,38.5z M466.7,38.4C466,38.2,466.1,38.8,466.7,38.4z
	 M339.3,0.6c-0.2,0-0.4,0-0.5,0L339.3,0.6z M340.2,0.7c-0.4,0.1,0.7,0.5,1.1,0.3C340.6,1,340.9,0.8,340.2,0.7z M467.7,38.3
	C467.7,38.3,467.5,38.3,467.7,38.3z M469,38.5c-0.2,0-0.5-0.2-0.7-0.1C468,38.4,468.6,38.7,469,38.5z M469.5,38.6
	C469.6,38.6,469.3,38.6,469.5,38.6z M471.3,39C471.5,38.8,470.8,39.1,471.3,39z M470.2,38.6c-0.2-0.1-0.3,0-0.5,0L470.2,38.6z
	 M470.9,38.6c-0.2-0.1-0.4-0.1-0.6,0L470.9,38.6z M471.3,38.6C471.3,38.6,471.1,38.6,471.3,38.6z M345.3,0.8c-0.3,0.1,0,0.1-0.4,0.2
	C345.1,1,345.8,0.9,345.3,0.8z M345.3,0.8C345.8,0.7,345,0.7,345.3,0.8z M473.7,38.5c-0.6-0.1-1,0-1.5,0.1c0.6,0,1.1,0,1.7,0.1
	C474.1,38.7,473.5,38.6,473.7,38.5z M474.8,38.5C474.9,38.5,474.7,38.5,474.8,38.5z M348.6,0.8C348.9,0.6,348.1,1,348.6,0.8z
	 M478.4,38.7C478.1,38.6,478.1,38.8,478.4,38.7z M478.4,38.7C478.5,38.9,479,38.7,478.4,38.7z M476.9,38.1
	C477,38.1,476.8,38.1,476.9,38.1z M470.1,35.9C470,35.9,470.2,35.9,470.1,35.9z M353.2,0.8c-0.2-0.1-0.3,0-0.4,0c0.1,0,0.1,0,0,0.1
	C353,0.9,353.1,0.8,353.2,0.8z M353.5,0.8C353.4,0.8,353.3,0.9,353.5,0.8z M353.5,0.8c0.2,0.1,0.4,0.1,0.5,0
	C353.9,0.8,353.7,0.8,353.5,0.8z M474.5,36C474.6,36,474.4,36,474.5,36z M358.1,0.5c-1.9-0.3-3.6-0.1-5.5-0.3
	c-0.7,0.2-1.4,0.1-2.1,0.2c-0.2-0.1-0.1-0.1-0.4-0.2c-1.2,0.1-2.5-0.2-3.6,0.1c-0.2,0-0.5-0.1-0.8-0.1c-0.9,0.2-2,0-2.9,0.2
	c-0.9,0-2.7-0.2-2.8,0.2c0.4,0,0.7-0.1,1-0.2c1,0.3,2.5,0.2,3.6,0.1c1.4,0.1,2.7,0,4.1-0.1c0.4,0.1,0.8,0.2,0.7,0.3
	c0.9-0.1,1.8,0.2,2.7,0.1C352.8,0.2,356.3,0.7,358.1,0.5L358.1,0.5z M478,35.8c0.1,0-0.1-0.1-0.3-0.1
	C477.6,35.7,477.8,35.8,478,35.8z M478.5,35.3c-0.3-0.1-0.6,0.1-1-0.1c-0.5,0.1,0.1,0.1-0.2,0.2C477.7,35.4,478.1,35.5,478.5,35.3z
	 M480.9,35.9c-0.7-0.2-1.3-0.1-2-0.1c-0.2,0.2,0.9,0.1,1.3,0.3C480.5,35.9,480.7,36,480.9,35.9L480.9,35.9z M480.8,35.5
	C481,35.3,480.3,35.6,480.8,35.5z M481.7,35.5L481.7,35.5z M459.1,28.7C459.2,28.7,459,28.7,459.1,28.7z M464.8,29.6
	c-0.2-0.1-0.4,0-0.6,0C464.5,29.8,464.8,29.7,464.8,29.6z M486.2,35.9c-0.5-0.1-1,0-1.5,0C485.2,36.2,486.1,36.1,486.2,35.9z
	 M462.7,28.8C462.9,28.7,462.2,28.9,462.7,28.8z M483.8,34.9c-0.2,0-0.5-0.1-0.7,0C483.3,34.9,483.6,35,483.8,34.9z M465.8,29.2
	c-0.5,0-1,0-1.5,0c0.1,0,0.1,0.1,0,0.1c0.5,0,1.2,0.2,1.7,0C465.7,29.3,465.7,29.3,465.8,29.2L465.8,29.2z M483.8,34.5
	c-0.4-0.1-0.4,0.1-0.6,0.2C483.6,34.7,483.9,34.6,483.8,34.5z M491,36.2c-0.9-0.1-1.2-0.2-2.1-0.3c-0.2,0.3-1.3,0.1-1.9,0
	c-0.3,0.3,1.1,0.3,1.6,0.3c0.2-0.1,0.4-0.1,0.6-0.2C489.8,36,490.5,36.4,491,36.2z M469.1,29.4c-0.4-0.1-1.2-0.1-1.2,0.1
	c-0.5-0.1-0.5-0.1-0.9-0.2C467,29.6,469,29.6,469.1,29.4z M470,29.6c0.1-0.1-0.7-0.2-0.9-0.1C469.5,29.6,469.7,29.4,470,29.6z
	 M449.1,22.4c-0.5-0.2-0.9-0.1-1.2,0C448.3,22.5,448.7,22.5,449.1,22.4z M484.3,32.1C484.1,32,484.2,32.3,484.3,32.1z M485.1,32.3
	C485.2,32.3,485,32.3,485.1,32.3z M212.5,2.2C212.3,2.1,212.6,2.2,212.5,2.2z M221.6,2.9c0.3-0.1,0.6-0.1,0.9-0.1
	C222.6,3,222,3,221.6,2.9z M223.1,2.9c0.2-0.1,0.5,0,0.7,0C223.5,2.9,223.3,3,223.1,2.9z M281.4,2.2C281.3,2.2,281.5,2.2,281.4,2.2z
	 M305.7,1.2c0.2-0.1,0.5-0.1,0.8,0C306.3,1.2,306,1.2,305.7,1.2z M311.8,1.4c0.9-0.1,1.9-0.1,2.9,0C314.2,1.6,312.8,1.6,311.8,1.4z
	 M314.8,1.4c0.4-0.2,0.9-0.1,1.4,0C315.8,1.5,315.4,1.6,314.8,1.4z M316.6,1.4C316.1,1.4,316.8,1.2,316.6,1.4z M317.2,1.4
	C317,1.4,317.1,1.3,317.2,1.4C317.5,1.2,317.5,1.5,317.2,1.4z M317.7,1.4c0.6-0.2,1.4-0.1,2-0.1C319.1,1.5,318.4,1.4,317.7,1.4z
	 M321,1.3C320.5,1.4,321.2,1.2,321,1.3z M322.5,1.3c-0.2,0-0.5,0.1-0.7,0l1.5,0C323,1.3,322.8,1.4,322.5,1.3z M321.5,0.2
	c-1.5,0.3-3.1,0-4.6,0.2c-0.8-0.9-1.5-0.2-2.7-0.4c0,0.1,0.6,0.1,0.6,0.2c-1.2,0.2-1.4-0.4-3.4-0.2c-0.4,0.1,0.5,0.1,0,0.2
	c-2.2,0-4.1,0.5-6.4,0l-1.4,0c-0.4,0.1-0.9,0-1.3,0.1c-2.2-0.2-4.2,0.1-6.4-0.1c-0.4,0-0.5,0.1-0.7,0.2c-1.6,0-3.2,0-4.8,0
	c-0.9,0.2-1.9,0.2-3,0c-0.2,0.3-1.2,0-1.9-0.1c-0.6,0.2-1.3,0-2,0.2c-0.6,0.1-1.9-0.3-2.1,0c1.2,0,2.6,0.3,3.7,0
	c1.7,0.2,3.2,0.3,4.9,0c0.5,0.1,1.1,0.2,1.6,0.2c0.1,0,0,0.1-0.2,0.1c1.1,0.5,2-0.1,2.2-0.1c1.5,0.4,2.6,0.7,4,0.5
	c-0.1,0-0.2-0.1-0.1-0.2c0.4-0.1,0.9,0,1.3,0c0.7-0.5,2.3-0.4,3.6-0.3c0,0.1-1.2,0-0.4,0.3c1.5-0.3,3.3,0.4,4.7-0.1
	c0.2,0,0.5,0.1,0.8,0.2c1.2-0.1,2.5-0.2,3.9,0c-0.7,0.4-2.4,0-3.4,0.4c-1.4-0.3-3-0.1-4.1-0.4c-1.4,0.5-3.2-0.2-4.6,0.2
	c-0.4-0.1-0.3-0.1-0.6-0.2c-1.4,0.5-2.6,0-4.2,0.4c-0.6-0.2-1.6,0-2.5-0.2c-0.5,0.3-1.4,0-1.3,0.3c-0.1,0-1.4-0.4-1.4-0.1
	c-0.6-0.1-1.4,0.1-1.7-0.2c-1.6,0.1-3.9,0.1-5.8,0.2c-0.4-0.1,0.7-0.3,0-0.3c-0.3,0-0.4,0.7-2.7,0.1c-0.7,0.4-2.1,0.2-3.3,0
	c-1.8,0.4-3.8-0.1-5.7,0.2l-7.2,0c-0.4-0.1-0.9-0.1-1.3-0.2c-0.4,0-0.7,0.2-1.1,0.2c-0.2,0-0.5-0.1-0.8-0.1l-7.3,0.1
	c-0.2,0-0.2-0.1-0.5-0.1c-3.9,0.3-8.1-0.3-11.9,0.2c-3.1-0.3-6.1-0.2-9.2-0.2c-0.3-0.1-0.6,0-1-0.2c-0.8,0.2-1.6,0.2-2.4,0.1
	c-6.1,0-12.3-0.1-18.4,0c-4.5-0.3-8.8,0.1-13.3-0.1l-2.5,0c-4,0.2-8.3,0-12.3,0.2c-0.2,0.1-0.5,0-0.8-0.1c-1.9,0.1-3.8,0.1-5.7,0
	c-0.6,0.3-1.7,0.2-2.3,0.2c-1.1,0-2.3,0.1-3.1,0.1c-0.4,0-0.8-0.1-1.1-0.1c-0.7,0-1.9,0.3-2.2,0.2c0.7,0.4,7.2-0.2,6.8,0.2
	c0.7,0,1.1,0,1.2-0.2c5.5,0,11,0,16.4-0.1l15.5,0.2c1.4-0.3,3.1,0,4.6,0c-0.8,0.2-2.6,0-3.7,0.2c1.6,0.1,3.2,0,4.9,0.2
	c-0.7,0.1-1.5,0-2.2,0.1c0.2,0.1,0.2,0.1,0.2,0.2c1.1,0.2,2.2,0.2,3.2,0.1c0.2,0.1,0.4,0.1,0.6,0.2c2-0.2,4.2,0,6.3-0.1
	c0,0,0.5,0.3,1.1,0.2C221,3,220.6,3,220.4,3c0.2-0.1,0.5,0,0.7-0.1c0.1,0.1-0.1,0.1,0,0.2c1.1,0,2.2,0.1,3.2,0
	c0.4-0.1-0.1,0-0.3-0.1c1.7-0.3,3.6,0.1,5.3-0.2l11.3,0c3.4,0,6.8,0.2,10.1-0.1c2.8,0.4,5.2-0.1,8,0.3c0.4-0.1,0.8-0.1,1.2-0.1
	c0.4,0,0.8,0.1,1.2,0.1c5.3-0.1,10.6,0.1,15.8,0c1,0,1.9,0.1,2.8,0c1.1,0.2,2.1,0.1,3.1,0c1.5,0.1,3,0.3,4.4,0l1,0.2
	c10.1,0,20.2,0,30.2-0.2c4,0.2,7.7-0.2,11.7,0c0.1,0,0.2-0.1,0.4-0.1c4,0.1,8,0,11.9-0.1c2.3,0.1,4.6,0,6.9,0c3.3,0.2,6.4,0,9.6-0.2
	c8.3,0,16.4-0.4,24.6-0.4c1.6-0.3,6.1-0.1,6.6-0.2c0.1,0,0-0.1,0.2-0.1c1.8,0.2,3.4-0.1,5.1,0c1-0.4,2.7-0.2,3.5-0.4
	c-2.3-0.1-4.7-0.5-6.8-0.2c-1-0.1-2-0.2-2.9,0c-5.2-0.3-10.3-0.1-15.4,0c-2.1-0.2-1.6-0.1-3.7,0c-3.2-0.2-6.1,0.2-9.2,0
	c-0.2,0-0.3,0.1-0.3,0.1c-0.5,0-1.1-0.1-1.7-0.2c-1.8,0.2-3.7,0.1-5.6,0.1c-1.1-0.2-2.1-0.2-3,0c-1,0-2-0.3-2.9,0
	c-0.4,0-0.9-0.1-1.3-0.2c-1.8,0.3-3.9,0.1-5.8,0.1c-0.6-0.2-1.2-0.4-1.8-0.4c-0.2-0.1,0.3-0.1,0-0.2c-2.6-0.7-13.4,0.1-15-0.6
	C323.2,0.2,322.3,0.3,321.5,0.2L321.5,0.2z M458.8,11.9C458.9,11.7,458.3,11.9,458.8,11.9z M459.8,11.8
	C460.1,11.7,459.4,12,459.8,11.8z M460.1,11.8C461.1,12.2,460.7,11.5,460.1,11.8z M463.6,11.7c-0.9-0.1-1.8,0-2.6,0.1
	C461.8,11.9,462.7,11.9,463.6,11.7z M464.5,11.7C464.2,11.5,463.6,12,464.5,11.7z M466.2,12.3C466.3,12.3,466.1,12.3,466.2,12.3z
	 M466.9,12.5C467,12.5,466.8,12.5,466.9,12.5z M468.3,12.4c-0.3-0.1-0.3,0.1-0.4,0.1C468.2,12.6,468.3,12.4,468.3,12.4z M468.5,11.7
	c-0.3-0.1-0.8,0-0.8,0.1C468,11.9,468.2,11.8,468.5,11.7z M469.1,11.7C468.5,11.6,468.6,11.9,469.1,11.7z M469.9,11.7
	c-0.3-0.1-0.5,0-0.7,0.1C469.5,11.8,469.7,11.8,469.9,11.7z M470.1,11.7c-0.1,0-0.1,0-0.2,0C470,11.7,470,11.7,470.1,11.7z
	 M470.1,11.7C470.5,11.9,470.4,11.6,470.1,11.7z M472.2,12.2C472.2,12.4,473,12.2,472.2,12.2z M471.5,11.7c0.1,0.2,0.8,0.2,1.1,0.1
	C472.6,11.6,471.9,11.6,471.5,11.7z M475.4,12.3L475.4,12.3z M476.6,12.3C477.3,12.2,475.8,12.1,476.6,12.3z M480.5,12.2
	c-0.2-0.1-0.3,0-0.5,0L480.5,12.2z M481.5,12.1c-0.2,0-0.4,0-0.5,0C481.2,12.2,481.3,12.2,481.5,12.1z M480.1,11.6
	C480,11.6,479.9,11.6,480.1,11.6z M480.1,11.6C480.2,11.6,480.3,11.6,480.1,11.6z M472.1,5.7c-0.2-0.1-0.4-0.1-0.6,0
	C471.7,5.8,471.9,5.8,472.1,5.7z M473.4,5.8C473.7,5.7,472.9,5.9,473.4,5.8z M473.2,5.7c-0.4-0.1-0.7-0.2-0.9,0
	C472.6,5.7,472.9,5.8,473.2,5.7z M484.5,7.7c-0.3,0-0.7,0-1,0.1C483.9,7.8,484.2,7.8,484.5,7.7z M484.5,7.7
	C484.9,7.8,484.9,7.5,484.5,7.7z M480.9,5.6c-0.2-0.1-0.4,0.1-0.6,0C480.2,5.7,480.8,5.7,480.9,5.6z M481.6,5.5
	c-0.1,0-0.3,0-0.4,0.1c0.2,0,0.3,0.1,0.2,0.1C482,5.7,481.5,5.5,481.6,5.5z M483.9,5.6c-0.4-0.1-0.8-0.1-1.2,0
	C483.1,5.6,483.5,5.7,483.9,5.6z M485.8,5.6c-0.3-0.2-0.4,0.1-0.6,0C485.1,5.7,485.7,5.7,485.8,5.6z M486.3,5.6L486.3,5.6z
	 M489.1,5.6c-0.2-0.1-0.4,0-0.6,0C488.7,5.7,488.9,5.7,489.1,5.6z M491.3,5.6C490.5,5.5,491.2,5.9,491.3,5.6z M83.9,45.2
	C83.8,45.2,84,45.2,83.9,45.2z M81.5,44.8c0.3-0.2,0.7-0.2,1.2-0.1C82.3,44.8,81.9,44.9,81.5,44.8z M83.5,45.1c0-0.1,0.6-0.2,1-0.1
	C84.2,45.1,83.9,45.2,83.5,45.1z M84.3,43.5c-0.5-0.2-0.1-0.3,0.4-0.2C84.4,43.4,84.6,43.4,84.3,43.5z M103.2,46.4
	C103.3,46.4,103,46.4,103.2,46.4C102.6,46.3,103.4,46.3,103.2,46.4z M110.2,46.7c-0.5-0.1,0-0.3,0.4-0.1
	C110.5,46.6,110.4,46.7,110.2,46.7z M112.1,46.7c-0.3,0-0.6-0.1-1-0.2c0.8-0.3,0.6,0,1.2,0C112.2,46.6,112.3,46.7,112.1,46.7z
	 M102.9,43.6C102.8,43.6,103,43.6,102.9,43.6z M113.6,46.6c-0.2,0-1-0.2-0.6-0.2c0.3,0,0.6,0.1,0.9,0.1
	C113.9,46.5,113.9,46.6,113.6,46.6z M128.8,44.1c-0.2-0.1-0.4-0.1-0.7-0.1C128.4,43.8,129.3,44,128.8,44.1z M139.4,44.4
	c0.2,0,0.3,0,0.5,0C140,44.5,139.7,44.6,139.4,44.4z M140.6,44.4C140.1,44.6,140.9,44.3,140.6,44.4z M140.7,44.2
	C140.2,44.3,140.9,44,140.7,44.2z M142,44.2c-0.1,0-0.2-0.1-0.3-0.1c0.2-0.1,0.4-0.1,0.6,0C142.2,44.1,142.3,44.2,142,44.2z
	 M138.7,42.4c-0.3-0.2-0.2-0.3-0.3-0.5c0.6,0.1,0.5,0.3,1.3,0.3C139.5,42.4,139.1,42.3,138.7,42.4z M151.4,44c0.2,0.1,0.4,0,0.7,0.1
	C151.9,44.3,151.2,44.1,151.4,44z M153.3,44.2c-0.8-0.1-0.1-0.2,0.2-0.3C153.9,44,153.6,44.1,153.3,44.2z M154.3,43.7
	c-0.5-0.1-0.3-0.2-0.1-0.3c0.3,0.1,0.2,0.1,0.7,0.2C154.7,43.7,154.5,43.6,154.3,43.7z M172.9,43.6c-0.5-0.1-0.5-0.1-1.1-0.2
	c0.4-0.1,0.8-0.1,1.2,0C172.8,43.4,173.3,43.5,172.9,43.6z M196.9,43.7c-0.5-0.2-1.3-0.2-0.7-0.4c0.3,0.2,0.9,0.2,1.4,0.2
	C197.1,43.5,197.2,43.6,196.9,43.7L196.9,43.7z M202.9,43.1C202.3,43.2,203.1,43,202.9,43.1z M211.4,45.5c0.3-0.1,0-0.1,0.1-0.2
	c0.4,0,0.3,0.1,0.8,0.2C212.1,45.6,211.8,45.5,211.4,45.5z M212.3,43.2c-0.1,0-0.1,0-0.2-0.1l0.4,0
	C212.4,43.2,212.3,43.2,212.3,43.2z M213,43.5c-0.9-0.3,0.1-0.5,1-0.2C213.9,43.5,213.4,43.5,213,43.5z M215.6,43.5
	c-1.2-0.3,0.4-0.2,0.7-0.1C216,43.4,215.8,43.5,215.6,43.5z M216.9,43.1C216.4,43.3,217.2,43,216.9,43.1z M218.1,43.3
	c0.1,0,0.3-0.1,0.5-0.1C218.6,43.3,218.3,43.4,218.1,43.3z M225.2,45.4c-0.6,0.2-0.2-0.1,0.6,0C225.6,45.4,225.5,45.5,225.2,45.4z
	 M224.6,43.4c-0.2,0.1-0.7,0.2-0.4,0.3c0.2-0.1,0.5,0.1,0.7,0c-0.1,0.1-0.7,0.3-0.9,0.4c-0.6-0.1-0.4-0.2-0.9-0.3
	c-0.8,0.2-1.7,0.1-2.6,0.1c-0.6-0.2,0-0.4-0.8-0.6C220.9,43.1,223.4,43,224.6,43.4C224.6,43.4,224.6,43.4,224.6,43.4
	c0.1-0.1,0.8-0.1,0.6,0C225,43.4,224.9,43.5,224.6,43.4L224.6,43.4z M226.4,43.4c0.3-0.1,0.8,0,1.1-0.2c0.6,0.2,1-0.1,1.6,0.1
	C228.1,43.3,227.3,43.5,226.4,43.4L226.4,43.4z M229.2,43.3l0.8,0C229.8,43.3,229.5,43.4,229.2,43.3z M238.7,45.4
	C238.8,45.4,238.6,45.4,238.7,45.4C238.6,45.3,238.8,45.3,238.7,45.4z M230.7,43.3c0.6-0.2,1.2-0.2,1.9,0
	C232.1,43.5,231.4,43.3,230.7,43.3z M248.1,45.3c0.2,0,0.2,0.1,0.2,0.1c-0.9,0.1-1.9-0.2-2.7,0C245.6,45.1,247.3,45.2,248.1,45.3z
	 M251.5,43.4C251.7,43.5,251.4,43.4,251.5,43.4C251.4,43.3,251.7,43.4,251.5,43.4z M251.6,43.5c0.2,0,0.3-0.2,0.6,0
	C252,43.6,251.8,43.6,251.6,43.5z M245.6,43.4c0.1,0,0.2,0,0.3,0c0.3,0.1,0.2,0.1,0,0.2C245.6,43.5,245.5,43.5,245.6,43.4
	c-2.1-0.4-3.9,0.2-6-0.1c-0.4,0-0.2,0.1-0.5,0.1c-0.9-0.1-1.7,0.2-2.6,0.1c-0.6-0.1-0.2-0.3-0.7-0.3c-0.6,0.4-1.7,0.2-2.2,0l2-0.1
	c0.5,0.1,0.9,0.2,1.4,0.1c-0.2-0.1,0-0.1,0.2-0.2c1.2,0.3,2.4,0,2.8-0.2c0.5,0.1,0.1,0.2,0.5,0.3c0.2-0.1,0.4-0.1,0.6-0.2
	c0.3,0.1,0.6,0.2,1,0c0.6,0.2,1.9,0.4,2.4,0c-0.1,0-0.1,0,0-0.1c-0.1-0.1,0.1,0,0,0c0.1,0,0.1,0,0,0.1c0.5,0.2,0.7,0.1,0.8,0
	c0.8,0.2,1.5,0.1,2.1-0.1c0.7,0.2,2,0.2,2.9,0c1,0.2,2,0.2,3,0.1c0.2,0,0.3-0.1,0.5-0.1c0.6-0.1,1.5,0.2,2-0.1c0.5,0,0.4,0,1,0.2
	c0.4,0,0.7-0.1,1.1-0.1c0.9,0.3,1.6,0.1,2.1-0.1c0.4,0.1,0.9,0.2,1.3,0.2c0.4-0.1,0.2-0.2,0.5-0.2c0.4,0.1,0.7,0.2,1.1,0.2
	c1.2-0.2,2.5,0,3.8,0.2c-0.1,0.3-1.3,0-1.8,0.2c-0.6-0.1-0.8-0.1-1.1-0.2c-0.9,0.2-1.7,0.4-2.7,0.1c-0.2-0.1,0.2-0.1,0-0.2
	c-0.4,0.1-0.9-0.1-1.2,0.1c1,0.4,1.7,0.6,0.4,0.6c-0.6-0.1-0.5-0.2-0.8-0.4c-0.9,0.1-1.7,0.1-2.6,0.3c-1.6-0.3-3.1-0.1-4.6,0
	c0-0.1,0.3-0.2,0-0.3c-1,0-1.4,0.4-2.6,0.3c-0.8-0.4-2.1-0.1-3.1-0.2c-0.3,0,0,0.1-0.3,0.2C246,43.3,245.6,43.3,245.6,43.4
	L245.6,43.4z M276.1,44.8l0.5-0.1C276.4,44.7,276.2,44.8,276.1,44.8z M277.9,44.4C277.7,44.4,278,44.4,277.9,44.4z M277,44.8
	c-0.2-0.3,1.2-0.4,2.1-0.2C278.8,44.9,277.7,44.9,277,44.8z M280.2,44.9c-0.3-0.1-0.7-0.2-0.5-0.3c1-0.1,1.7-0.3,2.6-0.1
	C282,44.9,280.6,44.7,280.2,44.9z M270.8,43.2C271.1,43.4,270.2,43.3,270.8,43.2c-0.2-0.1-0.4-0.1-0.6-0.2c-0.6,0.3-2.6-0.1-2.5-0.4
	c1.3,0.2,2.6,0.2,3.8,0.1c-0.3-0.1-0.3-0.3-0.1-0.4c0.9,0,1.9,0.4,2.6,0.5c0-0.2,0.6-0.3,1.2-0.2c-0.2,0.1-0.4,0.3-0.3,0.4
	c0.4-0.2,0.7-0.2,1.4-0.2c0.2-0.1-0.3-0.2,0-0.3c0.8,0,1.4,0.3,2.4,0.3c-0.2-0.3,1.5,0,0.9-0.4c-0.4,0-1.1-0.2-0.7-0.3
	c0.5,0.1,1,0.2,1.5,0.2c0,0.8,0.7,0,1,0c0.5,0.1,0.4,0.1,0.9,0.2c0.2,0,0.4-0.1,0.7-0.1c0,0.2,1.8,0.1-0.5,0.5
	c-1.1-0.1-2.2-0.1-3.1,0.1c-0.5,0,0-0.1-0.6-0.2c-0.7,0.3-2.4,0-3,0.4c-1.1-0.2-2.5-0.1-3.3-0.4C272.7,43.4,271.4,43.1,270.8,43.2
	L270.8,43.2z M291.3,44.1C291.2,44.1,291.4,44.1,291.3,44.1z M283.3,41.8C283.9,41.4,284,42,283.3,41.8z M284.9,41.8l0.3-0.1
	C285,41.7,285.1,41.7,284.9,41.8z M290.1,41.6c-0.7,0.2-0.5,0-1-0.1c-0.3,0.3-1.1-0.1-1.7,0.2c-0.8-0.3,1-0.3,1.5-0.3
	c0-0.1,0.1-0.4,0.9-0.1C289.6,41.4,289.9,41.5,290.1,41.6z M290.3,41.4C289.9,41.4,290.6,41.2,290.3,41.4z M316.1,42.4
	c-2.6-0.6-1-0.1-1.7-0.1c-0.4-0.1-0.2-0.1-0.6-0.2c-0.6,0.2-1.3-0.1-1.9,0c-1,0.4-3.1,0.2-4.5,0.2c-0.5,0.1-0.4,0.2-0.8,0.3
	c-0.9-0.4-2-0.1-3.1-0.3c-0.4,0.2-0.8,0.1-1.3,0.3c-0.8-0.1-0.2-0.2-0.2-0.3c-1.8,0-3.5,0.4-5.3,0.5c-0.2-0.1-0.1-0.1-0.4-0.2
	c-1.5,0.2-3.1-0.2-4.6,0.2c-0.4-0.1-0.2-0.2-0.4-0.2c-1.3,0.3-3-0.1-3.8,0.3c-1-0.2-1.8-0.2-2.8-0.3c1-0.2,1.5-0.3,2.5,0
	c0.3-0.3,0.9,0.1,1.2,0c0.4-0.1-0.2-0.2,0.3-0.3c0.7,0.2,1.3,0.1,1.9,0.1c0-0.1-0.2-0.2,0.1-0.2c0.5,0,0.5,0.1,0.9,0.1
	c1.6-0.1,3.4,0.1,5-0.1c-0.6-0.1,0.4-0.2,0.8-0.3c0.6,0.2,0.1,0.3,0.8,0.5c0.4-0.1,0.2-0.2,0.6-0.3c1-0.2,2.1,0.3,2.3,0.3
	c0.4-0.1,0.8,0,1.2,0c0.1-0.1-0.1-0.2,0.3-0.2c0.7,0.1,1.3,0.1,1.8,0c0.7,0.2,1.3,0,2,0.1c-0.1-0.1,0-0.1,0.1-0.2
	c1.2,0.1,2.4,0.1,3.5-0.1c0.5,0.2,1,0.1,1.7,0.2C313,41.6,317.1,41.8,316.1,42.4z M312.5,40.3C313.4,40.1,313.6,40.7,312.5,40.3z
	 M316.6,41C316.5,41,316.7,41,316.6,41z M321.2,41.9c-0.6,0.2-1.6,0.2-1.9,0c-0.2,0.2-1.3,0.4-1.4,0.1c-0.3,0.1-0.8,0.1-1.5-0.1
	c0.3-0.2,1.1-0.3,1.9-0.1c0.1-0.1-0.2-0.1,0.2-0.2c0.9,0.2,1.7-0.1,2.6,0.1C320.9,41.8,321.2,41.9,321.2,41.9L321.2,41.9z
	 M322.1,40.6c0.3,0,0.5,0,0.5,0.1c-0.3,0.1-0.2,0.3-0.5,0.4c-0.6-0.2-0.3-0.3-0.6-0.4c-0.2,0.1-0.4,0.1-0.7,0.2
	c-1.4-0.3-2.6,0.2-3.9,0.2c-0.6-0.3-1.6-0.4-1.9-0.6c-0.2,0.1-0.9,0.2-0.7,0.3c0.7,0.1,1.3,0,2,0.3c-0.1,0.1,0.3,0.2-0.1,0.2
	c-0.7,0-1.3-0.1-1.9,0c-0.4-0.1-0.6-0.2-0.8-0.3c-0.2,0.1-0.5,0.1-0.7,0.2c-0.5,0-1.3-0.1-1.5-0.2c-0.9,0.2-2.3,0.6-3.7,0.4
	c-0.3-0.1,0.1-0.2,0-0.3c-0.4,0-0.9-0.2-1.2,0c0.3,0.1,0.5,0,0.8,0.1c-0.1,0.2-0.9,0.2-1.4,0.4c-0.8-0.2-1.7-0.2-2.1,0
	c-1.8-0.1-4.1-0.2-5.4,0.2c-0.3,0-0.7-0.2-1.1-0.2c-0.8,0.2-1.7,0.1-2.6,0c-1.2,0.3-2.5,0-3.7,0.2c-0.6-0.6,0.7-0.3,0.8-0.3
	c0.4-0.1,0-0.2,0.6-0.3c2.1,0,0.3-0.2,1.2-0.3c1,0,2-0.1,3.1,0c1.1-0.3,2.3-0.3,3.6-0.1c-0.1,0.1-0.8,0.1-0.6,0.2
	c1.1-0.4,2.1,0.6,3.2,0.1c-0.5-0.1-0.3-0.2-0.7-0.3c0.2-0.3,0.9-0.3,1.4-0.4c1.6,0.3,3.3,0.2,4.1-0.2c0.3,0.1,0.2,0.1,0.4,0.2
	c0.8,0,1.4-0.1,1.7-0.2c0.3,0.1,0.1,0.2,0.4,0.3c0.7,0,1.3,0,2.1,0.1c0.2,0.1-0.8,0.1-0.3,0.2c0.8,0.1,1.6-0.1,2.3-0.1
	c0.3-0.1-0.4-0.2,0-0.2c1.6-0.1,3.2-0.2,4.8-0.1c0.5-0.1,1.8-0.2,1.8,0.1C320.9,40.1,322.7,40.4,322.1,40.6L322.1,40.6z M323.6,40.4
	c-0.4,0.2-0.7-0.2-0.1-0.1l1.5,0.1c0.2,0.4-1.2,0.4-2.1,0.3C322.8,40.6,324,40.7,323.6,40.4z M325.5,40.6c0.4-0.1,0.4-0.3,1-0.3
	c-0.2,0.1,0.3,0,0.5,0.1C326.7,40.6,326.5,41,325.5,40.6z M327.9,40.7C327.7,40.7,328,40.7,327.9,40.7z M334.6,42.7
	c-0.1,0-0.2-0.1-0.3-0.1l0.5,0C334.7,42.6,334.6,42.6,334.6,42.7z M332.1,40.5c-0.7,0.2-1.3-0.2-1.5-0.1c-0.1,0.1,0.3,0.2-0.1,0.2
	c-1,0.1-1.7-0.2-2.6-0.3c0.7-0.3,2.6-0.1,3-0.5C331.8,40.2,332.2,40.3,332.1,40.5z M335.9,41.2C335.4,41.3,336.2,41.1,335.9,41.2z
	 M333.7,40.4c0.3,0,0.7,0,1.1,0.1c-0.5,0.2-1.2,0.1-1.8,0.1c0-0.2-1.1-0.4-1.2-0.6c0.6-0.2,1.2-0.2,1.8-0.1
	C333.1,40,333.7,40.2,333.7,40.4L333.7,40.4z M336.3,40.5C336.2,40.5,336.4,40.5,336.3,40.5z M215.5,4.9c0-0.1,0.5-0.2,0.9-0.1
	C216.2,4.9,215.9,5.1,215.5,4.9z M335.7,40c-0.4,0.2-1.7-0.2-1.3-0.3C334.7,39.6,335.6,39.9,335.7,40z M218.6,5.1
	C218.3,5,218,5,217.4,5c0.2-0.3,1.3-0.1,1.9-0.1C219,5,218.3,5,218.6,5.1z M228.2,5.4c-0.4-0.1-0.1-0.2-0.6-0.3
	C228.2,5,228.5,5.3,228.2,5.4z M356.4,42.6C355.9,42.7,356.6,42.5,356.4,42.6z M350.7,40.4C350.6,40.4,350.8,40.4,350.7,40.4z
	 M348.6,39.5c-0.1,0-0.2-0.1-0.3-0.1l0.5,0C348.6,39.4,348.7,39.5,348.6,39.5z M377.5,41.5L377.5,41.5z M300.8,5.3
	C300.3,5.4,301.1,5.2,300.8,5.3z M236.5,4.4c-0.1-0.3,1.7,0,2.2-0.3c1.7,0.2,3.3-0.1,5.1,0.1l5.9-0.1c1.6,0.1,5.6,0.2,7-0.2
	c0.4-0.1,1.2,0.2,1.2,0c-2.7-0.5-5.1,0-7.8-0.2c-0.2,0.1-0.4,0.1-0.7,0.2c-0.3,0-0.6-0.1-1-0.1c-1.6,0.2-3.3-0.1-4.9,0.1
	c-0.4,0-0.8-0.1-1.2-0.1c-1.1,0.3-2.5-0.1-3.6,0.2c-0.4,0-0.9-0.1-1.3-0.1L227.8,4c-2.6-0.1-5.1,0-7.6,0.2c-1-0.1-1.9,0-2.8,0.1
	c-0.4,0-0.8-0.1-1.2-0.1c-0.1,0-0.3,0.1-0.4,0.1c-2.3-0.2-4.4,0.3-6.8,0c-0.4,0.1-0.7,0.1-1.1,0.1c-3.6-0.1-7.2,0.1-10.8,0.2
	c-2.2,0.1-4.5,0-6.7,0.3c-2.7-0.3-5.1,0.2-7.8,0c-0.2,0.1-0.1,0.2-0.6,0.2c-2.1-0.4-5.1-0.8-7.4-0.7c-0.3-0.1-0.5-0.1-0.8-0.2
	c-1.7,0.1-3.5-0.3-5.1,0c-0.9-0.3-2.4-0.3-3.5-0.4c-0.2-0.1,0.7-0.1,0.5-0.2l-2.7-0.3c-0.2,0.1-0.2,0.1-0.1,0.2l-1.6,0.1
	c4.1,0.3,2.2,0,2.5-0.1c0.5-0.3,0.8,0.3,1.1,0.3c-2.3,0.3-4.8-0.1-7.1,0.1c-0.3,0-0.6,0-1-0.1c-0.5,0.1-0.3,0.2-0.8,0.3
	c-1.8-0.4-3.4,0-5.1-0.2c-0.3,0.1,0.1,0.2-0.1,0.2c-1.9,0.2-4.1-0.2-5.9,0.4c0.5,0.2,0.5,0.2,1,0.2c-0.5,0.2-2.5,0.1-2.9,0.5
	c0.6,0.2,1.2,0.2,1.7,0.3c-0.3,0.3-4.2,0.6-4.6,0.2l-2.2,0.1c-8.9,0.4-18,0.4-27,0.7c-4.8,0.1-9.6,0.1-14.3,0.2
	C93,6.8,89,6.8,85.1,7c-1.3-0.1-3.4,0-5,0.1l-1.9,0c-5.9,0.1-11.8,0.3-17.7,0.2c-0.3,0.1-0.6,0.2-0.8,0.3c2.5,0.3,1.6,0.8,3,1.4
	c-0.2,0-0.3,0.1-0.3,0.1c-1.1,0.2-2.3,0-3.4,0.1c-1.5-0.3-2.7-0.2-3.6,0.1c-1.1,0.4,0.7,0.1-2.2,0.7c-1,0.2-2.8,0.2-3.2,0.6
	c0.3,0,0.7,0.2,0.8,0.3c-2.4,0.3-8.6,0.8-5.6,2C45,13.1,45,13.2,45,13.3c2,0.7,3.9,0.9,5.7,0.9c0.8,0.4,1.8,0.4,2.7,0.3
	c0.4,0.2,0.8,0.1,1.2,0.2c0,0,1.1-0.3,1.4,0.1c-0.9,0.2-1.9,0.3-2.9,0.1c-1.1,0.4,3.1,1.1,2.6,1.5c-0.3,0.2-0.8,0.1-1.1,0.3
	c0.6,0.2,0.2,0.4,0.9,0.7c-1.3,0.5-4,0.6-4.1,1.2c-1.9,0.1-3,0.8-4.2,1.1c1.5,0.4,4.2,0.5,5.5,0.2c2.4,0.4,7.7-0.5,8.6,0.6
	c-0.5,0.1-1-0.1-1.6-0.1c-0.2,0.1-0.4,0.1-0.6,0.2c-4.1,0.1-8.2,0.4-12.2,0.8c1.3,0.3,2.5-0.2,2.8,0.2c-2.1,0.2-5,0.3-6.5,0.7
	c-0.7,0.2-2.1,0.2-3.2,0.3c-1.7,0.3-2.4,0.5-3.9,0.8c0.2,0,0.3,0.1,0.5,0.1c-1.6,0.6-4,0.5-6,0.8c0.6,0.4,2.4,0.6,3.2,0.9
	c-1.6,0.2-3.3,0.2-4.8,0.5l1.8,0.1c3.3,0.1,5.6-0.5,8.8-0.5c0.2,0.1,0.8,0.3,0.7,0.4c-3.3,0.3-6.9,0.5-9.6,1.5
	c-0.7,0.1-1.3-0.4-2.4,0.4c0.2,0.2,0.8,0.2,1.3,0.3c0.1,0.2-0.8,0.2-1.1,0.3c0.2,0.2,0.5,0.2,0.7,0.3c-1.4,0.3-2.9,0.4-4.3,0.7
	c0,0.3-1,0.4-1.7,0.4c-0.4,0-0.2-0.1-0.6-0.1c-0.6,0.1-0.6,0.3-1.1,0.4c0.4,0.2,0.6,0,1,0.1c0,0.2-1.1,0.1-1.5,0.3
	c0.3,0.7-3.7,0.9-4.4,1.5c3.2,0.6-1.4,0.8-1,1.3c-3.7,0-2.8,1.7-6.3,2c-0.8,0.8-3.1,1.6-3.1,2.5c-1.5,0.2-1.9,0.6-3,0.8
	c0.1,0.1,0.3,0.3,0.7,0.5c-1.8,0.7-0.3,1.5-1.9,2.3c1.7,0.4-0.9,0.7-0.5,1.1c-1.8,0.4-0.6,0.9-1.2,1.3c0.4,0.2,0.4,0.3,0.7,0.5
	c-0.7,0.3-0.8,0.6,0,0.9c-1,0.4,1.3,0.9,1.2,1.4c1.6,0.4,2.8,0,4.4,0.2c0.3-0.1,0.3-0.2,0.7-0.3c0.6,0.1,1.1,0,1.7,0.1
	C9,46.2,9.3,46.1,9.5,46c1.2,0.1,2.3-0.4,3.5-0.4c1.3-0.5,3.8-0.9,6-1.1c0.3,0,0.6,0.1,1,0.1c3-0.3,6.5-0.7,9.1-1.1
	c0.7-0.1,1.5,0,2.1-0.3c1.7,0,2.7-0.3,4.1-0.5l5.3-0.4c0.4,0,0.6-0.2,1-0.2c1.8-0.2,3.9-0.3,5.6-0.4c1.8,0,3.3-0.4,4.8-0.5
	c1.1,0.2,2-0.2,3.1,0c0.4-0.1,0.1-0.2,0.6-0.2c0.8,0.6-1.8,0.7-2.5,1.1c1-0.1,2.4-0.1,2.4-0.5c0.6,0,1.4-0.1,1.7,0.2
	c1.1-0.2,2.3-0.2,3.5-0.3c0.1,0.1,0.1,0.1,0.3,0.2c1.6-0.3,3.3-0.2,4.9-0.3c-1.4,0.7-4.9,0.2-7,0.9c1.3,0,2.1-0.2,3.2-0.3l3.4-0.1
	l7.8-0.5c0.7-0.1,1.6,0,2-0.1c0.2,0,0.3-0.1,0.5-0.1c0.9-0.1,1.8,0,2.6,0c1.7-0.1,3.4-0.2,5-0.3c0.3,0,0.6,0.1,0.9,0.1
	c2-0.4,0.9-0.1,1.5,0c3.8-0.3,7.6-0.5,11.4-0.6c0.2,0,0.3-0.1,0.5-0.1c0.2,0,0.4,0.1,0.7,0.1l4.7,0c1-0.4,2.7-0.1,3.3-0.4
	c3,0.2,5.7-0.2,8.7,0c-3.2,0.6-7.6,0.4-11.4,0.6c-0.4,0.1-0.6,0.1-0.8,0.2c-1.2-0.2-2.4-0.2-3.5,0c-1.4-0.2-2.2,0.1-3.4,0.2L101,41
	c1.5,0.2,2.3-0.1,3.7-0.2l2.7,0.1l11.3-0.1c0.1,0,0.2-0.1,0.4-0.1c2.2,0.4,4.2-0.2,6.4,0.1c0.8-0.3,1.7-0.3,2.6,0
	c0.7-0.1,1.4-0.2,2.2,0c1.2-0.2,2.4-0.2,3.7,0.2c0.5-0.1-0.2-0.3,0.5-0.3c0.3,0.1,0.5,0.2,0.5,0.3c0.7,0.1,1.2-0.2,1.9,0
	c0,0.2-1.9,0.3-2.3,0.1c-0.2,0.1-0.5,0.1-0.8,0.2c0.4,0,0.4,0.1,0.3,0.2c3.7,0.2,7.2,0,10.8,0c-1,0.3-3,0-4.3,0.3
	c-1.1-0.2-2.2-0.1-3.2,0.1c-0.9-0.1-2.4-0.1-3.5,0.1c-0.2-0.1-0.4-0.1-0.6-0.2c-7.3,0.2-14.7,0.4-22.1,0.4c-0.2,0.1-0.4,0.1-0.6,0.2
	c-1.5,0-3,0.1-4.5,0c-0.2,0.1-0.4,0.1-0.6,0.2c-1.1,0-2.4-0.1-3.4,0.1c-1.3-0.2-2.5,0.3-3.2,0.1c-1.2,0.1-2.5,0-3.7,0.2
	c-0.3-0.1-0.7-0.1-1.3-0.2c-0.6,0.3-1.4,0.2-2.2,0.3c-0.2-0.1-0.5-0.1-0.7-0.2c-3,0.4-6.2,0.3-9.2,0.5c-0.3,0.1-0.1,0.1-0.2,0.2
	c-1.8-0.1-4.2,0-5.3,0.2c-0.4,0.1-0.4-0.1-0.8-0.1c-1.2,0.4-2.7-0.1-3.8,0.5c0.6,0,1.2-0.1,1.8,0c0.1,0.2,0.9,0.3,1.5,0.3
	c0.5-0.2,0.9-0.5,1.7-0.4c0.4,0.1-0.4,0.1-0.3,0.2c0.6,0.2,1.1-0.1,1.7,0c0.4-0.1,0-0.3,0.6-0.3c0.2,0,0.1,0.3,0.8,0.2
	c0.4-0.1-0.2-0.1-0.4-0.2c0.2-0.1,0.4-0.1,0.7-0.1c0.5,0.2,1.3,0.2,2.2,0.2c0.4-0.1-0.2-0.2,0-0.3c0.4-0.1,0.9,0,1.3,0
	c-0.2,0-0.4,0.1-0.6,0.2c0.6,0.5,2.7,0,3.6,0.3c0.2-0.1,0.3-0.3,1-0.2c0.2-0.5,1.2-0.2,0.5-0.1c0.9,0.1,1.6,0.1,2.1-0.2
	c0.2,0,0.2,0.2,0.7,0.1c0.3,0.1,0.2,0.1,0.4,0.2c-1.3,0.3-2.6-0.1-3.6,0.3c-0.4,0-0.3-0.1-0.6-0.2c-0.7,0.1-1.5,0.3-2.3,0.1
	c-0.6,0.2-1.2,0.3-1.9,0.2c-0.5,0.1,0,0.2-0.3,0.2c-0.5,0-0.5-0.2-1.1-0.3c-1.4,0.2-2.8,0.1-4.2,0.4c-0.4,0.1-0.1-0.2-1.6,0.1
	c-2.2-0.1-4.1,0.4-6.3,0.4c-0.6,0.1,0,0.2-0.6,0.3c0.9,0.2,2.4-0.3,3.7-0.1c0.8-0.2,1.6-0.2,2.5-0.1c0.2-0.1,0.3-0.1,0.3-0.2
	c0.4,0,0.5,0,0.7,0c1.2-0.3,3.3,0,4.9-0.2c-0.2,0.1-1.3,0.5-1.8,0.3c-0.5,0.1-0.1,0.2-0.1,0.2c-0.4,0.2-0.9,0.1-1.3,0.1
	c-0.3-0.1,0.3-0.1-0.2-0.2c-1-0.2-3.6-0.1-4.3,0.4c-0.3,0.1-0.7-0.1-1-0.1c-1,0.3-2.9,0.2-4.4,0.1c-0.4,0.2-1,0.3-1.6,0.1
	c-0.5,0.1-1.1,0.1-1.3,0.3c-1.3-0.2-2.4,0-3.6,0.1c0.6,0.1,1.1-0.1,1.6,0c-0.6,0.3-2.1,0.2-3,0.4l11.6-0.7c0.3,0,0.6,0,0.9,0.1
	c0.4-0.1,0.9-0.1,1.2-0.2c0.8,0.2,2.6-0.2,3.4,0c1.2-0.1,2.9,0,3.6-0.4c0.9,0.3,1.6-0.2,2.6,0.1c1.5-0.4,3,0.1,4.6-0.4
	c0.2-0.1,0.6,0.1,0.8,0.1c0.4-0.2,0.7-0.3,1.3-0.4c0.5,0.2,0.7,0.4,0.5,0.6c0.4,0,0.8-0.2,1.2-0.1c-0.3-0.4,1.1-0.2,1.8-0.5
	c0.1,0.2,1.5,0.1,1.3,0.3c2.9,0.1,5.8,0.1,8.6-0.2c0.1-0.2-1.8-0.9,1.6-0.4c0.5,0.1-0.5,0.5,1.4,0.3c-0.1,0-0.1,0,0-0.1
	c0.5-0.1-0.6-0.1-0.5-0.3c0.7-0.1,0.9,0.1,1.6,0.2c0.3,0,0.6,0,0.9-0.1c1.3,0.5,3.2,0,4.9,0.1c0.5-0.1,0.1-0.2,0.4-0.3
	c0.3,0,0.6,0.2,0.9,0.2c0.2-0.2,0.5-0.4,1.3-0.1c0.4,0,3.2-0.4,4.1-0.2c0.4,0.1-0.4,0.2-0.7,0.3c0.4,0,0.9,0,1.3-0.1
	c-0.2-0.1-0.2-0.2-0.3-0.2c1.1,0.1,2.2-0.4,3.6-0.3c0.8-0.1,2.1-0.2,2.7-0.1c0.3-0.2,0.7-0.1,1.1-0.1c-0.7,0.1-1.3,0.3-2,0.1
	c-0.1,0.1,0.5,0.3-0.4,0.4c0.6,0.1,1-0.3,1.7,0c0.2-0.1-0.7-0.5,1.4,0c0.9-0.1,1.8,0,2.6-0.1c-0.4-0.1-0.8-0.1-0.3-0.2
	c-0.4-0.1-0.7,0-1.2-0.2c-0.1-0.3,0.8-0.4,1.6-0.2c0.6-0.2,1.2-0.1,1.9,0c0.6-0.4,2.2,0.1,3.1-0.2c0.6,0.2-0.1,0.2,0.1,0.4
	c0.6,0.1,1,0,1.6,0.1c0.3-0.2-2-0.3-0.2-0.4c0.6,0.2,0.6,0.2,1.3,0.4c-0.5,0-0.2,0.1-0.5,0.2c-0.4,0.1-2.8,0.3-3.5,0l-0.9-0.1
	c0,0.1,0.8,0,0.8,0.2c-0.8,0.2-1.7,0.1-2.5,0.1c-0.2-0.1,0.2-0.1,0-0.2c-0.4-0.1-0.7-0.1-1,0c0.1,0.1,0.1,0,0.4,0.1
	c-4,0.3-8.2,0.1-12.2,0.6c-2-0.3-3.8,0.4-5.8,0c-1.6,0.2-2.4,0.6-3.8,0.8c-0.4-0.1-0.2-0.1-0.5-0.2c-1.5,0-3,0.3-4.6,0
	c-0.1,0-0.3,0.1-0.2,0.1c-1.3-0.2-2.5,0.2-3.8-0.1c0,0.1,0.7,0.4,0.9,0.7c1,0.2,2.3-0.1,3,0.2c0.5-0.2,1.1-0.2,1.9-0.2
	c0,0.1-0.9,0.4-1,0.2c-0.6,0.1,0.2,0.3,0.7,0.4c0.2-0.1,0.3-0.2,0.5-0.4c0.4,0,0.5,0.3,1.1,0.4c0.5-0.3,1.2-0.2,1.6,0
	c0.5-0.1,1.1-0.2,1.7,0c0.5-0.3,1.8,0,2-0.2c2.9,0.2,6.5,0.1,9.6-0.1c0.1,0.1,0.1,0.1,0.3,0.2c1.1-0.3,2.8,0,4.2-0.1
	c0.7,0,1.2-0.2,2-0.2c1,0,2.2,0.2,3.3,0.2c0.9,0,1.2-0.2,2-0.2c2.3,0.2,4.6,0,6.8,0c-0.6-0.1-1,0-1.6-0.1c0.2,0,0.3-0.1,0.5-0.1
	c1,0.2,2.1-0.3,2.8,0.2c0.6,0,0.6,0,1-0.2c1.3,0.4,3.2,0.3,4.1,0.1c-0.3-0.1-0.6-0.1-1-0.2c0.2-0.3,0.9-0.1,1.5,0
	c0.4-0.1,0.3-0.2,0.9-0.2c-0.1,0.2,0.3,0.1,0.9,0.3c0.2-0.1,0-0.3-0.4-0.3c1.3-0.2,0.9,0.1,1.3,0.3c1.5,0.1,2.9,0,4.4,0
	c-0.1-0.1-0.3-0.2-0.3-0.2c0.6-0.1,1.2,0.1,1.5,0.2c0.3-0.1,0-0.1,0.2-0.2c1,0.1,2.1,0.1,3.2,0.3c1.8-0.1,3.7-0.3,5.5-0.2
	c0.4,0.1,1.5,0.1,2.1-0.1l1.3,0.1c0.3,0,0.3-0.1,0.3-0.2c0.3,0,1.9,0.4,2.5-0.1c0.6,0.1,0.1,0.3,1,0.4c0.8-0.1,0.1-0.3,0.5-0.4
	c0.5,0,1.2,0.2,1.7,0.4c1.3-0.2,2.8,0.1,4.2-0.1c0.4-0.1-0.3-0.2-0.3-0.3l1.9,0.1c-0.1,0-0.2,0-0.3,0.1c3,0.1,5.9-0.2,9,0
	c0.1,0,0.2-0.1,0.4-0.1c1.5,0.1,4.2,0.3,4.5-0.4c0.2-0.1,0.5,0,0.8,0c0.2,0.1-0.2,0.2-0.2,0.3c0.6,0,0.7-0.1,0.9-0.3
	c1.2,0.5,3.2,0.3,4.8,0.2c0.4,0.1,0.2,0.1,0.7,0.2c1.4-0.3,2.9-0.2,4.4,0c0.6-0.4,3.5-0.6,3.7-0.1c0.4,0,0.7,0,1.1-0.1
	c1.1,0.3,2.5,0.1,3.7,0.2c-1.1-0.2-1.9-0.2-0.7-0.5c0.4,0,0.9,0.1,1.3,0.2c0.3,0,0.6-0.1,1-0.2c0.7,0.1-0.4,0.2,0,0.4
	c0.8-0.4,3.3-0.5,4.6-0.2c0-0.2,0.7-0.2,1.1-0.1c-0.2,0.1-1.2,0.3-1.9,0.3c0.9,0.3,2.4-0.1,3.7,0.3c2-0.1,4.2,0.2,6.1-0.1
	c2.2,0.2,4.2,0,6.4,0c0.8-0.2,1.8-0.1,2.8,0c1-0.1,1.9-0.3,3-0.1c1-0.5,2.3,0,3.7,0.2c0.5-0.3,1.7-0.1,2.3,0
	c0.9-0.1,1.5-0.2,1.5-0.5c1.5-0.1,3.2,0.4,4.7,0.3c-0.3,0-0.6-0.3-1.1-0.2c1.2-0.2,2.8-0.3,3.8,0c0.6,0,0.2-0.2,0.4-0.4
	c1.1-0.1,2.8,0.1,3.4-0.1c1.2,0.1,2.4,0.2,3.5,0c0.3,0,0.4,0.2,0.9,0.1c0.1,0,0.3,0,0.4,0l-2.6,0.3c0.6,0.2,0.9,0,1.3,0.2
	c0.5-0.4,1.6-0.2,2.5-0.3c0.4-0.1-0.6-0.1-0.6-0.3c2-0.2,4.2,0,6.2-0.2c0.8,0.1,1.7,0.3,2.4,0.2c0.3,0.2,0.8,0.2,1.6,0.4
	c0.7-0.3,2,0,2.5-0.1c0.4,0,0.1,0.2,0.2,0.3c0.9,0.2,1.6-0.2,2.5-0.1c0.2,0.1,0.7,0.5,1.3,0.3c0.5-0.2-0.7,0-0.6-0.2
	c0.4-0.3,2,0.1,2.1,0.1c0.6-0.6,2.9-0.1,4.2-0.5c0.4,0.1,0.3,0,0.6,0.2c0.6-0.1,1.3-0.1,2-0.2c0.9,0.3,1.2,0.4,2.1,0.6
	c0.3-0.1-0.4-0.2,0-0.3c2,0.3,3.8,0.3,5.7,0.1c0.4-0.1-0.1-0.1,0.2-0.2c0.3,0,1.2,0,1.3,0.2c0.4,0,0.8-0.1,1.2-0.2
	c-0.2-0.2-1.3,0.1-1.5-0.2c-1.6,0-3-0.3-4.6,0c-0.6-0.1-1.1-0.1-1.7-0.1c-0.2,0.1-0.4,0.1-0.7,0.2c-0.3,0-0.7-0.1-1.1-0.2l-9.5,0.1
	c0.9-0.3,2.5,0,3-0.4c0.3-0.1,0.7,0.1,1.1,0.1c0.7-0.2,1.8,0,2.2-0.2c0.8,0.1,1.6,0.2,2.4,0c2.2,0.3,4.2-0.1,6.4,0.1
	c0.7-0.3,1.5-0.3,2.3-0.1c0.8-0.3,1.7-0.3,2.9-0.2c0.2-0.1,0.4-0.1,0.4-0.2c1.5,0.3,3.7-0.3,5.3,0.2c1.1-0.3,2.4,0,3.6-0.3
	c1.2,0.1,2.4,0.1,3.6,0c0.3,0,0.7,0.1,1.1,0.1c3.7-0.4,7.6,0,11.2-0.4c0.6,0,1.2,0.1,1.7,0c0.2,0,0.5,0.1,0.7,0.1
	c0.3-0.3,1.4,0,2-0.2c2.3,0,4.6,0.1,6.8-0.1l1.2,0c2.9,0,5.8-0.2,8.7-0.3c0.5,0,5,0.1,4.9-0.2c0.5,0.2,2.2,0.2,2.2-0.1
	c0.5,0.2,1.4,0.1,1.9,0.3c-0.2-0.3,1.4,0,1.2-0.4c0.4,0,0.8,0.1,1.2,0.2c1.2-0.1,3.5,0.1,4-0.3c0.9,0,1.8,0,2.8,0.2
	c1.1-0.1,2.3-0.3,3.5-0.2c0.4-0.1,0.1-0.1,0.4-0.2c0.8,0,1.6,0,2.4,0.2c1-0.3,2.8,0,3.5-0.4c3.9,0.4,7.5-0.2,11.3,0
	c0.3,0,0.3-0.1,0.4-0.2c0.4-0.1,0.3,0.1,0.6,0.1c-0.1-0.3,4.1-0.2,4.8-0.1c0.1-0.4,1.9-0.3,2.2,0c0.6,0.1,0.2-0.1,0.5-0.2
	c0.9,0,1.8,0.1,2.6,0c0.4,0.1,0.3,0.1,0.6,0.2c0.5,0,0.1-0.4,1.1-0.4c0.3,0.1,0.1,0.1,0.2,0.2c1.2-0.2,3-0.2,4.5-0.3
	c0.3,0.1,0.5,0.1,0.8,0.2c0.4-0.1,0.5-0.3,1.1-0.1c0.8-0.4,4.1,0.1,4.5-0.3c-0.5-0.1-1.3-0.3-1.9-0.2c-0.4-0.1,0.4-0.2,0.3-0.3
	c-0.6,0-1.2,0.1-1.9-0.2c-0.1,0.2-0.3,0.3-0.9,0.4c0.3,0.1,0.4,0.1,0.5,0.2c-1.4,0.1-2.8-0.1-4.3-0.3c-0.6,0.3-1.7,0.1-1.6,0
	l-2.4,0.2c-1.4,0.1-2.5-0.2-3.6,0.1c-0.8-0.1-1.5-0.1-1.9-0.4c-0.6,0.1,0.1,0.3,0,0.4c-0.6,0.1-2.1,0.2-3.2,0
	c-0.3,0,0.1,0.1,0.1,0.2c-0.6,0.1-2.2-0.4-2.2,0.1c-0.4,0.1-0.9,0-1.3,0.1c-0.1-0.2-0.5-0.1-0.7-0.3c-0.4,0.1-0.4,0.2-0.5,0.2
	c-2-0.2-4.4-0.2-5.9,0.1c-0.4-0.1-1.3-0.1-1.4-0.2c-0.5,0-0.9,0.2-1.2,0.2c-0.1-0.1-0.4-0.2-0.2-0.3c-0.4-0.1-1,0-0.7-0.2
	c-0.4-0.1-0.5,0.1-0.7,0.2c-0.3,0.1-0.7-0.1-1-0.1c-0.4,0.1,0.5,0.1,0.7,0.3c0.2,0.1-0.3,0.2-0.6,0.3c-0.7-0.2-0.8-0.1-1.6-0.2
	c-0.7,0.2-2.3,0.3-3.5,0.1c-0.3,0-0.3,0.1-0.3,0.2c-0.5-0.1-0.7-0.1-1.3-0.2c-1.1,0.3-2.4,0.1-3.5,0.4c-0.3,0-0.7-0.1-1-0.2
	c-0.6,0.1-1.3,0-1.9,0c-0.4-0.1,0.1-0.2-0.4-0.3c-0.1,0.1-0.7,0.3-0.8,0.5c-0.8-0.2-2.3-0.4-2.7-0.7c-1,0.2,0.5,0.3,1.3,0.5
	c0.2,0.1-0.2,0.1-0.1,0.2c-0.4,0.1-0.9-0.1-1.3,0.1c-1.9-0.6-3.4,0.2-5.1-0.4c-0.1,0.1-0.3,0.1-0.2,0.2c-0.4,0.1-1.1-0.3-1.5,0
	c-1-0.2-1.8-0.7-2.8-0.5c0.1,0,0.3,0.1,0.2,0.1c0.4,0.1,0.8,0.1,1.3,0.2c-0.4,0.4-2.7,0.1-3.8,0.1c-0.2,0.1,0.2,0.3-0.4,0.3
	c-0.8-0.1-1.6-0.3-2.8-0.5c-0.5,0.1-0.5,0.2-0.2,0.4c0.5-0.1,0.9-0.1,1.5,0c0.3,0.2-0.6,0.2-0.9,0.3c-0.8,0,0.2-0.4-1.8-0.3
	c-0.4-0.1-0.2-0.1-0.5-0.2c-0.6-0.1-1.1,0.1-1.8-0.1c-0.4,0.1,0.6,0.2,0.3,0.3c-0.7,0.1-1.1,0-1.7-0.2c-0.7,0.4-1.3-0.3-2.2-0.3
	c-0.5,0,0.7,0.7-2.4,0c-0.2,0.2-0.6,0.1-1,0.2c0.4,0.1,1.3,0.2,1.5,0.4c-0.8,0.2-3.2,0-3-0.5c-0.4-0.1-0.7-0.2-1.1-0.1
	c0.1,0.2,0.5,0.2,0.9,0.4c-1.8,0.2-3.6-0.6-5.5-0.2c-1.4-0.2-2.6,0.1-3.9,0c-0.1,0,0-0.1-0.1-0.2c0.1,0,3.1,0.1,2-0.3
	c0.5-0.1,1,0,1.6,0.1c1.6,0,3.2-0.1,5,0.1c0.1-0.2,0.5-0.1,0.8-0.2c1.8,0.2,2.9-0.3,4.8,0.1c0.3,0,0-0.1,0.1-0.2
	c2.1-0.4,5.7,0.6,6,0.4c0.3-0.4-1.5-0.4-1.9-0.6c-0.1-0.4,1.4-0.4,2.3,0c0.8-0.1,1.6-0.2,2.6,0c0.5-0.1,0-0.2,0.3-0.2
	c1.3,0.3,2.4-0.1,3.6,0.2c0.5-0.1,0.3-0.3,0.7-0.4c0.6,0.1,0,0.2,0.4,0.3c0.2,0,0.5,0,0.7,0c0.5-0.1,1.3-0.3,2.2-0.2
	c1.2-0.6,2.9,0.2,4.2-0.1c-0.3-0.1-0.2-0.2-0.3-0.2c-0.3-0.1-0.5,0-0.9-0.1c-0.3-0.2,0.9-0.2,0.3-0.4c-0.1,0.2-0.7,0.2-1.1,0.3
	c0.4,0,0.5,0.1,0.4,0.2c-0.7,0.1-2.1-0.1-2.4,0.2c-1.4,0.1-2.2-0.7-3.3-0.4c0.3,0.1,0.8,0.1,0.8,0.2c-0.5,0.1-1.1,0.1-1.6,0
	c0.4-0.2-1.3-0.4-0.7-0.7c-0.5,0-1,0-1.6-0.1c-0.4,0.2,0.5,0.1,0.8,0.2c0.3,0.3,1,0.7,1.7,0.7c0.2,0.1,0.1,0.1-0.1,0.2
	c-1.1-0.1-2.3-0.4-3.3-0.2c-0.2-0.2-0.5-0.1-0.9-0.3c-0.9,0.5-1.8,0.1-3.2,0.2c-0.4,0.1,0.3,0.2,0,0.3c-0.7,0.1-0.3-0.6-2.1-0.1
	c-0.9,0-2.2-0.2-2.9-0.4c0.3-0.2-0.1-0.4-0.5-0.5c0.3-0.1,1.8-0.3,1.9,0.1c0.4,0,0.5-0.1,1.1-0.1c0.2-0.1-0.2-0.2,0.1-0.2
	c0.8,0,0.7,0.5,1.4,0.5c0.2-0.3-1.6-0.7-0.2-0.8c1.4,0.1,2.8,0,4.2,0c0.2,0-0.1,0.1,0,0.1c0.5,0.1,0.9,0,1.5,0.1
	c1.2-0.3,2.4,0.1,3.2,0.3c0.5-0.1-0.4-0.2-0.4-0.3c0.3-0.1,0.1-0.4,0.7-0.4c1.1,0.2,2.2,0.1,3.2,0.1c0.1-0.4,1.9,0,2.3-0.4
	c0.1,0.1,0.7,0.2,0.5,0.3c0.9-0.1,1.8,0.1,2.6-0.2c1.1,0.2,2,0.2,3,0.1c0.3,0.1-0.5,0.1,0.1,0.2c1.2-0.4,3.1-0.1,4.7-0.4
	c0.1,0.1,0.3,0.2,0.5,0.3c0.4-0.1,0.3-0.2,0.3-0.2c0.4,0,0.8,0.2,1,0.2c0.5,0,0-0.1,0.4-0.2c0.5,0,1,0.1,1.5,0.1
	c0.3-0.1,0.7-0.3,1-0.2c0.6,0.1-0.2,0.2,0.3,0.3c0-0.1,0.1-0.2,0.5-0.4c0.6,0,1.2,0.1,1.7,0c1.1,0.4,2.8,0.1,4.1,0.1
	c0.9,0.1,5,0.3,5.9-0.1c0.4,0.2,0.9,0,1.4,0c2.2,0.7,3.9-0.4,6.1,0.2c0.1-0.2,0.7,0,1.1,0c0-0.1-0.6-0.1-0.7-0.3
	c0.8-0.1,0.7,0.1,1.5,0.3c0.2-0.2,2.6,0.1,2.1-0.3c1.1-0.1,1.8,0.1,2.8,0c0.2,0,0.2,0.4,3.2,0.3c-2.7-0.5-4.3-2.1-4.5-4.7h2
	c0.3,2.2,1.9,3.3,4.7,3.3c5.7,0,5.2-4.4,5.2-8.5c-2.7,5.8-12.5,4.7-12.5-4.4c0-9.3,9.8-10.7,12.6-4.9v-3h1.8v15.2
	c0,3.7-1.5,5.9-4.2,6.8l0.6,0.1c0.7-0.1,1.3-0.4,2.1,0c1.7-0.1,3.5,0,5.1-0.3c1.3,0.2,3.3,0.3,4.7,0.1c0.4,0.1,0,0.1,0.1,0.2
	c1.6,0.2,1.1-0.1,1.5-0.1c0.2,0,0.1,0.1,0.5,0c0.4,0,0-0.3,1,0c0.4,0.2-0.7,0-0.4,0.1c0.8,0.1,1-0.2,1.6-0.2c0.6,0,1.7,0.2,2,0.1
	c1.3-0.2,1.5,0,1.7,0c0.2-0.1,0.4-0.1,0.6-0.1c0.6,0.1,0.3,0.3,0.6,0.2c0.5,0.1,0.1,0,0.3-0.1c1.1,0.1,2.2,0.1,3.1-0.1
	c0.3,0,0.6,0,1,0.2c0.3,0,0.6-0.1,0.9-0.2c1.5,0.2,2.7-0.3,4.3,0.2c0.7-0.2,1.4,0,2.1-0.1c0.3-0.1,0-0.2,0-0.3c0.2,0,0.5,0,0.7,0
	c0.1,0.1,0,0.2,0.5,0.4c1.1-0.2,2.3-0.1,3.5,0c0.3-0.1,0-0.2,0.3-0.3c1-0.1,2.2,0.2,3.3,0.4c0.4-0.1-0.1-0.1,0-0.2
	c0.3-0.1,0.6,0.1,1,0.2c0.5-0.2,1.6,0,2.6,0.2c0.2-0.1-0.6-0.3-0.7-0.4c1.2-0.1,0.9-0.3,1.1-0.6c0.3-0.2,4.2-0.1,3,0.5
	c0.8,0.1,1.6,0.1,2.4,0c-0.8-0.2-0.1-0.4-0.7-0.6c1.2-0.3,2.5-0.2,3.8-0.1c0.3,0.5,0.9,0.1,1.3,0.3c0.4-0.4,1.7-0.2,2.6-0.3
	c0.2,0.1,0.6,0.2,1,0.2c0.4-0.5,4.5-0.4,3.5-0.1c1.3,0,2.6-0.2,4,0c-0.2-0.2,0.5-0.3,0.9-0.3c0.1,0.1,0.6,0.1,0.6,0.2
	c1.2,0,2.3-0.2,3.5,0.1c1.4-0.2,3.1,0.2,4.5-0.1c0.3,0.1,0.6,0.1,1,0.2c0.6-0.2,1.3-0.2,1.7,0c0.7-0.1,1.6,0,2.3,0.1
	c0.2-0.2,0.2-0.4,0.4-0.5c0.3-0.1,0.8,0.1,1.1-0.1c-1,0-1.6-0.3-1.9-0.6c-2.6-0.3-5.2-0.5-7.7-0.4c-1.8-0.4-0.2-0.1-1.5-0.1
	c-0.3-0.1-0.1-0.1-0.5-0.2c-2,0-0.6,0.3-3.5,0c-1.5,0.3-3.2-0.2-4.7-0.1c-0.5-0.1,0-0.2-0.2-0.3c0.6,0,1.5-0.1,1.8,0
	c0.7-0.3,2.1-0.1,3.1-0.3c0.3,0.1,0.2,0.1,0.6,0.2c0.4-0.1,0.8-0.1,1.1,0.1c0.8-0.2,1.8,0,2.6-0.1c-1-0.4-1.2-0.7-2-1.2
	c0.2-0.1,0.5-0.1,0.8-0.2c-0.7-0.1-0.7-0.1-0.9-0.3c0.9-0.2,0.5-0.5,0.6-0.7c1.3-0.3,2.8-0.6,4.4-0.8c1.7,0.5,4,0.2,6,0.4
	c0.3-0.1,0.6,0,0.9-0.1c0.8,0.1,1.6,0.2,2.4,0.1c-0.1,0-0.1-0.1-0.2-0.2c-2.3-0.3-4.3,0-6.6-0.3c-1.2,0.2-2.7-0.1-3.7-0.4
	c-0.1-0.2,0.9-0.4,1.1-0.3c3.4,0.1,8.2,0.5,11.5,0.3c0.3,0,0.5,0,0.8,0.1c0.2-0.3,0.8-0.3,1.5-0.3c-0.2-0.1-0.4-0.1-0.2-0.2
	c-0.3,0-0.7,0-1.1-0.2c-1,0.3-2.1,0-3.3-0.2c-1.4,0.5-3.4-0.7-4.5-0.3c-1.1-0.2-2.2-0.3-3.2-0.5c-0.4,0.2-1.2,0.2-1.8,0.3
	c-0.5-0.2-1-0.4-1.4-0.5c-0.4,0.1-0.4,0.1-0.5,0.2c-1.1-0.1-2.2-0.5-3.1-0.1c-0.2,0-0.5-0.1-0.8-0.2c-0.3,0-0.5,0.1-0.8,0.1
	c-2-0.4-4-0.3-6.1-0.3c-0.5,0.1,0,0.2-0.2,0.3c-0.2,0-0.4-0.1-0.8,0c-0.3-0.1-0.2-0.2-0.5-0.3c-0.7,0-1.3-0.2-2.1,0
	c-0.4,0-0.8-0.2-1.1-0.1c0.1-0.2-0.3-0.4-0.7-0.6c-1.2-0.1-4.1-0.3-4.2-0.9c0.4-0.2,1-0.1,1.5-0.2c-1.3,0-2.7-0.3-4-0.1
	c-4.8-0.9-3.2-2.4-2-3.4c-0.8-0.3-0.7-0.6-0.3-0.9c-1.4-0.6-3.1-0.8-5-1.2c0.2-0.3-0.5-0.6-0.6-0.8c2-0.9,5.7-1.5,8-2.3
	c0.1-0.1,0.1-0.1,0.2-0.2c0.7-0.4,2.3-0.2,3.5-0.5c0.5-0.1,0.6-0.3,1-0.4c1.7-0.5,4.2-0.9,6.1-1.5c2.1-0.6,5.2-0.6,7.5-0.9
	c1.2,0.1,2.5,0.3,3.6,0c0.2-0.1,0.5,0.1,0.7,0.1c1-0.5,3.8-0.4,5.6-0.5c2-0.4,4.2-0.2,6.1-0.8c-0.1-0.1-0.1-0.1-0.3-0.2
	c0.6-0.2,1.2-0.5,2-0.2c2-0.4,4.4,0.1,6.3-0.6c0.9-0.1,1.8-0.1,2.6-0.2c-1.2-0.8-3.5-0.3-5.6-0.6c-0.4-0.1-0.2-0.2-0.1-0.4
	c-1.4-0.1-2.9-0.2-4.2-0.1c-1.4-0.4-2.6,0.1-3.9-0.1c-0.4,0-0.1,0.1-0.3,0.2c-0.5-0.1-1.5-0.4-2-0.1c0,0-1.2-0.3-1.1,0.1
	c-1,0-2.1-0.1-3.1-0.2c-0.9,0.3-1.9,0-2.8,0c-2.4,0.3-4.9,0.2-7.4,0.2c-0.1,0.1-0.3,0.1-0.6,0.2c-1.7-0.1-3.4-0.3-4.9,0
	c-0.4,0-0.9-0.3-1.3-0.2c-0.3,0.1-0.3,0.2-0.7,0.3c-0.9-0.4-2.2,0-3.4-0.3c-0.2,0-0.4,0-0.6,0.1c-1.2-0.4,1-0.7,0.7-1.1
	c0.3-0.1,0.7,0,1-0.1c1.2-0.4,3.2-0.6,4.8-0.8c2,0.1,3.8-0.2,5.8-0.4c1.8-0.2,3.7-0.3,5.6-0.5l0.9-0.1c0.4,0.1,0.7,0.1,1,0
	c-0.3-0.1-0.7-0.1-0.7-0.2c1-0.5,1.9-0.2,2.9-0.1c1.3,0,1.9-0.3,3.3-0.2c0.3-0.1,0.3-0.2,0.7-0.3c-0.6-0.2-2.7,0-1.2-0.5
	c-0.4-0.2-0.7-0.3-0.6-0.5c-0.7-0.2-1.3,0-2-0.3l-7,0c-0.1-0.1,0.5-0.2,0.4-0.3c0.6-0.1,1.3,0.1,1.9,0c-0.1,0-0.1-0.1,0.1-0.1
	c-2.7-0.4-5.1,0.2-7.8-0.2c-0.3,0.1,0.4,0.2,0.5,0.3c-0.5,0.2-0.9-0.1-1.2-0.2C466,7,465.1,7,465,6.8c-0.6-0.1,0.2,0.1-0.4,0.2
	c-0.7,0-1.7-0.3-2.6-0.1c-0.4,0-0.7-0.1-1.1-0.2c-0.4,0.2-1.2,0-2.1,0c-0.8,0-1.6,0.2-2.4,0.2c-0.2,0-0.3-0.1-0.5-0.1
	c-0.9-0.1-1.9,0-2.9,0c-0.7,0-1.4-0.1-2-0.1c-0.9,0-1.2,0.3-1.7,0c-3.5,0.2-7.2,0.1-10.9-0.1c0-0.1,1.1-0.1,0.7-0.3
	c0.7-0.2,1.7,0,2.5,0c0.4-0.1-0.5-0.3,0.1-0.4c1.3-0.1,1,0.3,2.4,0.4c0.1-0.1,0.1-0.1,0.1-0.2c0.5,0,1.1,0.2,1.6,0.2
	c0.3-0.1,0.6-0.3,1-0.1c0.3-0.4,1.6-0.1,2-0.5c0.3,0.1,0.8,0.3,0.8,0.4c0.8,0.1,1.6,0.1,2.4,0C451.5,6,451.2,6,451,5.8
	c0.5-0.1,0.6,0.2,1.2,0.1c0.5-0.1,0-0.2,0.4-0.3c0.4,0.1,0.3,0.2,0.3,0.3c0.6-0.1,1.3,0.1,1.9,0.1c0.4-0.1,0.3-0.2,0.6-0.3
	c1.1,0.2,2.2,0,3.3,0.1c0.4,0.2-0.6,0-0.9,0.2c1.2,0.2,1.2-0.2,1.3-0.2c1.3,0,2.4-0.3,3.8,0c0.2-0.2,0.9-0.2,1.5,0
	c0.8-0.2,2.3,0.1,3-0.2c0.7,0.1-0.2,0.2,0.3,0.3c0.8-0.1,2.3,0,2.7-0.1c0.3-0.2,1.9-0.4,3-0.2c0.4,0.1,0,0.1,0.4,0.2
	c1.6,0.1,3.1,0,4.6,0.1c1-0.6,2.7-0.3,3.9-0.6c0.6,0,0.5,0.1,1.1,0.2c0.7-0.2,1.4-0.1,2.2,0c0.9-0.2,1.2-0.1,2.1,0
	c0.2-0.1,0.5-0.1,0.8-0.2c3,0.1,5.9,0.2,8.6-0.2l-6.2,0c-0.4,0-0.1,0-0.4-0.1c-0.5,0.3-2-0.1-2.8,0.2c-0.3-0.1-0.2-0.1-0.6-0.2
	c-1.8,0.3-3.8,0-5.6,0.2c-0.5-0.1-0.5-0.2-0.8-0.2c-0.5,0.1,0.1,0.2-0.4,0.3c-1.9-0.2-4.8-0.4-6.9-0.2c-0.9-0.1-3-0.2-3.7,0.1
	c-0.8,0-1.7-0.3-2.4,0c-0.8-0.1-1.6-0.2-2.2,0.1c-0.1,0-0.7-0.1-0.5-0.1c-4,0-8-0.2-12,0l-6.5,0c-1.8,0.2-4.7-0.3-6.2,0
	c-0.3,0-0.6,0-1-0.1c-1.4,0.2-3.3,0-4.6,0c-1,0-2.1,0.2-2.8,0.2c-1.5,0-1.3-0.3-2.7,0c0,0-12.5-0.3-13.7,0.1
	c-0.4,0.1-0.2-0.1-0.6-0.2c-4.8,0.1-9.6-0.1-14.3,0c-0.4-0.3-1.7-0.2-1.9,0c-1-0.2-2-0.2-2.9,0c-0.7,0-2-0.2-2.3,0.1
	c-0.2,0-0.6-0.2-0.9-0.2c-3.4,0.3-7-0.3-10.3,0c-0.3,0.1-0.7,0-1.1-0.1c-3.7,0.3-7.7-0.2-11.4,0c-2.8-0.2-5.4,0-8.2-0.1
	c-0.2,0.1-0.5,0.2-0.8,0.2l-11-0.1c-1.7,0.1-3.5,0.2-5.3,0c-1.7,0.3-3.6-0.2-5.3,0.1c-1.3-0.4-3,0.3-4.6,0c-2,0.3-1,0-1.6-0.1
	c-0.8-0.1-1.1,0.1-1.7,0.1c-1.1,0-2.5-0.3-3.5,0l-11.9,0C314.3,5,313.1,5,312,5.3c-0.4-0.1,0-0.1-0.4-0.2c-2.1,0.2-4.4-0.2-6.4,0.2
	l-1.5-0.1c-0.8,0-1.7,0-2.5,0.1c-1-0.1-2-0.2-2.9,0c0.2,0.2,0.3,0.1,0.8,0.2c-0.9,0-2.2,0.2-2.8-0.1c-1,0.1-2.2,0.1-3.3,0.1
	c-0.2-0.4-0.3-0.3-1-0.1c0.2,0,0.3,0,0.4,0.1c-1.4,0.4-1.9,0.1-2.5,0l-5.8,0.1l-2.1,0c-0.7-0.1-1.3-0.1-1.9,0
	c-0.8-0.2-1.6-0.2-2.4,0c-0.2,0-0.2-0.1-0.6-0.1c-1.1,0.3-2.4-0.1-3.4,0.3c-0.5-0.1,0-0.2-0.4-0.3c-0.6,0-1.7-0.2-1.6,0.1
	c-0.4,0-0.3-0.1-0.7-0.2c-0.8,0-1.5,0.1-2.3-0.1c-1,0.3-2.3-0.2-3.2,0.2c-1-0.1-2,0-3-0.2c-1.6,0.3-3.9-0.2-5.1,0.2
	c-0.6-0.1-1.1,0-1.8-0.2c-1.4,0.3-3,0-4.4,0.2c-1-0.1-2.1-0.3-3.1,0l-6.4,0c-2.1-0.1-4.3-0.2-6.3-0.1c-1.6-0.1-3.1-0.2-4.6,0.1
	c-0.9-0.4-1.5-0.1-2.4-0.3c0.5-0.2,1.2,0,1.7-0.1C231.2,4.2,234.5,4.5,236.5,4.4L236.5,4.4z M497.6,5.1
	C497.7,5.1,497.5,5.1,497.6,5.1z M498,5.2C498,5.2,497.8,5.2,498,5.2z M498.5,5.2C498.6,5.2,498.3,5.2,498.5,5.2z"/>
</svg>
