<?xml version="1.0" encoding="UTF-8"?>
<!DOCTYPE svg PUBLIC "-//W3C//DTD SVG 1.1//EN" "http://www.w3.org/Graphics/SVG/1.1/DTD/svg11.dtd">
<!-- Creator: CorelDRAW 2020 (64-Bit) -->
<svg xmlns="http://www.w3.org/2000/svg" xml:space="preserve" width="50px" height="50px" version="1.1" style="shape-rendering:geometricPrecision; text-rendering:geometricPrecision; image-rendering:optimizeQuality; fill-rule:evenodd; clip-rule:evenodd"
viewBox="0 0 1.306 1.306"
 xmlns:xlink="http://www.w3.org/1999/xlink"
 xmlns:xodm="http://www.corel.com/coreldraw/odm/2003">
 <defs>
  <style type="text/css">
   <![CDATA[
    .fil0 {fill:none}
    .fil1 {fill:url(#id0);fill-rule:nonzero}
   ]]>
  </style>
  <radialGradient id="id0" gradientUnits="userSpaceOnUse" gradientTransform="matrix(2.5387 -0 -0 2.27908 0 -2)" cx="0.091" cy="1.204" r="0.262" fx="0.091" fy="1.204">
   <stop offset="0" style="stop-opacity:1; stop-color:#FA8F21"/>
   <stop offset="0.0901961" style="stop-opacity:1; stop-color:#FA8F21"/>
   <stop offset="0.780392" style="stop-opacity:1; stop-color:#D82D7E"/>
   <stop offset="1" style="stop-opacity:1; stop-color:#D82D7E"/>
  </radialGradient>
 </defs>
 <g id="Layer_x0020_1">
  <metadata id="CorelCorpID_0Corel-Layer"/>
  <rect class="fil0" width="1.306" height="1.306"/>
  <path class="fil1" d="M0.633 1.176c0.008,0 0.018,-0.002 0.027,-0.006 0.009,-0.004 0.016,-0.008 0.022,-0.014l0.51 -0.51c0.016,-0.017 0.029,-0.034 0.038,-0.051 0.008,-0.017 0.013,-0.036 0.013,-0.057 0,-0.021 -0.005,-0.041 -0.013,-0.06 -0.009,-0.02 -0.022,-0.038 -0.038,-0.054l-0.246 -0.246c-0.016,-0.017 -0.033,-0.029 -0.051,-0.036 -0.017,-0.008 -0.036,-0.012 -0.057,-0.012 -0.02,0 -0.04,0.004 -0.058,0.012 -0.018,0.007 -0.034,0.019 -0.049,0.036l-0.057 0.057 0.12 0.122c0.013,0.013 0.023,0.028 0.03,0.044 0.006,0.016 0.009,0.033 0.009,0.049 0,0.034 -0.011,0.062 -0.033,0.084 -0.022,0.022 -0.05,0.033 -0.084,0.033 -0.017,0 -0.034,-0.002 -0.05,-0.007 -0.015,-0.005 -0.029,-0.014 -0.041,-0.027l-0.126 -0.124 -0.282 0.283c-0.007,0.006 -0.011,0.014 -0.015,0.022 -0.003,0.009 -0.005,0.018 -0.005,0.026 0,0.017 0.005,0.03 0.015,0.039 0.01,0.01 0.023,0.015 0.039,0.015 0.009,0 0.018,-0.002 0.027,-0.006 0.009,-0.003 0.017,-0.008 0.022,-0.014l0.207 -0.207 0.044 0.044 -0.207 0.208c-0.006,0.006 -0.011,0.014 -0.014,0.022 -0.004,0.009 -0.005,0.018 -0.005,0.027 0,0.015 0.005,0.028 0.015,0.038 0.01,0.01 0.023,0.015 0.038,0.015 0.009,0 0.018,-0.002 0.027,-0.005 0.01,-0.004 0.017,-0.009 0.022,-0.014l0.222 -0.222 0.044 0.044 -0.222 0.222c-0.005,0.005 -0.01,0.012 -0.014,0.022 -0.003,0.009 -0.005,0.018 -0.005,0.027 0,0.015 0.005,0.028 0.015,0.038 0.011,0.01 0.023,0.015 0.039,0.015 0.008,0 0.017,-0.001 0.026,-0.004 0.008,-0.004 0.016,-0.009 0.023,-0.015l0.221 -0.222 0.044 0.044 -0.221 0.222c-0.007,0.007 -0.012,0.015 -0.015,0.025 -0.003,0.009 -0.005,0.018 -0.005,0.026 0,0.015 0.006,0.027 0.016,0.037 0.011,0.01 0.024,0.015 0.038,0.015zm0 0.063c-0.034,0 -0.063,-0.012 -0.086,-0.036 -0.023,-0.025 -0.033,-0.056 -0.03,-0.092 -0.037,0.001 -0.068,-0.01 -0.093,-0.032 -0.025,-0.023 -0.037,-0.054 -0.036,-0.096 -0.04,0.001 -0.072,-0.01 -0.094,-0.033 -0.023,-0.023 -0.034,-0.055 -0.031,-0.094 -0.037,0.001 -0.068,-0.009 -0.093,-0.029 -0.024,-0.021 -0.036,-0.05 -0.036,-0.087 0,-0.016 0.003,-0.033 0.01,-0.05 0.006,-0.016 0.016,-0.031 0.029,-0.043l0.326 -0.327 0.166 0.166c0.007,0.005 0.014,0.01 0.022,0.014 0.009,0.005 0.018,0.007 0.029,0.007 0.014,0 0.027,-0.005 0.038,-0.015 0.012,-0.011 0.017,-0.024 0.017,-0.04 0,-0.01 -0.001,-0.019 -0.005,-0.028 -0.004,-0.009 -0.009,-0.016 -0.016,-0.021l-0.225 -0.225c-0.016,-0.017 -0.033,-0.029 -0.05,-0.036 -0.018,-0.008 -0.037,-0.012 -0.057,-0.012 -0.021,0 -0.04,0.004 -0.057,0.012 -0.017,0.007 -0.033,0.019 -0.049,0.036l-0.201 0.2c-0.014,0.014 -0.026,0.031 -0.034,0.051 -0.009,0.019 -0.013,0.04 -0.013,0.062 -0.001,0.015 0,0.03 0.004,0.044 0.003,0.014 0.009,0.027 0.015,0.039l-0.047 0.047c-0.011,-0.017 -0.02,-0.037 -0.026,-0.06 -0.007,-0.023 -0.01,-0.046 -0.01,-0.07 0,-0.031 0.006,-0.059 0.017,-0.087 0.011,-0.027 0.028,-0.051 0.05,-0.072l0.197 -0.198c0.023,-0.023 0.047,-0.04 0.073,-0.051 0.025,-0.011 0.053,-0.016 0.082,-0.016 0.03,0 0.056,0.005 0.081,0.016 0.024,0.011 0.048,0.028 0.071,0.051l0.057 0.057 0.059 -0.057c0.021,-0.023 0.045,-0.04 0.07,-0.051 0.025,-0.011 0.052,-0.016 0.081,-0.016 0.03,0 0.057,0.005 0.083,0.016 0.025,0.011 0.049,0.028 0.071,0.051l0.244 0.244c0.022,0.022 0.039,0.047 0.052,0.075 0.012,0.028 0.018,0.057 0.018,0.085 0,0.029 -0.006,0.057 -0.018,0.082 -0.013,0.025 -0.03,0.049 -0.052,0.072l-0.51 0.508c-0.013,0.014 -0.028,0.024 -0.043,0.03 -0.016,0.006 -0.033,0.009 -0.05,0.009zm-0.209 -0.821l0 0 0 0c0,0 0,0 0,0 0,0 0,0 0,0 0,0 0,0 0,0 0,0 0,0 0,0 0,0 0,0 0,0 0,0 0,0 0,0l0 0c0,0 0,0 0,0 0,0 0,0 0,0 0,0 0,0 0,0 0,0 0,0 0,0l0 0c0,0 0,0 0,0 0,0 0,0 0,0 0,0 0,0 0,0 0,0 0,0 0,0z"/>
 </g>
</svg>
