<?xml version="1.0" encoding="UTF-8"?>
<!DOCTYPE svg PUBLIC "-//W3C//DTD SVG 1.1//EN" "http://www.w3.org/Graphics/SVG/1.1/DTD/svg11.dtd">
<!-- Creator: CorelDRAW 2020 (64-Bit) -->
<svg xmlns="http://www.w3.org/2000/svg" xml:space="preserve" width="50px" height="50px" version="1.1" style="shape-rendering:geometricPrecision; text-rendering:geometricPrecision; image-rendering:optimizeQuality; fill-rule:evenodd; clip-rule:evenodd"
viewBox="0 0 2.25 2.25"
 xmlns:xlink="http://www.w3.org/1999/xlink"
 xmlns:xodm="http://www.corel.com/coreldraw/odm/2003">
 <defs>
  <style type="text/css">
   <![CDATA[
    .fil0 {fill:none}
    .fil1 {fill:url(#id0);fill-rule:nonzero}
   ]]>
  </style>
  <radialGradient id="id0" gradientUnits="userSpaceOnUse" gradientTransform="matrix(2.40702 -0 -0 2.53872 0 -3)" cx="0.216" cy="2.172" r="1.032" fx="0.216" fy="2.172">
   <stop offset="0" style="stop-opacity:1; stop-color:#FA8F21"/>
   <stop offset="0.0901961" style="stop-opacity:1; stop-color:#FA8F21"/>
   <stop offset="0.780392" style="stop-opacity:1; stop-color:#D82D7E"/>
   <stop offset="1" style="stop-opacity:1; stop-color:#D82D7E"/>
  </radialGradient>
 </defs>
 <g id="Layer_x0020_1">
  <metadata id="CorelCorpID_0Corel-Layer"/>
  <rect class="fil0" width="2.25" height="2.25"/>
  <path class="fil1" d="M0.19 2.239l0 -1.299 -0.122 0 0 -0.48 0.623 0c-0.028,-0.022 -0.048,-0.05 -0.06,-0.082 -0.011,-0.032 -0.016,-0.066 -0.016,-0.1 0,-0.075 0.026,-0.138 0.077,-0.19 0.052,-0.051 0.115,-0.077 0.19,-0.077 0.047,0 0.089,0.011 0.128,0.035 0.038,0.023 0.07,0.053 0.097,0.089 0.026,-0.036 0.058,-0.066 0.097,-0.089 0.039,-0.024 0.081,-0.035 0.127,-0.035 0.075,0 0.138,0.026 0.19,0.077 0.052,0.052 0.078,0.115 0.078,0.19 0,0.034 -0.006,0.068 -0.017,0.1 -0.011,0.032 -0.031,0.06 -0.059,0.082l0.658 0 0 0.48 -0.121 0 0 1.299 -1.87 0zm1.141 -2.143c-0.05,0 -0.093,0.017 -0.129,0.052 -0.035,0.034 -0.053,0.077 -0.053,0.13 0,0.051 0.018,0.094 0.053,0.129 0.036,0.035 0.079,0.053 0.129,0.053 0.053,0 0.097,-0.018 0.131,-0.053 0.035,-0.035 0.052,-0.078 0.052,-0.129 0,-0.053 -0.017,-0.096 -0.052,-0.13 -0.034,-0.035 -0.078,-0.052 -0.131,-0.052zm-0.631 0.182c0,0.051 0.017,0.094 0.053,0.129 0.035,0.035 0.079,0.053 0.129,0.053 0.051,0 0.094,-0.018 0.129,-0.053 0.036,-0.035 0.053,-0.078 0.053,-0.129 0,-0.053 -0.017,-0.096 -0.053,-0.13 -0.035,-0.035 -0.078,-0.052 -0.129,-0.052 -0.05,0 -0.094,0.017 -0.129,0.052 -0.036,0.034 -0.053,0.077 -0.053,0.13zm-0.547 0.267l0 0.31 0.93 0 0 -0.31 -0.93 0zm0.93 1.609l0 -1.214 -0.808 0 0 1.214 0.808 0zm0.085 0l0.807 0 0 -1.214 -0.807 0 0 1.214zm0.928 -1.299l0 -0.31 -0.928 0 0 0.31 0.928 0z"/>
 </g>
</svg>
