<?xml version="1.0" encoding="UTF-8"?>
<!DOCTYPE svg PUBLIC "-//W3C//DTD SVG 1.1//EN" "http://www.w3.org/Graphics/SVG/1.1/DTD/svg11.dtd">
<!-- Creator: CorelDRAW 2020 (64-Bit) -->
<svg xmlns="http://www.w3.org/2000/svg" xml:space="preserve" width="50px" height="50px" version="1.1" style="shape-rendering:geometricPrecision; text-rendering:geometricPrecision; image-rendering:optimizeQuality; fill-rule:evenodd; clip-rule:evenodd"
viewBox="0 0 0.362 0.362"
 xmlns:xlink="http://www.w3.org/1999/xlink"
 xmlns:xodm="http://www.corel.com/coreldraw/odm/2003">
 <defs>
  <style type="text/css">
   <![CDATA[
    .fil2 {fill:none}
    .fil1 {fill:#FEFEFE}
    .fil0 {fill:#FCC300}
   ]]>
  </style>
   <clipPath id="id0">
    <path d="M0.362 0l-0.362 0 0 0.362c0.121,0 0.242,0 0.362,0l0 -0.362z"/>
   </clipPath>
 </defs>
 <g id="Layer_x0020_1">
  <metadata id="CorelCorpID_0Corel-Layer"/>
  <path class="fil0" d="M0.362 0l-0.362 0 0 0.362c0.121,0 0.242,0 0.362,0l0 -0.362z"/>
  <g style="clip-path:url(#id0)">
   <g id="_3208464644400">
    <path id="1" class="fil1" d="M0.201 0.114c0.013,-0.006 0.058,-0.025 0.058,-0.025 0,0 0.021,-0.008 0.019,0.012 0,0.008 -0.005,0.036 -0.009,0.067 -0.007,0.043 -0.015,0.091 -0.015,0.091 0,0 -0.001,0.013 -0.011,0.015 -0.01,0.003 -0.026,-0.008 -0.029,-0.01 -0.002,-0.002 -0.043,-0.028 -0.058,-0.041 -0.004,-0.003 -0.009,-0.01 0,-0.018 0.021,-0.019 0.046,-0.043 0.061,-0.058 0.007,-0.007 0.014,-0.023 -0.015,-0.003 -0.041,0.028 -0.082,0.055 -0.082,0.055 0,0 -0.009,0.005 -0.026,0 -0.018,-0.005 -0.038,-0.012 -0.038,-0.012 0,0 -0.014,-0.009 0.01,-0.018 0,0 0.123,-0.051 0.135,-0.055z"/>
   </g>
  </g>
  <path class="fil2" d="M0.362 0l-0.362 0 0 0.362c0.121,0 0.242,0 0.362,0l0 -0.362z"/>
 </g>
</svg>
