<?xml version="1.0" encoding="UTF-8"?>
<!DOCTYPE svg PUBLIC "-//W3C//DTD SVG 1.1//EN" "http://www.w3.org/Graphics/SVG/1.1/DTD/svg11.dtd">
<!-- Creator: CorelDRAW 2020 (64-Bit) -->
<svg xmlns="http://www.w3.org/2000/svg" xml:space="preserve" width="50px" height="50px" version="1.1" style="shape-rendering:geometricPrecision; text-rendering:geometricPrecision; image-rendering:optimizeQuality; fill-rule:evenodd; clip-rule:evenodd"
viewBox="0 0 0.362 0.362"
 xmlns:xlink="http://www.w3.org/1999/xlink"
 xmlns:xodm="http://www.corel.com/coreldraw/odm/2003">
 <defs>
  <style type="text/css">
   <![CDATA[
    .fil2 {fill:none}
    .fil1 {fill:#FEFEFE}
    .fil0 {fill:#FCC300}
   ]]>
  </style>
   <clipPath id="id0">
    <path d="M0.362 0c-0.12,0 -0.241,0 -0.362,0l0 0.362c0.121,0 0.242,0 0.362,0l0 -0.362z"/>
   </clipPath>
 </defs>
 <g id="Layer_x0020_1">
  <metadata id="CorelCorpID_0Corel-Layer"/>
  <path class="fil0" d="M0.362 0c-0.12,0 -0.241,0 -0.362,0l0 0.362c0.121,0 0.242,0 0.362,0l0 -0.362z"/>
  <g style="clip-path:url(#id0)">
   <g id="_3208605204288">
    <path id="1" class="fil1" d="M0.241 0.108c0.007,0 0.013,0.006 0.013,0.013 0,0.008 -0.006,0.014 -0.013,0.014 -0.008,0 -0.014,-0.006 -0.014,-0.014 0,-0.007 0.006,-0.013 0.014,-0.013zm-0.059 0.039c-0.019,0 -0.035,0.015 -0.035,0.034 0,0.019 0.016,0.034 0.035,0.034 0.018,0 0.034,-0.015 0.034,-0.034 0,-0.019 -0.016,-0.034 -0.034,-0.034zm0 -0.023c0.031,0 0.056,0.026 0.056,0.057 0,0.032 -0.025,0.057 -0.056,0.057 -0.032,0 -0.057,-0.025 -0.057,-0.057 0,-0.031 0.025,-0.057 0.057,-0.057zm-0.046 -0.033c-0.052,0.002 -0.045,0.041 -0.045,0.09 0,0.049 -0.007,0.088 0.045,0.091l0.091 0c0.03,-0.002 0.043,-0.015 0.045,-0.045l0 -0.092c-0.002,-0.029 -0.015,-0.043 -0.045,-0.044l-0.091 0zm0.092 -0.023c0.041,0.002 0.064,0.025 0.066,0.066l0 0.094c-0.002,0.041 -0.024,0.064 -0.066,0.066l-0.093 0c-0.072,-0.003 -0.067,-0.061 -0.067,-0.113 0,-0.051 -0.005,-0.11 0.067,-0.113l0.093 0z"/>
   </g>
  </g>
  <path class="fil2" d="M0.362 0c-0.12,0 -0.241,0 -0.362,0l0 0.362c0.121,0 0.242,0 0.362,0l0 -0.362z"/>
 </g>
</svg>
