<?xml version="1.0" encoding="UTF-8"?>
<!DOCTYPE svg PUBLIC "-//W3C//DTD SVG 1.1//EN" "http://www.w3.org/Graphics/SVG/1.1/DTD/svg11.dtd">
<!-- Creator: CorelDRAW 2020 (64-Bit) -->
<svg xmlns="http://www.w3.org/2000/svg" xml:space="preserve" width="50px" height="50px" version="1.1" style="shape-rendering:geometricPrecision; text-rendering:geometricPrecision; image-rendering:optimizeQuality; fill-rule:evenodd; clip-rule:evenodd"
viewBox="0 0 2.241 2.241"
 xmlns:xlink="http://www.w3.org/1999/xlink"
 xmlns:xodm="http://www.corel.com/coreldraw/odm/2003">
 <defs>
  <style type="text/css">
   <![CDATA[
    .fil0 {fill:none}
    .fil1 {fill:url(#id0);fill-rule:nonzero}
   ]]>
  </style>
  <radialGradient id="id0" gradientUnits="userSpaceOnUse" gradientTransform="matrix(2.53871 -0 -0 2.53871 0 -3)" cx="0.215" cy="2.109" r="0.975" fx="0.215" fy="2.109">
   <stop offset="0" style="stop-opacity:1; stop-color:#FA8F21"/>
   <stop offset="0.0901961" style="stop-opacity:1; stop-color:#FA8F21"/>
   <stop offset="0.780392" style="stop-opacity:1; stop-color:#D82D7E"/>
   <stop offset="1" style="stop-opacity:1; stop-color:#D82D7E"/>
  </radialGradient>
 </defs>
 <g id="Layer_x0020_1">
  <metadata id="CorelCorpID_0Corel-Layer"/>
  <rect class="fil0" width="2.241" height="2.241"/>
  <path class="fil1" d="M1.115 2.173c-0.144,0 -0.279,-0.028 -0.406,-0.084 -0.127,-0.055 -0.238,-0.13 -0.332,-0.225 -0.095,-0.094 -0.171,-0.206 -0.226,-0.334 -0.055,-0.128 -0.083,-0.264 -0.083,-0.41 0,-0.147 0.028,-0.285 0.085,-0.412 0.056,-0.129 0.133,-0.24 0.231,-0.335 0.098,-0.094 0.213,-0.169 0.345,-0.223 0.132,-0.055 0.272,-0.082 0.422,-0.082 0.135,0 0.264,0.023 0.387,0.068 0.123,0.045 0.231,0.109 0.325,0.189 0.093,0.081 0.168,0.177 0.225,0.289 0.057,0.112 0.085,0.234 0.085,0.367 0,0.174 -0.049,0.315 -0.147,0.423 -0.098,0.109 -0.238,0.164 -0.422,0.164l-0.211 0c-0.061,0 -0.112,0.021 -0.155,0.063 -0.042,0.043 -0.063,0.094 -0.063,0.155 0,0.058 0.015,0.104 0.045,0.136 0.031,0.032 0.046,0.069 0.046,0.111 0,0.047 -0.014,0.082 -0.04,0.105 -0.026,0.023 -0.063,0.035 -0.111,0.035zm0.005 -1.053c0,0 0,0 0,0 0,0 0,0 0,0 0,0 0,0 0,0 0,0 0,0 0,0 0,0 0,0 0,0 0,0 0,0 0,0 0,0 0,0 0,0 0,0 0,0 0,0l0 0c0,0 0,0 0,0 0,0 0,0 0,0 0,0 0,0 0,0 0,0 0,0 0,0 0,0 0,0 0,0 0,0 0,0 0,0zm-0.665 0.042c0.028,0 0.052,-0.009 0.073,-0.03 0.02,-0.02 0.03,-0.044 0.03,-0.072 0,-0.028 -0.01,-0.052 -0.03,-0.073 -0.021,-0.02 -0.045,-0.03 -0.073,-0.03 -0.028,0 -0.052,0.01 -0.072,0.03 -0.021,0.021 -0.03,0.045 -0.03,0.073 0,0.028 0.009,0.052 0.03,0.072 0.02,0.021 0.044,0.03 0.072,0.03zm0.363 -0.483c0.028,0 0.052,-0.01 0.073,-0.03 0.02,-0.021 0.03,-0.045 0.03,-0.073 0,-0.028 -0.01,-0.052 -0.03,-0.072 -0.021,-0.021 -0.045,-0.031 -0.073,-0.031 -0.028,0 -0.052,0.01 -0.073,0.031 -0.02,0.02 -0.03,0.044 -0.03,0.072 0,0.028 0.01,0.052 0.03,0.073 0.021,0.02 0.045,0.03 0.073,0.03zm0.605 0c0.028,0 0.052,-0.01 0.072,-0.03 0.021,-0.021 0.031,-0.045 0.031,-0.073 0,-0.028 -0.01,-0.052 -0.031,-0.072 -0.02,-0.021 -0.044,-0.031 -0.072,-0.031 -0.028,0 -0.053,0.01 -0.073,0.031 -0.02,0.02 -0.03,0.044 -0.03,0.072 0,0.028 0.01,0.052 0.03,0.073 0.02,0.02 0.045,0.03 0.073,0.03zm0.363 0.483c0.028,0 0.052,-0.009 0.072,-0.03 0.02,-0.02 0.031,-0.044 0.031,-0.072 0,-0.028 -0.011,-0.052 -0.031,-0.073 -0.02,-0.02 -0.044,-0.03 -0.072,-0.03 -0.028,0 -0.053,0.01 -0.073,0.03 -0.02,0.021 -0.03,0.045 -0.03,0.073 0,0.028 0.01,0.052 0.03,0.072 0.02,0.021 0.045,0.03 0.073,0.03zm-0.671 0.926c0.021,0 0.038,-0.004 0.049,-0.014 0.012,-0.009 0.017,-0.022 0.017,-0.041 0,-0.028 -0.015,-0.057 -0.046,-0.087 -0.03,-0.03 -0.045,-0.082 -0.045,-0.155 0,-0.088 0.029,-0.162 0.088,-0.22 0.058,-0.059 0.13,-0.088 0.215,-0.088l0.211 0c0.157,0 0.277,-0.046 0.36,-0.139 0.083,-0.093 0.124,-0.213 0.124,-0.363 0,-0.246 -0.095,-0.445 -0.284,-0.598 -0.19,-0.154 -0.407,-0.23 -0.653,-0.23 -0.281,0 -0.517,0.094 -0.709,0.281 -0.193,0.188 -0.289,0.416 -0.289,0.686 0,0.268 0.094,0.497 0.282,0.685 0.189,0.189 0.415,0.283 0.68,0.283z"/>
 </g>
</svg>
