<?xml version="1.0" encoding="UTF-8"?>
<!DOCTYPE svg PUBLIC "-//W3C//DTD SVG 1.1//EN" "http://www.w3.org/Graphics/SVG/1.1/DTD/svg11.dtd">
<!-- Creator: CorelDRAW 2020 (64-Bit) -->
<svg xmlns="http://www.w3.org/2000/svg" xml:space="preserve" width="50px" height="50px" version="1.1" style="shape-rendering:geometricPrecision; text-rendering:geometricPrecision; image-rendering:optimizeQuality; fill-rule:evenodd; clip-rule:evenodd"
viewBox="0 0 0.362 0.362"
 xmlns:xlink="http://www.w3.org/1999/xlink"
 xmlns:xodm="http://www.corel.com/coreldraw/odm/2003">
 <defs>
  <style type="text/css">
   <![CDATA[
    .fil2 {fill:none}
    .fil1 {fill:#FEFEFE}
    .fil0 {fill:#FCC300}
   ]]>
  </style>
   <clipPath id="id0">
    <path d="M0.362 0c-0.12,0 -0.241,0 -0.362,0l0 0.362 0.362 0 0 -0.362z"/>
   </clipPath>
 </defs>
 <g id="Layer_x0020_1">
  <metadata id="CorelCorpID_0Corel-Layer"/>
  <path class="fil0" d="M0.362 0c-0.12,0 -0.241,0 -0.362,0l0 0.362 0.362 0 0 -0.362z"/>
  <g style="clip-path:url(#id0)">
   <g id="_3208463874320">
    <path id="1" class="fil1" d="M0.24 0.294c-0.015,0 -0.029,-0.006 -0.042,-0.011 -0.049,-0.017 -0.101,-0.07 -0.119,-0.118 -0.005,-0.014 -0.011,-0.028 -0.011,-0.042 0,-0.025 0.024,-0.064 0.051,-0.055 0.002,0.001 0.031,0.049 0.031,0.055 0,0.009 -0.029,0.024 -0.029,0.032 0,0.005 0.004,0.01 0.006,0.014 0.017,0.029 0.037,0.05 0.066,0.066 0.004,0.002 0.01,0.006 0.014,0.006 0.009,0 0.023,-0.029 0.033,-0.029 0.005,0 0.053,0.03 0.054,0.031 0.009,0.027 -0.029,0.051 -0.054,0.051z"/>
   </g>
  </g>
  <path class="fil2" d="M0.362 0c-0.12,0 -0.241,0 -0.362,0l0 0.362 0.362 0 0 -0.362z"/>
 </g>
</svg>
