<?xml version="1.0" encoding="utf-8"?>
<!-- Generator: Adobe Illustrator 27.2.0, SVG Export Plug-In . SVG Version: 6.00 Build 0)  -->
<svg version="1.1" id="Layer_2_00000057144390665537908700000000485384547907930253_"
	 xmlns="http://www.w3.org/2000/svg" xmlns:xlink="http://www.w3.org/1999/xlink" x="0px" y="0px" viewBox="0 0 17.6 23.6"
	 style="enable-background:new 0 0 17.6 23.6;" xml:space="preserve">
<style type="text/css">
	.st0{fill:none;}
	.st1{fill:#E3001D;}
</style>
<g>
	<path class="st0" d="M3.8,18.5c0,0,0.6-0.3,1.7-1.9C5.2,16.9,4.1,17.8,3.8,18.5z"/>
	<path class="st0" d="M8.2,12.5c-0.3,1-0.8,2.1-1.3,3c0.9-0.3,1.9-0.8,2.9-1.1C9.2,14,8.7,13.3,8.2,12.5z"/>
	<path class="st0" d="M16.5,5.7c-0.1-0.1-0.2-0.3-0.3-0.4l-3.8-3.8c-0.2-0.2-0.3-0.2-0.5-0.3l-0.3-0.1V6h4.9V5.7z"/>
	<path class="st0" d="M8.2,8c-0.1,0-0.1,1.5,0.1,2.2C8.6,9.8,8.6,8,8.2,8z"/>
	<path class="st0" d="M11.4,7.1c-0.5,0-0.9-0.4-0.9-0.9V1.1H2.1c-0.6,0-1,0.5-1,1v19.5c0,0.5,0.5,0.9,1,0.9h14.4V7.1H11.4z
		 M13.7,16.2c-0.8,0-2-0.3-3-0.9C9.4,15.5,8,16,6.8,16.4c-0.5,0.9-1,1.6-1.4,2.1C4,20.1,2.7,19,2.9,18.2c0.1-1,1.7-1.9,2.7-2.4
		c0.6-1.1,1.4-2.9,2-4.2C7.2,10.1,6.9,8.9,7.2,8c0.2-0.9,1.8-1.1,2,0.3c0.3,0.8-0.1,2.1-0.3,3C9.4,12.6,10,13.4,11,14
		c0.9-0.1,2.9-0.3,3.5,0.3C15,14.8,15,16.2,13.7,16.2z"/>
	<path class="st0" d="M12.1,14.8c1.7,0.7,2,0.4,2,0.4C14.3,15.1,14,14.7,12.1,14.8z"/>
	<path class="st1" d="M11,14c-1-0.6-1.6-1.4-2.1-2.7c0.2-0.9,0.6-2.2,0.3-3C9,6.9,7.4,7.1,7.2,8c-0.3,0.9,0,2.1,0.4,3.6
		c-0.6,1.3-1.4,3.1-2,4.2c-1,0.5-2.6,1.4-2.7,2.4C2.7,19,4,20.1,5.4,18.5c0.4-0.5,0.9-1.2,1.4-2.1c1.2-0.4,2.6-0.9,3.9-1.1
		c1,0.6,2.2,0.9,3,0.9c1.3,0,1.3-1.4,0.8-1.9C13.9,13.7,11.9,13.9,11,14z M3.8,18.5c0.3-0.7,1.4-1.6,1.7-1.9
		C4.4,18.2,3.8,18.5,3.8,18.5z M8.2,8c0.4,0,0.4,1.8,0.1,2.2C8.1,9.5,8.1,8,8.2,8z M6.9,15.5c0.5-0.9,1-2,1.3-3
		c0.5,0.8,1,1.5,1.6,1.9C8.8,14.7,7.8,15.2,6.9,15.5z M14.1,15.2c0,0-0.3,0.3-2-0.4C14,14.7,14.3,15.1,14.1,15.2z"/>
	<path class="st1" d="M17,4.5l-3.9-3.9C12.7,0.2,12.2,0,11.6,0H2.1C0.9,0,0,0.9,0,2.1v19.5c0,1.1,0.9,2,2.1,2h15.5V6
		C17.6,5.4,17.4,4.9,17,4.5z M11.6,1.1l0.3,0.1c0.2,0.1,0.3,0.1,0.5,0.3l3.8,3.8c0.1,0.1,0.2,0.3,0.3,0.4V6h-4.9V1.1z M16.5,22.5
		H2.1c-0.5,0-1-0.4-1-0.9V2.1c0-0.5,0.4-1,1-1h8.4v5.1c0,0.5,0.4,0.9,0.9,0.9h5.1V22.5z"/>
</g>
</svg>
