<?xml version="1.0" encoding="UTF-8"?>
<!DOCTYPE svg PUBLIC "-//W3C//DTD SVG 1.1//EN" "http://www.w3.org/Graphics/SVG/1.1/DTD/svg11.dtd">
<!-- Creator: CorelDRAW 2020 (64-Bit) -->
<svg xmlns="http://www.w3.org/2000/svg" xml:space="preserve" width="50px" height="50px" version="1.1" style="shape-rendering:geometricPrecision; text-rendering:geometricPrecision; image-rendering:optimizeQuality; fill-rule:evenodd; clip-rule:evenodd"
viewBox="0 0 1.23 1.23"
 xmlns:xlink="http://www.w3.org/1999/xlink"
 xmlns:xodm="http://www.corel.com/coreldraw/odm/2003">
 <defs>
  <style type="text/css">
   <![CDATA[
    .fil0 {fill:none}
    .fil1 {fill:url(#id0);fill-rule:nonzero}
   ]]>
  </style>
  <radialGradient id="id0" gradientUnits="userSpaceOnUse" gradientTransform="matrix(2.26618 -0 -0 2.5387 0 -2)" cx="0.192" cy="1.133" r="0.22" fx="0.192" fy="1.133">
   <stop offset="0" style="stop-opacity:1; stop-color:#FA8F21"/>
   <stop offset="0.0901961" style="stop-opacity:1; stop-color:#FA8F21"/>
   <stop offset="0.780392" style="stop-opacity:1; stop-color:#D82D7E"/>
   <stop offset="1" style="stop-opacity:1; stop-color:#D82D7E"/>
  </radialGradient>
 </defs>
 <g id="Layer_x0020_1">
  <metadata id="CorelCorpID_0Corel-Layer"/>
  <rect class="fil0" width="1.23" height="1.23"/>
  <path class="fil1" d="M0.554 0.614l0 0 0 0c0,0 0,0 0,0 0,0 0,0 0,0 0,0 0,0 0,0 0,0 0,0 0,0 0,0 0,0 0,0 0,0 0,0 0,0 0,0 0,0 0,0 0,0 0,0 0,0 0,0 0,0 0,0 0,0 0,0 0,0 0,0 0,0 0,0 0,0 0,0 0,0l0 0zm0 0.549c-0.124,-0.036 -0.227,-0.111 -0.308,-0.224 -0.082,-0.113 -0.122,-0.241 -0.122,-0.383l0 -0.33 0.43 -0.162 0.43 0.162 0 0.33c0,0.007 0,0.014 0,0.021 0,0.006 -0.001,0.013 -0.002,0.019 0,0 -0.003,0 -0.009,0 -0.006,0 -0.013,0 -0.021,0 -0.007,0 -0.014,0 -0.02,0 -0.005,0 -0.008,0 -0.008,0 0,-0.006 0,-0.013 0,-0.019 0.001,-0.007 0.001,-0.014 0.001,-0.021l0 -0.29 -0.371 -0.139 -0.372 0.139 0 0.29c0,0.125 0.035,0.238 0.105,0.34 0.07,0.102 0.159,0.17 0.267,0.205 0,0 0,0 0,0 0,0 0,0 0,0 0,0 0,0.003 0,0.009 0,0.006 0,0.014 0,0.022 0,0.008 0,0.015 0,0.021 0,0.006 0,0.01 0,0.01 0,0 0,0 0,0 0,0 0,0 0,0zm0.31 0.003l0 -0.185 -0.184 0 0 -0.058 0.184 0 0 -0.184 0.058 0 0 0.184 0.185 0 0 0.058 -0.185 0 0 0.185 -0.058 0zm-0.372 -0.4l0.123 0 -0.034 -0.192c0.019,-0.006 0.034,-0.017 0.045,-0.033 0.011,-0.016 0.017,-0.033 0.017,-0.053 0,-0.024 -0.009,-0.045 -0.026,-0.063 -0.018,-0.017 -0.039,-0.026 -0.063,-0.026 -0.025,0 -0.046,0.009 -0.063,0.026 -0.018,0.018 -0.027,0.039 -0.027,0.063 0,0.02 0.006,0.037 0.017,0.053 0.012,0.016 0.027,0.027 0.045,0.033l-0.034 0.192z"/>
 </g>
</svg>
