<?xml version="1.0" encoding="utf-8"?>
<!-- Generator: Adobe Illustrator 27.2.0, SVG Export Plug-In . SVG Version: 6.00 Build 0)  -->
<svg version="1.1" id="Layer_1" xmlns="http://www.w3.org/2000/svg" xmlns:xlink="http://www.w3.org/1999/xlink" x="0px" y="0px"
	 viewBox="0 0 100 100" style="enable-background:new 0 0 100 100;" xml:space="preserve">
<style type="text/css">
	.st0{fill:url(#SVGID_1_);}
	.st1{fill:url(#SVGID_00000048496381131230059380000008625892291855781819_);}
	.st2{fill:#FFFFFF;}
</style>
<radialGradient id="SVGID_1_" cx="-693.0773" cy="841.1494" r="49.9326" gradientTransform="matrix(0 -1.9821 1.8436 0 -1524.1726 -1266.1664)" gradientUnits="userSpaceOnUse">
	<stop  offset="0" style="stop-color:#FFDD55"/>
	<stop  offset="0.1" style="stop-color:#FFDD55"/>
	<stop  offset="0.5" style="stop-color:#FF543E"/>
	<stop  offset="1" style="stop-color:#C837AB"/>
</radialGradient>
<path class="st0" d="M0.1,0l0,100h99.9V0H0.1z"/>
<radialGradient id="SVGID_00000023275636926593967210000010703135617117447556_" cx="577.1615" cy="380.6709" r="53.7294" gradientTransform="matrix(0.1739 0.8688 -3.5811 0.7172 1241.0009 -770.3624)" gradientUnits="userSpaceOnUse">
	<stop  offset="0" style="stop-color:#3771C8"/>
	<stop  offset="0.128" style="stop-color:#3771C8"/>
	<stop  offset="1" style="stop-color:#6600FF;stop-opacity:0"/>
</radialGradient>
<path style="fill:url(#SVGID_00000023275636926593967210000010703135617117447556_);" d="M0.1,0.1l-0.2,100h100.2L100,0L0.1,0.1z"/>
<path class="st2" d="M50,13.1c-10,0-11.3,0-15.2,0.2s-6.6,0.8-9,1.7s-4.5,2.2-6.5,4.3c-2.1,2.1-3.3,4.1-4.3,6.5
	c-0.9,2.3-1.5,5-1.7,9c-0.2,3.9-0.2,5.2-0.2,15.2s0,11.3,0.2,15.2c0.2,3.9,0.8,6.6,1.7,9s2.2,4.5,4.3,6.5c2.1,2.1,4.1,3.3,6.5,4.3
	c2.3,0.9,5,1.5,9,1.7c3.9,0.2,5.2,0.2,15.2,0.2s11.3,0,15.2-0.2c3.9-0.2,6.6-0.8,9-1.7c2.4-0.9,4.5-2.2,6.5-4.3
	c2.1-2.1,3.3-4.1,4.3-6.5c0.9-2.3,1.5-5,1.7-9c0.2-3.9,0.2-5.2,0.2-15.2s0-11.3-0.2-15.2s-0.8-6.6-1.7-9c-0.9-2.4-2.2-4.5-4.3-6.5
	c-2.1-2.1-4.1-3.3-6.5-4.3c-2.4-0.9-5-1.5-9-1.7C61.3,13.1,60,13.1,50,13.1L50,13.1z M46.7,19.7c1,0,2.1,0,3.3,0
	c9.9,0,11,0,14.9,0.2c3.6,0.2,5.6,0.8,6.9,1.3c1.7,0.7,3,1.5,4.2,2.8c1.3,1.3,2.1,2.5,2.8,4.2c0.5,1.3,1.1,3.3,1.3,6.9
	c0.2,3.9,0.2,5.1,0.2,14.9s0,11-0.2,14.9c-0.2,3.6-0.8,5.6-1.3,6.9c-0.7,1.7-1.5,2.9-2.8,4.2c-1.3,1.3-2.5,2.1-4.2,2.8
	c-1.3,0.5-3.3,1.1-6.9,1.3c-3.9,0.2-5.1,0.2-14.9,0.2c-9.9,0-11,0-14.9-0.2c-3.6-0.2-5.6-0.8-6.9-1.3c-1.7-0.7-3-1.5-4.2-2.8
	c-1.3-1.3-2.1-2.5-2.8-4.2c-0.5-1.3-1.1-3.3-1.3-6.9c-0.2-3.9-0.2-5.1-0.2-14.9s0-11,0.2-14.9c0.2-3.6,0.8-5.6,1.3-6.9
	c0.7-1.7,1.5-3,2.8-4.2c1.3-1.3,2.5-2.1,4.2-2.8c1.3-0.5,3.3-1.1,6.9-1.3C38.5,19.8,39.8,19.7,46.7,19.7L46.7,19.7z M69.7,25.9
	c-2.4,0-4.4,2-4.4,4.4s2,4.4,4.4,4.4s4.4-2,4.4-4.4S72.2,25.9,69.7,25.9L69.7,25.9z M50,31c-10.5,0-19,8.5-19,19s8.5,19,19,19
	s19-8.5,19-19S60.5,31,50,31L50,31z M50,37.7c6.8,0,12.3,5.5,12.3,12.3S56.8,62.3,50,62.3S37.7,56.8,37.7,50S43.2,37.7,50,37.7z"/>
</svg>
