<?xml version="1.0" encoding="utf-8"?>
<!-- Generator: Adobe Illustrator 27.2.0, SVG Export Plug-In . SVG Version: 6.00 Build 0)  -->
<svg version="1.1" id="Layer_1" xmlns="http://www.w3.org/2000/svg" xmlns:xlink="http://www.w3.org/1999/xlink" x="0px" y="0px"
	 viewBox="0 0 100 100" style="enable-background:new 0 0 100 100;" xml:space="preserve">
<style type="text/css">
	.st0{fill:url(#SVGID_1_);}
	.st1{fill:#FFFFFF;}
</style>
<rect y="0" class="st0" width="100" height="100" style="fill: #229ED9;"/>
<path class="st1" d="M12.7,45.4c21.5-9.4,35.8-15.5,43-18.5c20.5-8.5,24.7-10,27.5-10c0.6,0,2,0.1,2.9,0.9c0.7,0.6,1,1.4,1,2
	c0.1,0.6,0.2,1.9,0.1,2.9c-1.1,11.6-5.9,39.9-8.3,53c-1,5.5-3.1,7.4-5,7.6c-4.3,0.4-7.5-2.8-11.7-5.5c-6.5-4.2-10.1-6.9-16.4-11
	c-7.3-4.8-2.6-7.4,1.6-11.7c1.1-1.1,19.9-18.3,20.3-19.8c0-0.2,0.1-0.9-0.3-1.3c-0.4-0.4-1.1-0.3-1.5-0.1c-0.7,0.1-11,7-31.1,20.5
	c-2.9,2-5.6,3-8,3c-2.6-0.1-7.7-1.5-11.5-2.7c-4.6-1.5-8.3-2.3-8-4.8C7.4,48.2,9.2,46.8,12.7,45.4z"/>
</svg>
